<svg xmlns="http://www.w3.org/2000/svg" xmlns:xlink="http://www.w3.org/1999/xlink" viewBox="0 0 494.79 291.04"><defs><style>.cls-1,.cls-12,.cls-16,.cls-19,.cls-22,.cls-8{fill:none;}.cls-2{fill:#297b3a;stroke:#fff;}.cls-12,.cls-16,.cls-19,.cls-2,.cls-22,.cls-8{stroke-miterlimit:10;}.cls-3{fill:#def1fb;}.cls-4{fill:#fff;}.cls-5{font-size:24px;}.cls-23,.cls-5{fill:#21418f;font-family:Arnold21, "Arnold 2.1";}.cls-6{clip-path:url(#clip-path);}.cls-7{fill:#e0de00;}.cls-12,.cls-16,.cls-19,.cls-22,.cls-8{stroke:#1d1d1b;}.cls-8{stroke-width:0.22px;}.cls-9{fill:#dbdbdb;}.cls-10{clip-path:url(#clip-path-3);}.cls-11{fill:#fcf7c6;}.cls-12{stroke-width:0.36px;}.cls-13{fill:#999998;}.cls-14{clip-path:url(#clip-path-5);}.cls-15{fill:#e42216;}.cls-16{stroke-width:0.33px;}.cls-17{clip-path:url(#clip-path-7);}.cls-18{fill:#e62a29;}.cls-19{stroke-width:0.42px;}.cls-20{clip-path:url(#clip-path-9);}.cls-21{fill:#d31216;}.cls-22{stroke-width:0.28px;}.cls-23{font-size:11px;}</style><clipPath id="clip-path" transform="translate(-1.75 -1.76)"><rect class="cls-1" x="149.99" y="132.57" width="70.59" height="85"/></clipPath><clipPath id="clip-path-3" transform="translate(-1.75 -1.76)"><rect class="cls-1" x="295.57" y="132.57" width="47.96" height="85"/></clipPath><clipPath id="clip-path-5" transform="translate(-1.75 -1.76)"><rect class="cls-1" x="352.64" y="78.26" width="80" height="77.91"/></clipPath><clipPath id="clip-path-7" transform="translate(-1.75 -1.76)"><rect class="cls-1" x="65.64" y="71.17" width="75.23" height="85"/></clipPath><clipPath id="clip-path-9" transform="translate(-1.75 -1.76)"><rect class="cls-1" x="229.7" y="71.17" width="56.75" height="85"/></clipPath></defs><g id="Laag_2" data-name="Laag 2"><rect class="cls-2" x="0.5" y="0.5" width="493.79" height="290.04" rx="37.9"/><rect class="cls-3" x="19.53" y="17.17" width="455.73" height="256.71" rx="35.44"/><path class="cls-4" d="M441.57,20.42a34,34,0,0,1,33.94,33.95V240.19a34,34,0,0,1-33.94,33.94H56.72a34,34,0,0,1-33.94-33.94V54.37A34,34,0,0,1,56.72,20.42H441.57m0-3H56.72A37,37,0,0,0,19.78,54.37V240.19a37,37,0,0,0,36.94,36.94H441.57a37,37,0,0,0,36.94-36.94V54.37a37,37,0,0,0-36.94-36.95Z" transform="translate(-1.75 -1.76)"/></g><g id="Laag_1" data-name="Laag 1"><text class="cls-5" transform="translate(100.46 47.07)">Verplicht mee in de auto:</text><g id="veiligheidsvest"><g class="cls-6"><g class="cls-6"><path class="cls-7" d="M205.37,145.53c0-4.41-.24-8.89-.18-12.85H194.87c-.26,4.42-7.84,13.15-9.59,13.15s-9.33-8.73-9.59-13.15H165.37c.06,4-.18,8.44-.18,12.85,0,12.54-6.75,22.71-15.09,22.79v49.14h70.37V168.32c-8.35-.08-15.1-10.25-15.1-22.79" transform="translate(-1.75 -1.76)"/><path class="cls-8" d="M205.37,145.53c0-4.41-.24-8.89-.18-12.85H194.87c-.26,4.42-7.84,13.15-9.59,13.15s-9.33-8.73-9.59-13.15H165.37c.06,4-.18,8.44-.18,12.85,0,12.54-6.75,22.71-15.09,22.79v49.14h70.37V168.32C212.12,168.24,205.37,158.07,205.37,145.53Z" transform="translate(-1.75 -1.76)"/><path class="cls-9" d="M185.28,208c-18.12,0-33-3.5-35-8a2.52,2.52,0,0,0-.21,1c0,5,15.75,9,35.18,9s35.19-4,35.19-9a2.53,2.53,0,0,0-.22-1c-1.93,4.5-16.85,8-35,8" transform="translate(-1.75 -1.76)"/><path class="cls-8" d="M185.28,208c-18.12,0-33-3.5-35-8a2.52,2.52,0,0,0-.21,1c0,5,15.75,9,35.18,9s35.19-4,35.19-9a2.53,2.53,0,0,0-.22-1C218.32,204.53,203.4,208,185.28,208Z" transform="translate(-1.75 -1.76)"/><path class="cls-9" d="M220.25,185.56c-1.32,3.08-8.73,5.69-19.08,7V132.83H199.1v60a129.1,129.1,0,0,1-13.82.72,126.75,126.75,0,0,1-14.13-.76V132.68h-2.06v59.87c-10.2-1.35-17.47-3.94-18.78-7a2.52,2.52,0,0,0-.21,1c0,5,15.75,9,35.18,9s35.19-4,35.19-9a2.53,2.53,0,0,0-.22-1" transform="translate(-1.75 -1.76)"/><path class="cls-8" d="M220.25,185.56c-1.32,3.08-8.73,5.69-19.08,7V132.83H199.1v60a129.1,129.1,0,0,1-13.82.72,126.75,126.75,0,0,1-14.13-.76V132.68h-2.06v59.87c-10.2-1.35-17.47-3.94-18.78-7a2.52,2.52,0,0,0-.21,1c0,5,15.75,9,35.18,9s35.19-4,35.19-9A2.53,2.53,0,0,0,220.25,185.56Z" transform="translate(-1.75 -1.76)"/></g></g></g><g id="lamp"><g class="cls-10"><g class="cls-10"><path class="cls-11" d="M343.34,156.55c0,13.14-5.64,36.81-23.8,36.81-16.79,0-23.79-23.67-23.79-36.81a23.8,23.8,0,0,1,47.59,0" transform="translate(-1.75 -1.76)"/><path class="cls-12" d="M343.34,156.55c0,13.14-5.64,36.81-23.8,36.81-16.79,0-23.79-23.67-23.79-36.81a23.8,23.8,0,0,1,47.59,0Z" transform="translate(-1.75 -1.76)"/><path class="cls-11" d="M323.54,217.39h-8a4.37,4.37,0,0,1-4.37-4.37V194.34a19.34,19.34,0,0,0,8.36,1.63,19,19,0,0,0,8.37-1.63V213a4.38,4.38,0,0,1-4.37,4.37" transform="translate(-1.75 -1.76)"/><path class="cls-12" d="M323.54,217.39h-8a4.37,4.37,0,0,1-4.37-4.37V194.34a19.34,19.34,0,0,0,8.36,1.63,19,19,0,0,0,8.37-1.63V213A4.38,4.38,0,0,1,323.54,217.39Z" transform="translate(-1.75 -1.76)"/><path class="cls-13" d="M319.54,202.54a19.34,19.34,0,0,1-8.36-1.63v1.39a19.34,19.34,0,0,0,8.36,1.63,19,19,0,0,0,8.37-1.63v-1.39a19,19,0,0,1-8.37,1.63" transform="translate(-1.75 -1.76)"/><path class="cls-12" d="M319.54,202.54a19.34,19.34,0,0,1-8.36-1.63v1.39a19.34,19.34,0,0,0,8.36,1.63,19,19,0,0,0,8.37-1.63v-1.39A19,19,0,0,1,319.54,202.54Z" transform="translate(-1.75 -1.76)"/><path class="cls-13" d="M319.54,206.69a19.34,19.34,0,0,1-8.36-1.63v1.39a19.34,19.34,0,0,0,8.36,1.63,19,19,0,0,0,8.37-1.63v-1.39a19,19,0,0,1-8.37,1.63" transform="translate(-1.75 -1.76)"/><path class="cls-12" d="M319.54,206.69a19.34,19.34,0,0,1-8.36-1.63v1.39a19.34,19.34,0,0,0,8.36,1.63,19,19,0,0,0,8.37-1.63v-1.39A19,19,0,0,1,319.54,206.69Z" transform="translate(-1.75 -1.76)"/><path class="cls-13" d="M319.54,198.39a19.34,19.34,0,0,1-8.36-1.63v1.39a19.34,19.34,0,0,0,8.36,1.63,19,19,0,0,0,8.37-1.63v-1.39a19,19,0,0,1-8.37,1.63" transform="translate(-1.75 -1.76)"/><path class="cls-12" d="M319.54,198.39a19.34,19.34,0,0,1-8.36-1.63v1.39a19.34,19.34,0,0,0,8.36,1.63,19,19,0,0,0,8.37-1.63v-1.39A19,19,0,0,1,319.54,198.39Z" transform="translate(-1.75 -1.76)"/><path class="cls-13" d="M319.54,210.84a19.34,19.34,0,0,1-8.36-1.63v1.39a19.34,19.34,0,0,0,8.36,1.63,19,19,0,0,0,8.37-1.63v-1.39a19,19,0,0,1-8.37,1.63" transform="translate(-1.75 -1.76)"/><path class="cls-12" d="M319.54,210.84a19.34,19.34,0,0,1-8.36-1.63v1.39a19.34,19.34,0,0,0,8.36,1.63,19,19,0,0,0,8.37-1.63v-1.39A19,19,0,0,1,319.54,210.84Z" transform="translate(-1.75 -1.76)"/><path class="cls-12" d="M312.48,191.88s8.65-30.58-2-20.82c-8.25,7.53,18.76,10.33,21,4,1.72-4.93-11.31-14.65-4.89,16.86" transform="translate(-1.75 -1.76)"/></g></g></g><g id="Illustratie_1" data-name="Illustratie 1"><g class="cls-14"><g class="cls-14"><path class="cls-15" d="M403.46,79.54l-49.79,55.51a3.35,3.35,0,0,0,1.8,5.51l73,15.37a3.35,3.35,0,0,0,3.87-4.32L409.13,80.74a3.35,3.35,0,0,0-5.67-1.2l-49.79,55.51a3.35,3.35,0,0,0,1.8,5.51l73,15.37a3.35,3.35,0,0,0,3.87-4.32L409.13,80.74a3.35,3.35,0,0,0-5.67-1.2" transform="translate(-1.75 -1.76)"/><path class="cls-16" d="M403.46,79.54l-49.79,55.51a3.35,3.35,0,0,0,1.8,5.51l73,15.37a3.35,3.35,0,0,0,3.87-4.32L409.13,80.74a3.35,3.35,0,0,0-5.67-1.2l-49.79,55.51a3.35,3.35,0,0,0,1.8,5.51l73,15.37a3.35,3.35,0,0,0,3.87-4.32L409.13,80.74A3.35,3.35,0,0,0,403.46,79.54Z" transform="translate(-1.75 -1.76)"/><polygon class="cls-4" points="402.3 92.98 369.23 129.85 417.7 140.06 402.3 92.98 369.23 129.85 417.7 140.06 402.3 92.98"/><polygon class="cls-16" points="402.3 92.98 369.23 129.85 417.7 140.06 402.3 92.98 369.23 129.85 417.7 140.06 402.3 92.98"/></g></g></g><g id="ehbodoos"><g class="cls-17"><g class="cls-17"><path class="cls-18" d="M135.61,85.81H115.09V72.94a1.56,1.56,0,0,0-1.56-1.56H93a1.56,1.56,0,0,0-1.56,1.56V85.81H70.9a5.07,5.07,0,0,0-5.05,5v60.05A5.07,5.07,0,0,0,70.9,156h64.71a5.07,5.07,0,0,0,5-5.05v-60a5.07,5.07,0,0,0-5-5M94.35,76.38a1.18,1.18,0,0,1,1.17-1.17H111a1.17,1.17,0,0,1,1.17,1.17v9.43H94.35Z" transform="translate(-1.75 -1.76)"/><path class="cls-19" d="M135.61,85.81H115.09V72.94a1.56,1.56,0,0,0-1.56-1.56H93a1.56,1.56,0,0,0-1.56,1.56V85.81H70.9a5.07,5.07,0,0,0-5.05,5v60.05A5.07,5.07,0,0,0,70.9,156h64.71a5.07,5.07,0,0,0,5-5.05v-60A5.07,5.07,0,0,0,135.61,85.81ZM94.35,76.38a1.18,1.18,0,0,1,1.17-1.17H111a1.17,1.17,0,0,1,1.17,1.17v9.43H94.35Z" transform="translate(-1.75 -1.76)"/><rect class="cls-4" x="98.28" y="98.48" width="6.45" height="41.59"/><rect class="cls-4" x="80.71" y="116.05" width="41.59" height="6.45"/></g></g></g><g id="brandblusser"><g class="cls-20"><g class="cls-20"><path class="cls-21" d="M253.91,88.24h-.5a14.63,14.63,0,0,0-14.59,14.59v51A2.23,2.23,0,0,0,241,156h25.23a2.23,2.23,0,0,0,2.23-2.23v-51a14.63,14.63,0,0,0-14.59-14.59" transform="translate(-1.75 -1.76)"/><path class="cls-22" d="M253.91,88.24h-.5a14.63,14.63,0,0,0-14.59,14.59v51A2.23,2.23,0,0,0,241,156h25.23a2.23,2.23,0,0,0,2.23-2.23v-51A14.63,14.63,0,0,0,253.91,88.24Z" transform="translate(-1.75 -1.76)"/><path class="cls-21" d="M252.1,86.1h4.55a2.44,2.44,0,0,0,2.43-2.43V78a2.43,2.43,0,0,0-2.43-2.43H252.1A2.44,2.44,0,0,0,249.66,78v5.7a2.45,2.45,0,0,0,2.44,2.43" transform="translate(-1.75 -1.76)"/><rect class="cls-22" x="247.91" y="73.78" width="9.42" height="10.56" rx="2.43"/><path class="cls-21" d="M248.36,81.91c0-5.15-.5-5.08-6.56-5.06-6.94,0-11.94,6.4-11.93,14,0,4.52-.56,9.55,2.86,9.6.85,0,1.66,0,1.67-1.47,0-7.56,3.37-14.52,10.29-14.52,2.67,0,3.67.67,3.67-2.54" transform="translate(-1.75 -1.76)"/><path class="cls-22" d="M248.36,81.91c0-5.15-.5-5.08-6.56-5.06-6.94,0-11.94,6.4-11.93,14,0,4.52-.56,9.55,2.86,9.6.85,0,1.66,0,1.67-1.47,0-7.56,3.37-14.52,10.29-14.52C247.36,84.45,248.36,85.12,248.36,81.91Z" transform="translate(-1.75 -1.76)"/><polygon class="cls-21" points="258.75 75.98 258.75 82.35 284.53 90.55 284.56 69.59 258.75 75.98"/><polygon class="cls-22" points="258.75 75.98 258.75 82.35 284.53 90.55 284.56 69.59 258.75 75.98"/></g></g></g><text class="cls-23" transform="translate(40.91 238.35)">In elk land geldt een andere regel. Check van tevoren hoe het zit op jouw <tspan x="7.72" y="13.2">bestemming en voorkom onnodig oponthoud of boetes over de grens.</tspan></text></g></svg>