<svg xmlns="http://www.w3.org/2000/svg" xmlns:xlink="http://www.w3.org/1999/xlink" viewBox="0 0 492.74 237"><defs><style>.cls-1{fill:none;}.cls-2{fill:#297b3a;stroke:#fff;stroke-miterlimit:10;}.cls-3{fill:#def1fb;}.cls-4,.cls-5{fill:#fff;}.cls-15,.cls-16,.cls-5{fill-rule:evenodd;}.cls-6{clip-path:url(#clip-path);}.cls-7{clip-path:url(#clip-path-3);}.cls-8{font-size:18px;fill:#21418f;}.cls-11,.cls-12,.cls-13,.cls-14,.cls-8,.cls-9{font-family:Arnold21, "Arnold 2.1";}.cls-9{font-size:45.58px;}.cls-11,.cls-12,.cls-13,.cls-14,.cls-9{fill:#222e5b;}.cls-10{font-family:MyriadPro-Regular, Myriad Pro;}.cls-11{font-size:27.68px;}.cls-12{font-size:22.15px;}.cls-13{font-size:16.61px;}.cls-14{font-size:12.18px;}.cls-15{fill:#1f2c5c;}.cls-16,.cls-17{fill:#afca0b;}</style><clipPath id="clip-path" transform="translate(-11.95 -7.63)"><rect class="cls-1" x="328.18" y="64.69" width="32.25" height="23.69"/></clipPath><clipPath id="clip-path-3" transform="translate(-11.95 -7.63)"><rect class="cls-1" x="214.52" y="78.75" width="38.52" height="20.08"/></clipPath></defs><g id="Laag_12" data-name="Laag 12"><rect class="cls-2" x="0.5" y="0.5" width="491.74" height="236" rx="39.69"/><rect class="cls-3" x="15.19" y="13.78" width="461.35" height="209.44" rx="32.31"/><path class="cls-4" d="M456.18,22.91A30.89,30.89,0,0,1,487,53.72V198.54a30.89,30.89,0,0,1-30.8,30.81H59.44a30.9,30.9,0,0,1-30.81-30.81V53.72A30.9,30.9,0,0,1,59.44,22.91H456.18m0-3H59.44A33.85,33.85,0,0,0,25.63,53.72V198.54a33.85,33.85,0,0,0,33.81,33.81H456.18A33.84,33.84,0,0,0,490,198.54V53.72a33.84,33.84,0,0,0-33.8-33.81Z" transform="translate(-11.95 -7.63)"/></g><g id="Laag_10" data-name="Laag 10"><path class="cls-5" d="M409,119a13.83,13.83,0,0,0,6.2-1.41c1.91,2.92,5.82,4.93,10.31,4.93a13.41,13.41,0,0,0,8-2.5,14.07,14.07,0,0,0,5.44,1.06c6.36,0,11.54-4,11.54-9,0-3.68-2.89-6.86-7-8.23l-.07-.13v0l-.09-.15-.18-.28h0l-.09-.14-.1-.14-.22-.28-.1-.12h0l-.11-.14a10.79,10.79,0,0,0-1.13-1.11l0,0-.12-.09-.14-.12h0l-.15-.11-.14-.1h0l-.11-.08,0,0-.16-.1-.13-.09,0,0-.06,0-.1-.06,0,0-.13-.08-.17-.1-.15-.08h0a2.68,2.68,0,0,0-.33-.18l-.18-.09h0l-.15-.08-.15-.07-.08,0-.13-.06-.18-.08h0l-.15-.07-.09,0-.1,0-.15-.06h0l-.18-.07h0l-.16-.06-.09,0-.1,0-.16,0h0l-.2-.06h0l-.16,0-.11,0-.09,0-.17,0h0l-.2,0H436l-.15,0-.12,0-.09,0-.19,0h0l-.48-.08h-.14l-.2,0h0l-.21,0h-1.66C431,95.29,426.87,93,422.08,93c-6,0-11,3.63-11.51,8.22-.52,0-1-.08-1.58-.08-6.36,0-11.54,4-11.54,9s5.18,9,11.54,9Z" transform="translate(-11.95 -7.63)"/><path class="cls-5" d="M43.75,62.42a8.32,8.32,0,0,0,3.66-.83,7.22,7.22,0,0,0,6.07,2.9A7.91,7.91,0,0,0,58.19,63a8.35,8.35,0,0,0,3.21.62c3.74,0,6.8-2.37,6.8-5.27,0-2.18-1.7-4-4.13-4.85a7.07,7.07,0,0,0-6.24-3.19h-.08a7.06,7.06,0,0,0-6.29-3.26c-3.55,0-6.49,2.14-6.78,4.85a7.06,7.06,0,0,0-.93-.05c-3.74,0-6.8,2.37-6.8,5.27s3.06,5.28,6.8,5.28Z" transform="translate(-11.95 -7.63)"/><g id="wolk_4" data-name="wolk 4"><g class="cls-6"><g class="cls-6"><path class="cls-4" d="M335.19,70.58a5.89,5.89,0,1,0,5.88-5.89,5.89,5.89,0,0,0-5.88,5.89" transform="translate(-11.95 -7.63)"/><path class="cls-4" d="M342.34,74.86c0,3.37-3.17,6.1-7.08,6.1s-7.08-2.73-7.08-6.1,3.17-6.1,7.08-6.1,7.08,2.73,7.08,6.1" transform="translate(-11.95 -7.63)"/><path class="cls-4" d="M356.36,71.56a6.59,6.59,0,1,0-6.59,6.59,6.59,6.59,0,0,0,6.59-6.59" transform="translate(-11.95 -7.63)"/><path class="cls-4" d="M351,81.66c0-3.72-3.52-6.73-7.85-6.73s-7.85,3-7.85,6.73,3.51,6.73,7.85,6.73,7.85-3,7.85-6.73" transform="translate(-11.95 -7.63)"/><path class="cls-4" d="M345.84,78.85a7.29,7.29,0,1,1,7.29,7.29,7.3,7.3,0,0,1-7.29-7.29" transform="translate(-11.95 -7.63)"/></g></g></g><g id="wolk_2" data-name="wolk 2"><g class="cls-7"><g class="cls-7"><path class="cls-4" d="M238.32,90.57a7.37,7.37,0,1,0,7.37-7.36,7.37,7.37,0,0,0-7.37,7.36" transform="translate(-11.95 -7.63)"/><path class="cls-4" d="M230.59,84a5.21,5.21,0,1,1,5.2,5.2,5.2,5.2,0,0,1-5.2-5.2" transform="translate(-11.95 -7.63)"/><path class="cls-4" d="M222.7,84.62a5.88,5.88,0,1,1,5.88,5.88,5.88,5.88,0,0,1-5.88-5.88" transform="translate(-11.95 -7.63)"/><path class="cls-4" d="M214.52,89.46A5.51,5.51,0,1,0,220,84a5.51,5.51,0,0,0-5.51,5.5" transform="translate(-11.95 -7.63)"/><path class="cls-4" d="M228.21,90.13c0-3.49,3.53-6.32,7.88-6.32S244,86.64,244,90.13s-3.53,6.32-7.89,6.32-7.88-2.83-7.88-6.32" transform="translate(-11.95 -7.63)"/><path class="cls-4" d="M233.71,93.33a5.51,5.51,0,1,1-5.5-5.51,5.5,5.5,0,0,1,5.5,5.51" transform="translate(-11.95 -7.63)"/></g></g></g></g><g id="Laag_1" data-name="Laag 1"><text class="cls-8" transform="translate(50.41 41.86)">welke vervoersmiddel kiezen Nederlanders?</text><g id="percentage"><text class="cls-9" transform="translate(266.99 203.52)">47<tspan class="cls-10" x="49.45" y="0">%</tspan></text><text class="cls-11" transform="translate(246.93 156.52)">43<tspan class="cls-10" x="28.87" y="0">%</tspan></text><text class="cls-12" transform="translate(104.93 111.49)">6<tspan class="cls-10" x="12.89" y="0">%</tspan></text><text class="cls-13" transform="translate(77.32 74.71)">4<tspan class="cls-10" x="9.12" y="0">%</tspan></text></g><g id="legenda"><text class="cls-14" transform="translate(106.95 76.49)">overige</text></g></g><g id="Laag_5" data-name="Laag 5"><path class="cls-15" d="M358.35,144a.19.19,0,0,0-.14-.17.19.19,0,0,0-.21.05l-7.23,7.64a.19.19,0,0,0,0,.19l4,16.64a.19.19,0,0,0,.15.15h.05a.24.24,0,0,0,.16-.07l4.84-5.73a.21.21,0,0,0,.05-.15L358.35,144Z" transform="translate(-11.95 -7.63)"/><path class="cls-15" d="M348.1,135.52a.17.17,0,0,0-.17-.13L328.28,134a.22.22,0,0,0-.13,0l-6.75,4.57a.2.2,0,0,0-.09.2.2.2,0,0,0,.15.16l18.76,4.92h0a.2.2,0,0,0,.15-.06l7.64-8.12a.19.19,0,0,0,0-.21Z" transform="translate(-11.95 -7.63)"/><path class="cls-15" d="M363.54,129.1a4.56,4.56,0,0,0-3.22-1.09,6.89,6.89,0,0,0-4.43,1.43c-1.18,1.18-18.82,20.07-21.82,23.29l-6.31-.46a.18.18,0,0,0-.19.1l-1.66,2.86a.25.25,0,0,0,0,.17.19.19,0,0,0,.11.12l8.65,3.56,2.52,8.49a.24.24,0,0,0,.11.13l.09,0,.07,0,3.59-1.49a.22.22,0,0,0,.13-.2l-.55-6.53c3.19-3.17,21.52-21.32,22.79-22.59a6.15,6.15,0,0,0,1.33-3.73,5.3,5.3,0,0,0-1.2-4.06Z" transform="translate(-11.95 -7.63)"/><path class="cls-16" d="M337.85,167.33l-2.83-9a.19.19,0,0,0-.12-.13l-8.56-3.36a.2.2,0,0,0-.24.08l-.58.88a.22.22,0,0,0,0,.18.2.2,0,0,0,.12.12l8.3,3.29,2.58,8.48a.22.22,0,0,0,.11.12.15.15,0,0,0,.09,0h.07l1-.38a.2.2,0,0,0,.12-.26Z" transform="translate(-11.95 -7.63)"/></g><g id="Laag_7" data-name="Laag 7"><path class="cls-5" d="M405.19,200.92a6.62,6.62,0,1,1-6.85,6.62,6.74,6.74,0,0,1,6.85-6.62Z" transform="translate(-11.95 -7.63)"/><path class="cls-5" d="M447.37,201.52a6.62,6.62,0,1,1-6.85,6.62,6.74,6.74,0,0,1,6.85-6.62Z" transform="translate(-11.95 -7.63)"/><path class="cls-15" d="M405.77,187a.41.41,0,0,0,.37.23h21.59a.41.41,0,0,0,.42-.41l.16-12.81a.41.41,0,0,0-.42-.4l-11.84.1a.41.41,0,0,0-.33.15l-9.91,12.71a.4.4,0,0,0,0,.43Zm25.16-.18a.41.41,0,0,0,.42.41h22.44a.41.41,0,0,0,.38-.24.4.4,0,0,0-.07-.44L443,173.7a.44.44,0,0,0-.31-.13l-11.37,0a.41.41,0,0,0-.42.41l.05,12.85Zm-30-.25s11.94-14.08,13.81-15.11,7.87-1.47,14.05-1.47,14.56.41,16,1.76,11.55,10.79,13.73,15.24c.32.64,5,.4,7.2.4s2.65,19.76,2.66,19.76a.81.81,0,0,1-.1.74.88.88,0,0,1-.69.34H457v-.08c0-6.47-4.33-9.78-9.58-9.78-4.85,0-9.42,3.31-9.42,9.78v.08l-24.08,0h0c0-6.76-3.93-10.22-9.23-10.22-5.93,0-9.55,3.74-9.55,10.21H377.52a.82.82,0,0,1-.83-.8s-1.47-11.25.63-15S401,186.56,401,186.56Z" transform="translate(-11.95 -7.63)"/><path class="cls-16" d="M404.48,210.35a3.41,3.41,0,1,0-3.54-3.41,3.48,3.48,0,0,0,3.54,3.41Zm0-11.84a8.44,8.44,0,1,1-8.78,8.43,8.62,8.62,0,0,1,8.78-8.43Z" transform="translate(-11.95 -7.63)"/><path class="cls-16" d="M447.37,210.94a3.4,3.4,0,1,0-3.54-3.4,3.48,3.48,0,0,0,3.54,3.4Zm0-11.83a8.44,8.44,0,1,1-8.78,8.43,8.63,8.63,0,0,1,8.78-8.43Z" transform="translate(-11.95 -7.63)"/></g><g id="Laag_8" data-name="Laag 8"><path class="cls-16" d="M190.22,95.85c-.07-.07-1.95-1.85-6.72-1.85s-6.64,1.78-6.72,1.85a.4.4,0,0,0-.12.29V112a.4.4,0,0,0,.4.4h12.88a.4.4,0,0,0,.4-.4V96.14a.4.4,0,0,0-.12-.29Z" transform="translate(-11.95 -7.63)"/><path class="cls-16" d="M177,119.46a1.83,1.83,0,1,1-1.82-1.82,1.82,1.82,0,0,1,1.82,1.82Z" transform="translate(-11.95 -7.63)"/><path class="cls-16" d="M193.92,119.46a1.83,1.83,0,1,1-1.83-1.82,1.83,1.83,0,0,1,1.83,1.82Z" transform="translate(-11.95 -7.63)"/><path class="cls-15" d="M192.09,122.08a2.62,2.62,0,1,1,2.62-2.62,2.62,2.62,0,0,1-2.62,2.62Zm-16.88,0a2.62,2.62,0,1,1,2.62-2.62,2.62,2.62,0,0,1-2.62,2.62Zm17.46-25.94A.6.6,0,0,0,192,96a.58.58,0,0,0-.38.55v17.12H175.44V96.54a.6.6,0,0,0-.38-.56.62.62,0,0,0-.66.16c-.15.17-3.54,4-3.54,6.77v20a.6.6,0,0,0,.6.6h24.08a.6.6,0,0,0,.6-.6v-20c0-2.85-3.33-6.54-3.47-6.7Z" transform="translate(-11.95 -7.63)"/><polygon class="cls-16" points="184.99 119.48 158.25 119.48 159.05 116.96 184.19 116.96 184.99 119.48 184.99 119.48"/><path class="cls-16" d="M172.66,141l.78-2.77h20.94l.79,2.77Zm2.37-8.38h17.76l.78,2.74H174.25l.78-2.74Zm22.32,10.24-4.08-14.41h-1.65l.36,1.31H175.84l.37-1.31h-1.66l-4.07,14.41a.79.79,0,0,0,.55,1,.9.9,0,0,0,.16,0h25.46a.39.39,0,0,0,.15,0,.8.8,0,0,0,.55-1Z" transform="translate(-11.95 -7.63)"/></g><g id="Laag_9" data-name="Laag 9"><rect class="cls-17" x="47.81" y="106.04" width="25.58" height="10.56"/><rect class="cls-17" x="47.81" y="66.39" width="16.9" height="10.56"/><rect class="cls-17" x="47.81" y="145.7" width="183.09" height="10.56"/><rect class="cls-17" x="47.81" y="185.35" width="200.12" height="10.56"/></g></svg>