<svg xmlns="http://www.w3.org/2000/svg" xmlns:xlink="http://www.w3.org/1999/xlink" viewBox="0 0 538.7 507.48"><defs><style>.cls-1,.cls-51,.cls-71{fill:none;}.cls-2{isolation:isolate;}.cls-3{fill:#297b3a;stroke:#fff;}.cls-3,.cls-71{stroke-miterlimit:10;}.cls-4{fill:#def1fb;}.cls-29,.cls-30,.cls-5,.cls-73{fill:#fff;}.cls-6{fill:#c6e7f7;}.cls-7{fill:#f6b235;}.cls-8{opacity:0.8;}.cls-9{opacity:0.5;}.cls-10{opacity:0.2;}.cls-11{fill:#45a4dc;}.cls-12{fill:#4386c6;}.cls-13{fill:#e4f3f8;}.cls-14{fill:#632828;}.cls-15{fill:#783333;}.cls-16{fill:#b76362;}.cls-17{fill:#c46f6f;}.cls-18{fill:#4f2e26;}.cls-19{fill:#4a2c25;}.cls-20{fill:#8bb725;}.cls-21{fill:#72ab2d;}.cls-22{fill:#a2c624;}.cls-23{fill:#67972f;}.cls-24{fill:#82ad29;}.cls-25{clip-path:url(#clip-path);}.cls-26{fill:#56342a;}.cls-27{fill:#4e4e5e;}.cls-28{fill:#9796a8;}.cls-29{font-size:6.32px;}.cls-29,.cls-30{font-family:KomikaAxis, Komika Axis;}.cls-30{font-size:4.1px;}.cls-31{fill:#794494;}.cls-32{fill:#894f9a;}.cls-33{fill:#c7c5c3;}.cls-34{fill:#b3b0aa;}.cls-35{fill:#cf68a5;}.cls-36{fill:#b9589d;}.cls-37{fill:#535564;}.cls-38{fill:#434053;}.cls-39{fill:#bf3718;}.cls-40{fill:#d24416;}.cls-41{fill:#eb5b29;}.cls-42{fill:#f4c423;}.cls-43{fill:#f09a26;}.cls-44{fill:#f08b2f;}.cls-45{fill:#f4b32e;}.cls-46{fill:#82cff3;}.cls-47{fill:#6ac8ea;}.cls-48{fill:#bcbbb8;}.cls-49{fill:#e98b1c;}.cls-50{fill:#f39f2f;}.cls-51{stroke:#e98b1c;stroke-linecap:round;stroke-linejoin:round;stroke-width:0.71px;}.cls-52{fill:#dd7a11;}.cls-53{fill:#c21058;}.cls-54{fill:#e8aacb;}.cls-55{fill:url(#Naamloos_verloop_5);}.cls-56{fill:#f9f4f2;}.cls-57,.cls-59,.cls-62,.cls-63,.cls-67,.cls-68,.cls-69{mix-blend-mode:multiply;}.cls-57{fill:url(#Degradado_sin_nombre_47);}.cls-58{fill:#95d5f5;}.cls-60{fill:url(#Degradado_sin_nombre_45);}.cls-61,.cls-63{fill:#f8e8d7;}.cls-62{fill:url(#Degradado_sin_nombre_46);}.cls-64{fill:#6d81ba;}.cls-65{fill:#98aad3;}.cls-66{fill:#f9cbd0;}.cls-67{fill:url(#Degradado_sin_nombre_25);}.cls-68{fill:url(#Degradado_sin_nombre_25-2);}.cls-69{fill:url(#Degradado_sin_nombre_25-3);}.cls-70{font-size:10px;}.cls-70,.cls-74{fill:#21418f;}.cls-70,.cls-73,.cls-74{font-family:Arnold21, "Arnold 2.1";}.cls-71{stroke:#afca11;}.cls-72{fill:#afca11;}.cls-73,.cls-74{font-size:20px;}</style><clipPath id="clip-path" transform="translate(-5.04 -4.94)"><rect class="cls-1" x="82.76" y="158.85" width="395.83" height="88.82"/></clipPath><linearGradient id="Naamloos_verloop_5" x1="419.44" y1="221.99" x2="419.44" y2="219.79" gradientTransform="translate(263.31 -247.94) rotate(45.97)" gradientUnits="userSpaceOnUse"><stop offset="0" stop-color="#e8aacb" stop-opacity="0"/><stop offset="1" stop-color="#e8aacb"/></linearGradient><linearGradient id="Degradado_sin_nombre_47" x1="412.74" y1="217.43" x2="412.74" y2="205.91" gradientTransform="translate(-9.72 -10.79)" gradientUnits="userSpaceOnUse"><stop offset="0" stop-color="#6d81ba" stop-opacity="0.95"/><stop offset="0.16" stop-color="#6d81ba" stop-opacity="0.93"/><stop offset="0.31" stop-color="#6d81ba" stop-opacity="0.87"/><stop offset="0.46" stop-color="#6d81ba" stop-opacity="0.76"/><stop offset="0.6" stop-color="#6d81ba" stop-opacity="0.61"/><stop offset="0.75" stop-color="#6d81ba" stop-opacity="0.43"/><stop offset="0.89" stop-color="#6d81ba" stop-opacity="0.2"/><stop offset="1" stop-color="#6d81ba" stop-opacity="0"/></linearGradient><linearGradient id="Degradado_sin_nombre_45" x1="414.08" y1="191.9" x2="424.03" y2="218.07" gradientTransform="translate(263.31 -247.94) rotate(45.97)" gradientUnits="userSpaceOnUse"><stop offset="0" stop-color="#6d81ba" stop-opacity="0.95"/><stop offset="0.21" stop-color="#6d81ba" stop-opacity="0.7"/><stop offset="0.47" stop-color="#6d81ba" stop-opacity="0.4"/><stop offset="0.71" stop-color="#6d81ba" stop-opacity="0.18"/><stop offset="0.89" stop-color="#6d81ba" stop-opacity="0.05"/><stop offset="1" stop-color="#6d81ba" stop-opacity="0"/></linearGradient><linearGradient id="Degradado_sin_nombre_46" x1="422.48" y1="212.81" x2="431.51" y2="212.81" gradientTransform="translate(-14.89 -0.9)" gradientUnits="userSpaceOnUse"><stop offset="0" stop-color="#6d81ba" stop-opacity="0"/><stop offset="0.11" stop-color="#6d81ba" stop-opacity="0.05"/><stop offset="0.29" stop-color="#6d81ba" stop-opacity="0.18"/><stop offset="0.53" stop-color="#6d81ba" stop-opacity="0.4"/><stop offset="0.79" stop-color="#6d81ba" stop-opacity="0.7"/><stop offset="1" stop-color="#6d81ba" stop-opacity="0.95"/></linearGradient><linearGradient id="Degradado_sin_nombre_25" x1="426.85" y1="221.58" x2="426.85" y2="220.4" gradientTransform="translate(-20.73 -3.49)" gradientUnits="userSpaceOnUse"><stop offset="0" stop-color="#f190a4"/><stop offset="0.64" stop-color="#f190a4" stop-opacity="0.56"/><stop offset="1" stop-color="#f190a4" stop-opacity="0.3"/></linearGradient><linearGradient id="Degradado_sin_nombre_25-2" x1="426.9" y1="222.94" x2="426.9" y2="221.76" gradientTransform="translate(-21.72 -3.87)" xlink:href="#Degradado_sin_nombre_25"/><linearGradient id="Degradado_sin_nombre_25-3" x1="426.87" y1="224.3" x2="426.87" y2="223.13" gradientTransform="translate(-22.69 -4.31)" xlink:href="#Degradado_sin_nombre_25"/></defs><g class="cls-2"><g id="Laag_3" data-name="Laag 3"><rect class="cls-3" x="0.5" y="0.5" width="537.7" height="258.06" rx="43.39"/><rect class="cls-4" x="16.73" y="15.21" width="504.19" height="228.73" rx="35.19"/><path class="cls-5" d="M490.77,21.66a33.78,33.78,0,0,1,33.68,33.68V213.7a33.78,33.78,0,0,1-33.68,33.69H57A33.79,33.79,0,0,1,23.27,213.7V55.34A33.78,33.78,0,0,1,57,21.66H490.77m0-3H57A36.72,36.72,0,0,0,20.27,55.34V213.7A36.72,36.72,0,0,0,57,250.39H490.77a36.72,36.72,0,0,0,36.68-36.69V55.34a36.72,36.72,0,0,0-36.68-36.68Z" transform="translate(-5.04 -4.94)"/><path class="cls-6" d="M133.61,41.11a1.68,1.68,0,1,1-1.66-2A1.83,1.83,0,0,1,133.61,41.11Z" transform="translate(-5.04 -4.94)"/><path class="cls-6" d="M65.83,72.5a1.68,1.68,0,1,1-1.66-2A1.83,1.83,0,0,1,65.83,72.5Z" transform="translate(-5.04 -4.94)"/><path class="cls-6" d="M56.39,84.14a1.69,1.69,0,1,1-1.67-2A1.84,1.84,0,0,1,56.39,84.14Z" transform="translate(-5.04 -4.94)"/><path class="cls-6" d="M27.54,128.42a1.84,1.84,0,0,1-1.67,2,2,2,0,0,1,0-3.93A1.84,1.84,0,0,1,27.54,128.42Z" transform="translate(-5.04 -4.94)"/><path class="cls-6" d="M34.48,182.19a1.83,1.83,0,0,1-1.66,2,2,2,0,0,1,0-3.94A1.83,1.83,0,0,1,34.48,182.19Z" transform="translate(-5.04 -4.94)"/><path class="cls-6" d="M54.72,174.15a1.69,1.69,0,1,1-1.66-2A1.83,1.83,0,0,1,54.72,174.15Z" transform="translate(-5.04 -4.94)"/><path class="cls-6" d="M102.2,223.71a1.69,1.69,0,1,1-1.66-2A1.83,1.83,0,0,1,102.2,223.71Z" transform="translate(-5.04 -4.94)"/><path class="cls-6" d="M44.16,223.89a1.68,1.68,0,1,1-1.66-2A1.83,1.83,0,0,1,44.16,223.89Z" transform="translate(-5.04 -4.94)"/><path class="cls-6" d="M190.24,60a1.69,1.69,0,1,1-1.67-2A1.84,1.84,0,0,1,190.24,60Z" transform="translate(-5.04 -4.94)"/><path class="cls-6" d="M114.64,118a1.69,1.69,0,1,1-1.66-2A1.83,1.83,0,0,1,114.64,118Z" transform="translate(-5.04 -4.94)"/><path class="cls-6" d="M126.32,126.46a1.69,1.69,0,1,1-1.67-2A1.84,1.84,0,0,1,126.32,126.46Z" transform="translate(-5.04 -4.94)"/><path class="cls-6" d="M152.59,84.14a1.69,1.69,0,1,1-1.67-2A1.84,1.84,0,0,1,152.59,84.14Z" transform="translate(-5.04 -4.94)"/><path class="cls-6" d="M123,178.08a1.69,1.69,0,1,1-1.67-2A1.84,1.84,0,0,1,123,178.08Z" transform="translate(-5.04 -4.94)"/><path class="cls-6" d="M193.57,186.3a1.69,1.69,0,1,1-1.67-2A1.84,1.84,0,0,1,193.57,186.3Z" transform="translate(-5.04 -4.94)"/><path class="cls-6" d="M205.06,176.12a1.69,1.69,0,1,1-1.66-2A1.83,1.83,0,0,1,205.06,176.12Z" transform="translate(-5.04 -4.94)"/><path class="cls-6" d="M330.1,178.08a1.69,1.69,0,1,1-1.66-2A1.84,1.84,0,0,1,330.1,178.08Z" transform="translate(-5.04 -4.94)"/><path class="cls-6" d="M142.69,221.75a1.69,1.69,0,1,1-1.67-2A1.84,1.84,0,0,1,142.69,221.75Z" transform="translate(-5.04 -4.94)"/><path class="cls-6" d="M164.61,225.85a1.69,1.69,0,1,1-1.66-2A1.84,1.84,0,0,1,164.61,225.85Z" transform="translate(-5.04 -4.94)"/><path class="cls-6" d="M388.66,223.89a1.69,1.69,0,1,1-1.66-2A1.83,1.83,0,0,1,388.66,223.89Z" transform="translate(-5.04 -4.94)"/><path class="cls-6" d="M397,182.19a1.69,1.69,0,1,1-1.67-2A1.84,1.84,0,0,1,397,182.19Z" transform="translate(-5.04 -4.94)"/><path class="cls-6" d="M411.55,174.15a1.69,1.69,0,1,1-1.67-2A1.84,1.84,0,0,1,411.55,174.15Z" transform="translate(-5.04 -4.94)"/><path class="cls-6" d="M206.73,126.85a1.69,1.69,0,1,1-1.67-2A1.84,1.84,0,0,1,206.73,126.85Z" transform="translate(-5.04 -4.94)"/><path class="cls-6" d="M349.83,33.54a1.69,1.69,0,1,1-1.66-2A1.84,1.84,0,0,1,349.83,33.54Z" transform="translate(-5.04 -4.94)"/><path class="cls-6" d="M292.1,39.14a1.69,1.69,0,1,1-1.67-2A1.84,1.84,0,0,1,292.1,39.14Z" transform="translate(-5.04 -4.94)"/><path class="cls-6" d="M275.78,29.61a1.69,1.69,0,1,1-1.67-2A1.84,1.84,0,0,1,275.78,29.61Z" transform="translate(-5.04 -4.94)"/><path class="cls-6" d="M381.85,53.16a1.69,1.69,0,1,1-1.67-2A1.84,1.84,0,0,1,381.85,53.16Z" transform="translate(-5.04 -4.94)"/><path class="cls-6" d="M373.38,62a1.68,1.68,0,1,1-1.66-2A1.83,1.83,0,0,1,373.38,62Z" transform="translate(-5.04 -4.94)"/><path class="cls-6" d="M427.49,93.73a1.69,1.69,0,1,1-1.66-2A1.83,1.83,0,0,1,427.49,93.73Z" transform="translate(-5.04 -4.94)"/><path class="cls-6" d="M467.3,29.61a1.68,1.68,0,1,1-1.66-2A1.83,1.83,0,0,1,467.3,29.61Z" transform="translate(-5.04 -4.94)"/><path class="cls-6" d="M483.07,44.09a1.69,1.69,0,1,1-1.67-2A1.84,1.84,0,0,1,483.07,44.09Z" transform="translate(-5.04 -4.94)"/><path class="cls-6" d="M467.3,105.29a1.68,1.68,0,1,1-1.66-2A1.83,1.83,0,0,1,467.3,105.29Z" transform="translate(-5.04 -4.94)"/><path class="cls-6" d="M511,119.94a1.68,1.68,0,1,1-1.66-2A1.83,1.83,0,0,1,511,119.94Z" transform="translate(-5.04 -4.94)"/><path class="cls-6" d="M477.14,178.08a1.69,1.69,0,1,1-1.66-2A1.83,1.83,0,0,1,477.14,178.08Z" transform="translate(-5.04 -4.94)"/><path class="cls-6" d="M446.5,224.61a1.69,1.69,0,1,1-1.67-2A1.84,1.84,0,0,1,446.5,224.61Z" transform="translate(-5.04 -4.94)"/><path class="cls-6" d="M458.68,227.6a1.69,1.69,0,1,1-1.66-2A1.83,1.83,0,0,1,458.68,227.6Z" transform="translate(-5.04 -4.94)"/><path class="cls-6" d="M517.42,223.89a1.69,1.69,0,1,1-1.67-2A1.84,1.84,0,0,1,517.42,223.89Z" transform="translate(-5.04 -4.94)"/><path class="cls-6" d="M523.26,182.19a1.69,1.69,0,1,1-1.67-2A1.84,1.84,0,0,1,523.26,182.19Z" transform="translate(-5.04 -4.94)"/><path class="cls-6" d="M393.67,107.26a1.69,1.69,0,1,1-1.67-2A1.84,1.84,0,0,1,393.67,107.26Z" transform="translate(-5.04 -4.94)"/><path class="cls-6" d="M341,108a1.68,1.68,0,1,1-1.66-2A1.83,1.83,0,0,1,341,108Z" transform="translate(-5.04 -4.94)"/><path class="cls-6" d="M434.63,123.26a1.69,1.69,0,1,1-1.66-2A1.83,1.83,0,0,1,434.63,123.26Z" transform="translate(-5.04 -4.94)"/><path class="cls-6" d="M383.55,130.82s4.33-9.74-2.93-12c-4.8-1.5-6.53,1.84-7.16,4.29,1.74-15.15-11.55-14.31-15.94-11.38-4.12,2.74-2.84,13-2.52,15.14a5.4,5.4,0,0,0-4.43-4.1c-5.25-1.23-3.6,8.43-3.6,8.43-8.75-.16-13.53,2.21-13.53,2.21,22.08-1.6,60.7,0,60.7,0A24.13,24.13,0,0,0,383.55,130.82Z" transform="translate(-5.04 -4.94)"/><path class="cls-6" d="M232.38,96s4.32-9.74-2.94-12c-4.79-1.5-6.53,1.84-7.15,4.29C224,73.12,210.74,74,206.34,76.89c-4.12,2.74-2.83,13-2.51,15.14a5.4,5.4,0,0,0-4.43-4.1c-5.26-1.23-3.61,8.43-3.61,8.43-8.75-.16-13.53,2.21-13.53,2.21,22.08-1.6,60.7,0,60.7,0A24.08,24.08,0,0,0,232.38,96Z" transform="translate(-5.04 -4.94)"/><path class="cls-6" d="M156,229.46s4.33-9.73-2.93-12c-4.8-1.49-6.53,1.85-7.16,4.29,1.74-15.15-11.55-14.31-15.94-11.38-4.12,2.75-2.84,13-2.52,15.14a5.41,5.41,0,0,0-4.43-4.09c-5.25-1.23-3.6,8.42-3.6,8.42-8.75-.15-13.53,2.21-13.53,2.21,22.08-1.59,60.7-.05,60.7-.05A24.31,24.31,0,0,0,156,229.46Z" transform="translate(-5.04 -4.94)"/><path class="cls-6" d="M441.52,228.8s4.33-9.74-2.93-12c-4.79-1.5-6.53,1.84-7.16,4.29,1.74-15.15-11.55-14.32-15.94-11.39-4.12,2.75-2.83,13-2.52,15.15a5.39,5.39,0,0,0-4.43-4.1c-5.25-1.23-3.6,8.43-3.6,8.43-8.75-.16-13.53,2.2-13.53,2.2,22.08-1.59,60.7,0,60.7,0A24.2,24.2,0,0,0,441.52,228.8Z" transform="translate(-5.04 -4.94)"/><path class="cls-6" d="M453.29,84.28s4.33-9.74-2.93-12c-4.8-1.5-6.53,1.85-7.16,4.29,1.74-15.15-11.55-14.31-15.94-11.38-4.12,2.74-2.84,13-2.52,15.14a5.41,5.41,0,0,0-4.43-4.1c-5.25-1.22-3.6,8.43-3.6,8.43-8.75-.15-13.53,2.21-13.53,2.21,22.08-1.6,60.7-.05,60.7-.05A24.13,24.13,0,0,0,453.29,84.28Z" transform="translate(-5.04 -4.94)"/><path class="cls-6" d="M164.86,163.24c16.58-1.2,45.59,0,45.59,0a18.18,18.18,0,0,0-7.95-1.91s3.25-7.31-2.21-9c-3.6-1.12-4.9,1.39-5.37,3.22,1.3-11.37-8.67-10.75-12-8.54-3.1,2.06-2.12,9.79-1.88,11.38a4.07,4.07,0,0,0-3.33-3.09c-3.95-.92-2.71,6.33-2.71,6.33C168.45,161.46,164.86,163.24,164.86,163.24Z" transform="translate(-5.04 -4.94)"/><path class="cls-6" d="M94.62,134.86c16.58-1.19,45.58,0,45.58,0a18.18,18.18,0,0,0-7.95-1.91s3.25-7.31-2.2-9c-3.6-1.12-4.91,1.39-5.38,3.22,1.31-11.38-8.67-10.75-12-8.55-3.1,2.07-2.12,9.8-1.89,11.39a4,4,0,0,0-3.33-3.09c-3.94-.92-2.7,6.33-2.7,6.33C98.21,133.09,94.62,134.86,94.62,134.86Z" transform="translate(-5.04 -4.94)"/><path class="cls-6" d="M326.86,183.46c16.58-1.2,45.59,0,45.59,0a18.21,18.21,0,0,0-8-1.91s3.26-7.31-2.2-9c-3.6-1.13-4.9,1.38-5.37,3.22,1.3-11.38-8.68-10.75-12-8.55-3.1,2.07-2.12,9.8-1.88,11.38a4.06,4.06,0,0,0-3.33-3.08c-4-.92-2.71,6.33-2.71,6.33C330.45,181.69,326.86,183.46,326.86,183.46Z" transform="translate(-5.04 -4.94)"/><path class="cls-6" d="M295.42,73.81c16.58-1.2,45.59,0,45.59,0a18.08,18.08,0,0,0-7.95-1.9s3.25-7.32-2.2-9c-3.6-1.12-4.91,1.39-5.38,3.23,1.3-11.38-8.67-10.75-12-8.55-3.1,2.06-2.13,9.79-1.89,11.38a4.07,4.07,0,0,0-3.33-3.09c-3.94-.92-2.71,6.33-2.71,6.33C299,72,295.42,73.81,295.42,73.81Z" transform="translate(-5.04 -4.94)"/><path class="cls-6" d="M228.1,131.37c16.58-1.2,45.58,0,45.58,0a18.18,18.18,0,0,0-7.95-1.91s3.25-7.31-2.2-9c-3.6-1.13-4.9,1.38-5.38,3.22,1.31-11.38-8.67-10.75-12-8.55-3.1,2.07-2.12,9.8-1.89,11.38a4,4,0,0,0-3.33-3.08c-3.94-.93-2.7,6.32-2.7,6.32C231.69,129.6,228.1,131.37,228.1,131.37Z" transform="translate(-5.04 -4.94)"/><path class="cls-6" d="M210.9,44.58a20.1,20.1,0,0,0-8.8-2.11s3.6-8.09-2.44-10c-4-1.24-5.42,1.54-5.95,3.57,1.45-12.59-9.59-11.9-13.25-9.46-3.42,2.28-2.35,10.8-2.09,12.58a4.48,4.48,0,0,0-3.68-3.4c-4.36-1-3,7-3,7-7.28-.13-11.25,1.84-11.25,1.84C178.8,43.29,210.9,44.58,210.9,44.58Z" transform="translate(-5.04 -4.94)"/><path class="cls-7" d="M355,129.86A16.12,16.12,0,1,0,338.83,146,16.12,16.12,0,0,0,355,129.86Z" transform="translate(-5.04 -4.94)"/><g class="cls-8"><path class="cls-7" d="M338.83,149.55c-.49,0-1,0-1.45-.05a.54.54,0,0,1,.07-1.08c.6,0,1.21.06,1.8.05h0a.54.54,0,0,1,.55.52.55.55,0,0,1-.53.56Zm3.5-.32a.54.54,0,0,1-.1-1.07c.59-.11,1.18-.25,1.75-.41a.54.54,0,0,1,.3,1c-.61.17-1.23.32-1.85.43Zm-8-.2h-.12q-.93-.22-1.83-.54a.54.54,0,1,1,.35-1,17.9,17.9,0,0,0,1.73.5.54.54,0,0,1-.13,1.07ZM347,147.72a.54.54,0,0,1-.23-1c.54-.26,1.07-.54,1.59-.85a.54.54,0,0,1,.55.93,17.9,17.9,0,0,1-1.67.9A.69.69,0,0,1,347,147.72Zm-17.24-.44a.57.57,0,0,1-.25-.06,16.84,16.84,0,0,1-1.63-1,.53.53,0,0,1-.15-.75.54.54,0,0,1,.75-.14c.5.33,1,.64,1.54.92a.55.55,0,0,1,.22.74A.54.54,0,0,1,329.77,147.28Zm21.38-2.22a.56.56,0,0,1-.41-.19.55.55,0,0,1,.07-.77,16.74,16.74,0,0,0,1.31-1.22.54.54,0,0,1,.78.76,18.92,18.92,0,0,1-1.4,1.29A.51.51,0,0,1,351.15,145.06Zm-25.38-.65a.54.54,0,0,1-.36-.14,18.94,18.94,0,0,1-1.33-1.36.55.55,0,0,1,0-.77.54.54,0,0,1,.77.05c.39.45.82.88,1.25,1.29a.54.54,0,0,1,0,.76A.56.56,0,0,1,325.77,144.41Zm28.71-3a.59.59,0,0,1-.31-.09.55.55,0,0,1-.13-.76c.35-.49.67-1,1-1.52a.54.54,0,0,1,.73-.2.55.55,0,0,1,.21.74c-.32.55-.66,1.09-1,1.61A.55.55,0,0,1,354.48,141.43Zm-31.85-.81a.53.53,0,0,1-.45-.25,18,18,0,0,1-.94-1.65.54.54,0,0,1,.24-.73.53.53,0,0,1,.72.24c.27.53.57,1.06.89,1.56a.55.55,0,0,1-.17.75A.51.51,0,0,1,322.63,140.62Zm34.15-3.54a.63.63,0,0,1-.19,0,.55.55,0,0,1-.32-.7c.21-.55.39-1.13.55-1.71a.54.54,0,0,1,1,.28c-.16.61-.35,1.22-.57,1.81A.54.54,0,0,1,356.78,137.08Zm-36.22-.92a.56.56,0,0,1-.52-.38c-.18-.6-.35-1.22-.48-1.84a.54.54,0,0,1,.42-.64.54.54,0,0,1,.64.42,16.93,16.93,0,0,0,.46,1.73.54.54,0,0,1-.36.68A.45.45,0,0,1,320.56,136.16Zm37.33-3.87h-.06a.54.54,0,0,1-.48-.59q.07-.9.09-1.8v0a17.73,17.73,0,0,0-.09-1.79.54.54,0,0,1,1.08-.11c.06.63.09,1.27.09,1.9v0c0,.64,0,1.27-.1,1.9A.53.53,0,0,1,357.89,132.29Zm-38.19-1a.55.55,0,0,1-.54-.51c0-.31,0-.62,0-.94s0-.64,0-1a.56.56,0,0,1,.57-.52.54.54,0,0,1,.51.57c0,.3,0,.61,0,.91s0,.59,0,.89a.53.53,0,0,1-.51.56Zm.4-4.9H320a.56.56,0,0,1-.42-.65,17.88,17.88,0,0,1,.49-1.84.54.54,0,0,1,.67-.35.54.54,0,0,1,.36.68,17.84,17.84,0,0,0-.46,1.74A.55.55,0,0,1,320.1,126.41Zm37.25-.89a.53.53,0,0,1-.52-.4q-.24-.87-.54-1.71a.54.54,0,1,1,1-.38c.22.59.41,1.21.57,1.82a.53.53,0,0,1-.38.66Zm-35.61-3.75a.54.54,0,0,1-.25-.06.56.56,0,0,1-.24-.73c.29-.56.61-1.12.94-1.65a.54.54,0,1,1,.92.58c-.32.5-.62,1-.89,1.56A.55.55,0,0,1,321.74,121.77Zm33.75-.8a.53.53,0,0,1-.47-.28c-.29-.52-.62-1-1-1.52a.54.54,0,0,1,.13-.75.55.55,0,0,1,.76.13c.36.52.7,1.06,1,1.61a.54.54,0,0,1-.2.74A.64.64,0,0,1,355.49,121Zm-31-3.27a.54.54,0,0,1-.36-.14.53.53,0,0,1,0-.76c.42-.47.87-.93,1.33-1.36a.54.54,0,0,1,.74.79q-.66.61-1.26,1.29A.55.55,0,0,1,324.51,117.7Zm28-.67a.51.51,0,0,1-.38-.16q-.63-.65-1.32-1.23a.54.54,0,1,1,.7-.82c.48.41,1,.84,1.39,1.29a.54.54,0,0,1-.39.92Zm-24.31-2.56a.53.53,0,0,1-.45-.25.54.54,0,0,1,.15-.75,16.67,16.67,0,0,1,1.63-1,.53.53,0,0,1,.73.22.54.54,0,0,1-.22.73,16.92,16.92,0,0,0-1.54.92A.51.51,0,0,1,328.22,114.47Zm20.45-.49a.53.53,0,0,1-.27-.08c-.52-.31-1-.59-1.59-.85a.54.54,0,1,1,.47-1c.57.27,1.13.57,1.67.89a.55.55,0,0,1,.19.75A.54.54,0,0,1,348.67,114Zm-16-1.7a.53.53,0,0,1-.51-.36.54.54,0,0,1,.33-.69c.6-.2,1.22-.38,1.83-.53a.54.54,0,0,1,.25,1.06,17.84,17.84,0,0,0-1.73.49A.47.47,0,0,1,332.63,112.28Zm11.53-.27-.15,0a17.61,17.61,0,0,0-1.74-.42.54.54,0,1,1,.19-1.06,18.47,18.47,0,0,1,1.85.44.53.53,0,0,1,.37.67A.53.53,0,0,1,344.16,112Zm-6.71-.7a.54.54,0,0,1,0-1.08c.63,0,1.27-.06,1.9,0a.55.55,0,0,1,.53.56.54.54,0,0,1-.55.52c-.6,0-1.2,0-1.8,0Z" transform="translate(-5.04 -4.94)"/></g><g class="cls-9"><path class="cls-7" d="M338.83,153.7h-.49a.54.54,0,0,1-.53-.55.54.54,0,0,1,.55-.53c.61,0,1.22,0,1.82,0a.54.54,0,0,1,.06,1.08C339.78,153.69,339.3,153.7,338.83,153.7Zm-3.57-.27h-.08c-.63-.09-1.26-.21-1.87-.36a.54.54,0,1,1,.24-1.05c.59.14,1.19.25,1.79.34a.54.54,0,0,1-.08,1.08Zm8-.15a.55.55,0,0,1-.1-1.08c.59-.11,1.19-.25,1.77-.41a.54.54,0,0,1,.67.37.54.54,0,0,1-.38.67c-.61.17-1.23.32-1.86.44Zm-12.82-1.12a.71.71,0,0,1-.2,0c-.59-.23-1.18-.48-1.75-.75a.55.55,0,0,1-.25-.73.54.54,0,0,1,.72-.25c.55.26,1.11.5,1.67.72a.54.54,0,0,1,.31.7A.55.55,0,0,1,330.47,152.16Zm17.56-.35a.54.54,0,0,1-.21-1c.55-.24,1.11-.51,1.64-.79a.54.54,0,0,1,.73.22.55.55,0,0,1-.22.74c-.56.29-1.14.57-1.72.82A.57.57,0,0,1,348,151.81Zm-22-1.92a.53.53,0,0,1-.3-.09c-.53-.34-1.05-.72-1.55-1.11a.54.54,0,0,1-.1-.76.55.55,0,0,1,.76-.09c.48.37,1,.73,1.48,1.06a.55.55,0,0,1,.16.75A.53.53,0,0,1,326.06,149.89Zm26.3-.51a.56.56,0,0,1-.45-.23.54.54,0,0,1,.13-.75c.49-.36,1-.73,1.44-1.12a.55.55,0,0,1,.76.06.56.56,0,0,1-.06.77c-.49.4-1,.8-1.51,1.17A.63.63,0,0,1,352.36,149.38Zm-30.14-2.64a.51.51,0,0,1-.38-.16,18.93,18.93,0,0,1-1.28-1.41.53.53,0,0,1,.06-.76.54.54,0,0,1,.76.07c.39.46.8.91,1.23,1.34a.54.54,0,0,1-.39.92Zm33.84-.66a.5.5,0,0,1-.36-.14.54.54,0,0,1,0-.76c.41-.45.8-.92,1.17-1.4a.55.55,0,0,1,.86.67c-.39.5-.8,1-1.23,1.46A.54.54,0,0,1,356.06,146.08Zm-36.92-3.22a.54.54,0,0,1-.46-.25q-.51-.81-1-1.65a.55.55,0,0,1,.23-.73.54.54,0,0,1,.73.22c.28.54.59,1.07.91,1.58a.55.55,0,0,1-.16.75A.6.6,0,0,1,319.14,142.86Zm39.85-.78a.54.54,0,0,1-.27-.07.54.54,0,0,1-.19-.74c.3-.52.58-1.07.84-1.61a.55.55,0,0,1,.73-.25.53.53,0,0,1,.25.72c-.27.57-.57,1.13-.89,1.68A.53.53,0,0,1,359,142.08Zm-42.05-3.67a.56.56,0,0,1-.51-.36c-.21-.59-.41-1.2-.58-1.81a.54.54,0,1,1,1-.29c.16.58.34,1.17.55,1.73a.55.55,0,0,1-.32.7A.63.63,0,0,1,316.94,138.41Zm44.07-.86-.17,0a.54.54,0,0,1-.34-.69c.18-.57.34-1.16.48-1.75a.54.54,0,0,1,.65-.4.55.55,0,0,1,.41.65c-.15.62-.32,1.23-.51,1.84A.55.55,0,0,1,361,137.55Zm-45.26-4a.55.55,0,0,1-.54-.47c-.08-.63-.15-1.26-.18-1.9a.54.54,0,0,1,.51-.57.55.55,0,0,1,.57.51c0,.61.09,1.22.17,1.81a.53.53,0,0,1-.46.61Zm46.27-.9H362a.54.54,0,0,1-.48-.59c.06-.6.09-1.21.1-1.81a.54.54,0,0,1,.05-.22.46.46,0,0,1,0-.21c0-.6,0-1.21-.08-1.81a.55.55,0,0,1,.5-.59.54.54,0,0,1,.58.5c.05.63.08,1.27.08,1.9a.51.51,0,0,1-.05.22.43.43,0,0,1,0,.22c0,.64,0,1.28-.11,1.91A.53.53,0,0,1,362,132.7Zm-46.42-4.06h0a.54.54,0,0,1-.5-.58c.05-.64.12-1.27.22-1.9a.54.54,0,0,1,.61-.45.56.56,0,0,1,.46.62c-.1.6-.17,1.2-.21,1.81A.54.54,0,0,1,315.6,128.64Zm46-3.17a.54.54,0,0,1-.53-.42c-.12-.59-.28-1.19-.45-1.77a.54.54,0,0,1,.36-.67.55.55,0,0,1,.68.36c.18.61.34,1.23.47,1.85a.53.53,0,0,1-.41.64Zm-45.11-1.71-.15,0a.55.55,0,0,1-.37-.67c.18-.61.39-1.22.62-1.81a.55.55,0,0,1,.7-.31.54.54,0,0,1,.31.7c-.22.57-.42,1.15-.59,1.72A.53.53,0,0,1,316.49,123.76Zm43.55-3a.53.53,0,0,1-.49-.31c-.25-.55-.52-1.1-.82-1.63a.54.54,0,0,1,.95-.52c.31.55.59,1.12.86,1.7a.54.54,0,0,1-.27.71A.46.46,0,0,1,360,120.76Zm-41.64-1.57a.54.54,0,0,1-.47-.8c.31-.56.64-1.11,1-1.64a.55.55,0,0,1,.75-.15.55.55,0,0,1,.15.75c-.33.5-.65,1-.94,1.56A.54.54,0,0,1,318.4,119.19Zm39.12-2.7a.5.5,0,0,1-.43-.22c-.37-.48-.75-1-1.15-1.41a.54.54,0,0,1,.81-.71c.42.47.82,1,1.2,1.48a.54.54,0,0,1-.11.76A.55.55,0,0,1,357.52,116.49Zm-36.28-1.37a.53.53,0,0,1-.4-.89c.41-.48.85-1,1.3-1.39a.54.54,0,1,1,.76.77c-.43.42-.85.87-1.25,1.33A.54.54,0,0,1,321.24,115.12Zm32.91-2.27a.55.55,0,0,1-.36-.13c-.45-.4-.93-.78-1.41-1.14a.55.55,0,0,1-.12-.76.54.54,0,0,1,.76-.11c.51.37,1,.78,1.49,1.19a.56.56,0,0,1,.05.77A.55.55,0,0,1,354.15,112.85Zm-29.27-1.1a.56.56,0,0,1-.44-.22.54.54,0,0,1,.11-.76c.51-.38,1-.74,1.57-1.08a.54.54,0,1,1,.58.92c-.51.32-1,.66-1.5,1A.56.56,0,0,1,324.88,111.75ZM350.09,110a.59.59,0,0,1-.26-.07c-.53-.29-1.08-.57-1.63-.82a.54.54,0,1,1,.45-1c.58.26,1.15.54,1.7.85a.54.54,0,0,1,.21.74A.56.56,0,0,1,350.09,110Zm-20.95-.8a.54.54,0,0,1-.49-.32.54.54,0,0,1,.27-.71c.57-.27,1.17-.51,1.76-.73a.56.56,0,0,1,.7.33.54.54,0,0,1-.33.69q-.85.32-1.68.69A.64.64,0,0,1,329.14,109.21Zm16.38-1.13-.16,0c-.57-.17-1.17-.33-1.76-.45a.53.53,0,0,1-.41-.64.54.54,0,0,1,.64-.42c.62.13,1.24.29,1.84.47a.55.55,0,0,1,.37.68A.55.55,0,0,1,345.52,108.08Zm-11.67-.44a.54.54,0,0,1-.53-.43.54.54,0,0,1,.42-.64c.61-.13,1.25-.25,1.87-.33a.54.54,0,0,1,.15,1.07c-.6.08-1.2.19-1.79.32Zm6.79-.46h0c-.58-.05-1.18-.07-1.77-.07h-.05a.54.54,0,1,1,0-1.08h.05c.62,0,1.24,0,1.85.07a.53.53,0,0,1,.5.58A.54.54,0,0,1,340.64,107.18Z" transform="translate(-5.04 -4.94)"/></g><g class="cls-10"><path class="cls-7" d="M339.3,157.87a.54.54,0,0,1,0-1.08c.61,0,1.23,0,1.84-.1a.55.55,0,0,1,.58.5.54.54,0,0,1-.49.58c-.63.06-1.28.09-1.91.1Zm-3.12-.12h-.05c-.63-.06-1.27-.14-1.89-.24a.54.54,0,1,1,.17-1.07c.6.1,1.21.18,1.82.24a.53.53,0,0,1,.49.59A.54.54,0,0,1,336.18,157.75Zm8.08-.41a.55.55,0,0,1-.11-1.08c.6-.12,1.2-.26,1.79-.42a.54.54,0,0,1,.67.38.56.56,0,0,1-.38.67c-.62.16-1.24.31-1.86.44Zm-13-.52-.15,0c-.61-.17-1.22-.37-1.82-.59a.54.54,0,0,1,.37-1c.57.2,1.16.39,1.75.56a.54.54,0,0,1-.15,1.06Zm17.76-.91a.55.55,0,0,1-.5-.34.54.54,0,0,1,.3-.7c.57-.23,1.13-.48,1.68-.74a.54.54,0,1,1,.48,1c-.58.28-1.17.54-1.76.77A.45.45,0,0,1,349,155.91ZM326.62,155a.53.53,0,0,1-.24-.06c-.56-.28-1.13-.58-1.68-.91a.54.54,0,1,1,.55-.93q.79.47,1.62.87a.54.54,0,0,1-.25,1Zm26.87-1.38a.56.56,0,0,1-.46-.25.55.55,0,0,1,.17-.75c.52-.33,1-.68,1.52-1a.54.54,0,1,1,.64.88c-.51.37-1.05.73-1.58,1.07A.52.52,0,0,1,353.49,153.64Zm-31.11-1.24a.51.51,0,0,1-.33-.11c-.5-.38-1-.78-1.49-1.19a.54.54,0,0,1-.05-.76.53.53,0,0,1,.76-.06c.46.4.94.78,1.43,1.15a.54.54,0,0,1-.32,1Zm35.07-1.8a.54.54,0,0,1-.37-.94c.45-.41.89-.85,1.31-1.29a.53.53,0,0,1,.76,0,.54.54,0,0,1,0,.76c-.44.46-.9.91-1.36,1.34A.55.55,0,0,1,357.45,150.6Zm-38.78-1.54a.58.58,0,0,1-.4-.17c-.43-.47-.85-.95-1.25-1.45a.54.54,0,0,1,.85-.68c.38.48.78,1,1.2,1.39a.55.55,0,0,1,0,.77A.59.59,0,0,1,318.67,149.06Zm42.13-2.16a.57.57,0,0,1-.33-.11.54.54,0,0,1-.11-.76c.37-.49.73-1,1.06-1.5a.54.54,0,0,1,.75-.16.53.53,0,0,1,.15.75c-.34.53-.71,1-1.09,1.56A.55.55,0,0,1,360.8,146.9Zm-45.18-1.79a.54.54,0,0,1-.45-.25c-.34-.54-.67-1.09-1-1.65a.54.54,0,0,1,.95-.52q.44.81.93,1.59a.53.53,0,0,1-.17.74A.52.52,0,0,1,315.62,145.11Zm47.8-2.45a.53.53,0,0,1-.24-.06.54.54,0,0,1-.24-.73c.27-.54.52-1.1.76-1.67a.54.54,0,0,1,1,.42c-.25.58-.51,1.17-.79,1.74A.55.55,0,0,1,363.42,142.66Zm-50.08-2a.55.55,0,0,1-.5-.34c-.24-.59-.46-1.2-.65-1.8a.53.53,0,0,1,.34-.68.55.55,0,0,1,.69.35c.19.58.4,1.16.63,1.72a.55.55,0,0,1-.3.71A.52.52,0,0,1,313.34,140.67ZM365.23,138l-.15,0a.55.55,0,0,1-.37-.67c.17-.59.32-1.19.45-1.78a.54.54,0,0,1,.64-.42.54.54,0,0,1,.42.64c-.14.62-.29,1.25-.47,1.86A.55.55,0,0,1,365.23,138Zm-53.32-2.13a.53.53,0,0,1-.53-.43c-.13-.62-.23-1.25-.32-1.88a.55.55,0,0,1,1.08-.15c.08.61.18,1.22.3,1.82a.53.53,0,0,1-.42.63Zm54.26-2.77h-.06a.54.54,0,0,1-.48-.59c.06-.6.1-1.22.11-1.83a.62.62,0,0,1,.2-.41.53.53,0,0,1-.18-.41c0-.61,0-1.23-.07-1.83a.54.54,0,1,1,1.08-.07c.05.63.07,1.27.07,1.9a.53.53,0,0,1-.2.42.57.57,0,0,1,.19.43c0,.64-.06,1.28-.13,1.91A.53.53,0,0,1,366.17,133.11Zm-54.8-2.19a.53.53,0,0,1-.54-.53c0-.17,0-.35,0-.53,0-.45,0-.92,0-1.38a.56.56,0,0,1,.57-.51.53.53,0,0,1,.51.57q0,.66,0,1.32c0,.17,0,.34,0,.51a.54.54,0,0,1-.53.55Zm.35-5h-.09a.54.54,0,0,1-.44-.62c.1-.63.23-1.26.37-1.88a.54.54,0,1,1,1.05.25c-.14.59-.26,1.2-.35,1.8A.55.55,0,0,1,311.72,126Zm54.13-.51a.54.54,0,0,1-.53-.45c-.11-.6-.24-1.2-.4-1.79a.55.55,0,0,1,.4-.66.54.54,0,0,1,.65.39c.16.62.3,1.24.41,1.87a.55.55,0,0,1-.43.63ZM313,121.12a.39.39,0,0,1-.18,0,.54.54,0,0,1-.33-.69c.22-.59.45-1.19.71-1.77a.54.54,0,0,1,.71-.28.53.53,0,0,1,.28.71c-.24.56-.47,1.14-.68,1.71A.55.55,0,0,1,313,121.12Zm51.54-.49a.54.54,0,0,1-.51-.35c-.22-.57-.46-1.14-.71-1.69a.53.53,0,0,1,.26-.72.54.54,0,0,1,.72.26c.27.58.52,1.17.74,1.76a.54.54,0,0,1-.31.7A.46.46,0,0,1,364.51,120.63Zm-49.43-4a.53.53,0,0,1-.27-.08.54.54,0,0,1-.2-.74c.32-.54.66-1.09,1-1.61a.54.54,0,0,1,.9.6c-.35.51-.68,1-1,1.56A.55.55,0,0,1,315.08,116.6Zm47.23-.46a.53.53,0,0,1-.46-.26c-.32-.52-.66-1-1-1.53a.54.54,0,1,1,.88-.63c.37.52.72,1.06,1,1.6a.53.53,0,0,1-.18.74A.48.48,0,0,1,362.31,116.14ZM318,112.53a.53.53,0,0,1-.35-.13.54.54,0,0,1-.06-.76c.41-.48.85-1,1.29-1.41a.55.55,0,0,1,.77,0,.54.54,0,0,1,0,.76c-.42.44-.84.89-1.24,1.35A.52.52,0,0,1,318,112.53Zm41.37-.4a.55.55,0,0,1-.41-.18c-.4-.45-.83-.9-1.26-1.33a.54.54,0,1,1,.75-.77c.46.44.9.91,1.32,1.38a.53.53,0,0,1-.4.9Zm-37.79-3.08a.54.54,0,0,1-.34-1c.49-.4,1-.79,1.52-1.15a.55.55,0,0,1,.76.13.54.54,0,0,1-.13.75c-.5.36-1,.73-1.47,1.11A.54.54,0,0,1,321.55,109.05Zm34.14-.33a.52.52,0,0,1-.33-.11c-.48-.38-1-.74-1.48-1.08a.54.54,0,0,1-.15-.75.55.55,0,0,1,.75-.15c.53.36,1,.74,1.55,1.13a.54.54,0,0,1,.09.75A.54.54,0,0,1,355.69,108.72Zm-30-2.44a.56.56,0,0,1-.48-.29.54.54,0,0,1,.22-.73c.56-.31,1.13-.59,1.71-.86a.54.54,0,0,1,.71.27.53.53,0,0,1-.26.71c-.56.26-1.11.54-1.64.83A.68.68,0,0,1,325.7,106.28Zm25.8-.25a.54.54,0,0,1-.25-.06c-.54-.29-1.1-.55-1.66-.8a.54.54,0,0,1-.28-.71.55.55,0,0,1,.72-.28c.58.26,1.16.53,1.72.83a.54.54,0,0,1,.23.73A.56.56,0,0,1,351.5,106Zm-21.22-1.74a.52.52,0,0,1-.51-.37.53.53,0,0,1,.34-.68c.6-.2,1.22-.38,1.84-.53a.53.53,0,0,1,.65.39.54.54,0,0,1-.39.66c-.59.15-1.18.32-1.76.51A.5.5,0,0,1,330.28,104.29Zm16.6-.15-.16,0c-.58-.18-1.18-.34-1.77-.47a.54.54,0,0,1-.4-.65.53.53,0,0,1,.64-.41c.62.15,1.24.31,1.85.5a.53.53,0,0,1,.36.67A.54.54,0,0,1,346.88,104.14Zm-11.74-1a.53.53,0,0,1-.53-.47.54.54,0,0,1,.46-.6c.63-.09,1.27-.15,1.9-.19a.53.53,0,0,1,.58.5.55.55,0,0,1-.51.58c-.61,0-1.22.1-1.82.18Zm6.86-.06h-.07c-.6-.06-1.22-.11-1.83-.14a.55.55,0,0,1-.51-.57.53.53,0,0,1,.57-.51c.63,0,1.27.08,1.9.15a.53.53,0,0,1,.47.6A.54.54,0,0,1,342,103.12Z" transform="translate(-5.04 -4.94)"/></g><polygon class="cls-5" points="339.73 178.39 317.5 170.38 336.51 117.59 363.09 113.55 339.73 178.39"/><rect class="cls-11" x="333.56" y="128.25" width="17.48" height="52.54" transform="translate(67.61 -111.83) rotate(19.82)"/><polygon class="cls-12" points="339.36 125.89 353.28 130.91 354.39 127.82 337.94 121.89 320.13 171.33 322.66 172.24 339.36 125.89"/><polygon class="cls-13" points="345.47 180.46 339.73 178.39 363.09 113.55 364.49 127.67 345.47 180.46"/><rect class="cls-12" x="319.7" y="155.93" width="51.04" height="0.89" transform="translate(76.01 423.17) rotate(-70.18)"/><rect class="cls-12" x="314.37" y="154" width="51.04" height="0.9" transform="translate(74.45 417.03) rotate(-70.21)"/><rect class="cls-5" x="358.82" y="139.66" width="23.35" height="55.44" transform="translate(124.09 -164.71) rotate(29.27)"/><rect class="cls-11" x="360.76" y="142.83" width="17.27" height="51.92" transform="translate(124.64 -163.99) rotate(29.27)"/><polygon class="cls-12" points="370.25 141.1 383 148.25 384.58 145.42 369.52 136.97 344.14 182.26 346.45 183.56 370.25 141.1"/><rect class="cls-13" x="380.29" y="146.84" width="6.03" height="55.44" transform="translate(129.2 -170.03) rotate(29.26)"/><rect class="cls-5" x="378.73" y="138.26" width="15.48" height="5.87" transform="translate(113.33 -175.87) rotate(29.27)"/><rect class="cls-13" x="392.97" y="142.99" width="3.87" height="5.87" transform="translate(116.73 -179.39) rotate(29.27)"/><rect class="cls-12" x="346.73" y="170.62" width="50.43" height="0.89" transform="translate(36.02 407.2) rotate(-60.78)"/><rect class="cls-12" x="341.84" y="167.89" width="50.43" height="0.88" transform="translate(35.68 401.21) rotate(-60.72)"/><path class="cls-14" d="M160,218s-2.51-38.81,2.35-41.42,42.51,11.74,42.51,11.74Z" transform="translate(-5.04 -4.94)"/><path class="cls-15" d="M162.33,176.64l18.34,27.72,24.21-16S167.24,174,162.37,176.61Z" transform="translate(-5.04 -4.94)"/><path class="cls-16" d="M166.39,186l6.89,3.36-2.54-8.41,5.06,1.32-1.15-4c-5.89-1.59-10.73-2.46-12.28-1.64-1.7.92-2.5,6.27-2.82,12.84l2-3.18,2.26,4.35Z" transform="translate(-5.04 -4.94)"/><path class="cls-17" d="M174.65,178.25c-5.89-1.59-10.73-2.47-12.28-1.64l0,0,7.18,10.85,3.77,1.83-2.54-8.41,5.06,1.33Z" transform="translate(-5.04 -4.94)"/><path class="cls-14" d="M186.27,196.2S195.51,142,203.06,140,257.72,170,257.72,170Z" transform="translate(-5.04 -4.94)"/><path class="cls-15" d="M203,140l16.17,44.16L257.72,170S210.61,138,203.06,140Z" transform="translate(-5.04 -4.94)"/><path class="cls-16" d="M205.53,154.16l8.38,6.88-.74-12.41,6.53,3.48-.27-5.87c-7.59-4.11-14-6.9-16.37-6.27-2.64.7-5.49,7.8-8.08,16.74l3.75-3.73,1.68,6.72Z" transform="translate(-5.04 -4.94)"/><path class="cls-17" d="M219.43,146.24c-7.59-4.11-14-6.91-16.37-6.27l-.06,0,6.33,17.29,4.58,3.75-.74-12.4,6.53,3.47Z" transform="translate(-5.04 -4.94)"/><path class="cls-18" d="M306.1,158.43l-2.14,11c0,.2.93.56,2.16.8s2.26.27,2.3.07l2.14-11Z" transform="translate(-5.04 -4.94)"/><path class="cls-19" d="M304.73,165.49a22.71,22.71,0,0,0,2.48-.31c.68.35,1.37.67,2,.95l1.33-6.84-4.46-.86Z" transform="translate(-5.04 -4.94)"/><path class="cls-20" d="M295.54,160.1s9-10.14,14.19-9.14c2.5.49,11.35,12.93,10.35,13.35s-3.3-.73-3.3-.73,1.91,2,1,2.42c-.45.21-4.8-1.16-5.56-2,0,0,1.58,1.63.9,2.05s-3.25-.47-5.73-1.72a17.84,17.84,0,0,1-5,.25c-2-.34.05-1.8.05-1.8s-3.39,1-5.17.09c-1.09-.54,1.52-1.7,1.52-1.7S294.46,161.69,295.54,160.1Z" transform="translate(-5.04 -4.94)"/><path class="cls-21" d="M309.73,151c-2.9-.57-7,2.42-10.11,5.12l.24,0-.48.24c-.46.41-.88.81-1.28,1.18a.43.43,0,0,0,.26.28c1.75.86,5.1-.1,5.1-.1s-2,1.46-.06,1.8a17.46,17.46,0,0,0,5-.27c2.43,1.25,4.89,2.18,5.64,1.71s-.89-2.05-.89-2.05c.69.73,4.38,1.94,5.3,2C315.92,157,311.4,151.29,309.73,151Z" transform="translate(-5.04 -4.94)"/><path class="cls-20" d="M298.29,154.12s8.2-10.32,12.69-9.44c2.19.43,9.67,12.6,8.78,13s-2.88-.64-2.88-.64,1.63,1.91.79,2.38c-.39.22-4.19-1-4.84-1.82,0,0,1.35,1.59.75,2s-2.85-.39-5-1.58a14.14,14.14,0,0,1-4.44.37c-1.73-.29.09-1.79.09-1.79s-3,1-4.55.21c-.94-.51,1.37-1.72,1.37-1.72S297.31,155.72,298.29,154.12Z" transform="translate(-5.04 -4.94)"/><path class="cls-21" d="M311,144.68c-2.56-.5-6.32,2.63-9.08,5.42a3.37,3.37,0,0,0,.35,0,8.87,8.87,0,0,0-.79.5l-.76.8a.34.34,0,0,0,.2.43c1.5.81,4.44-.23,4.44-.23s-1.78,1.51-.09,1.79a13.34,13.34,0,0,0,4.33-.38c2.09,1.17,4.2,2,4.87,1.55s-.72-2-.72-2c.61.75,4.09,1.94,4.67,1.82C316.29,150.54,312.45,145,311,144.68Z" transform="translate(-5.04 -4.94)"/><path class="cls-20" d="M300.69,148.17s7.53-10.44,11.52-9.67c2.66.52,8.35,12.35,7.55,12.81s-2.55-.59-2.55-.59,1.41,1.87.65,2.36c-.36.23-3.71-1-4.28-1.71,0,0,1.17,1.55.62,2s-2.53-.33-4.41-1.47a11.58,11.58,0,0,1-4,.46c-1.54-.25.11-1.79.11-1.79s-2.7,1.09-4.06.31c-.83-.49,1.26-1.75,1.26-1.75S299.78,149.78,300.69,148.17Z" transform="translate(-5.04 -4.94)"/><path class="cls-22" d="M315.36,141.7c-1.15-1.73-2.31-3-3.15-3.2-2.08-.4-5.12,2.24-7.55,4.86A40.62,40.62,0,0,0,315.36,141.7Z" transform="translate(-5.04 -4.94)"/><path class="cls-18" d="M233.42,163.07,236,174c0,.2,1.08.13,2.3-.16s2.17-.68,2.13-.88L237.84,162Z" transform="translate(-5.04 -4.94)"/><path class="cls-19" d="M235.07,170.08a24,24,0,0,0,2.13-1.31c.77,0,1.53,0,2.24,0l-1.6-6.77-4.42,1Z" transform="translate(-5.04 -4.94)"/><path class="cls-20" d="M224.48,168.94s4.08-13,9.18-14.17c2.48-.58,15.66,7.13,14.92,7.92s-3.3.69-3.3.69,2.54,1,1.87,1.81c-.32.37-4.86.91-5.88.5,0,0,2.11.83,1.67,1.5s-3.16.91-5.93.78a18.13,18.13,0,0,1-4.49,2.3c-1.94.5-.69-1.66-.69-1.66s-2.71,2.26-4.68,2.2c-1.22,0,.68-2.17.68-2.17S224.14,170.82,224.48,168.94Z" transform="translate(-5.04 -4.94)"/><path class="cls-21" d="M233.66,154.77c-2.87.68-5.43,5.1-7.11,8.82l.21-.11s-.15.17-.34.41c-.25.56-.48,1.1-.68,1.6a.41.41,0,0,0,.35.15c1.94.07,4.6-2.19,4.6-2.19s-1.22,2.16.69,1.67a17.3,17.3,0,0,0,4.42-2.29c2.73.14,5.35,0,5.84-.76s-1.64-1.5-1.64-1.5c.92.38,4.78,0,5.63-.39C241.77,157.7,235.32,154.38,233.66,154.77Z" transform="translate(-5.04 -4.94)"/><path class="cls-20" d="M224.53,162.35s3.24-12.77,7.69-13.82c2.17-.51,14,7.52,13.36,8.29s-2.88.59-2.88.59,2.27,1.07,1.69,1.85c-.27.36-4.25.77-5.16.33,0,0,1.88.89,1.51,1.54s-2.75.81-5.19.61a14,14,0,0,1-3.9,2.15c-1.69.45-.65-1.67-.65-1.67s-2.32,2.18-4.06,2.06c-1.07-.07.54-2.13.54-2.13S224.29,164.21,224.53,162.35Z" transform="translate(-5.04 -4.94)"/><path class="cls-21" d="M232.22,148.53c-2.53.6-4.68,5-6.05,8.67l.3-.18a7.5,7.5,0,0,0-.52.78c-.13.36-.25.7-.36,1a.34.34,0,0,0,.36.32c1.7.12,4-2,4-2s-1,2.11.66,1.67a13.45,13.45,0,0,0,3.79-2.13c2.38.22,4.67.14,5.07-.58s-1.48-1.54-1.48-1.54c.86.43,4.53.08,5-.27C239.47,151.69,233.68,148.19,232.22,148.53Z" transform="translate(-5.04 -4.94)"/><path class="cls-20" d="M224.27,155.94s2.58-12.61,6.53-13.55c2.64-.62,12.69,7.83,12.15,8.58s-2.57.51-2.57.51,2.06,1.13,1.56,1.89c-.23.35-3.77.65-4.6.19,0,0,1.71.94,1.39,1.57s-2.44.74-4.63.47a11.5,11.5,0,0,1-3.42,2.05c-1.51.4-.63-1.68-.63-1.68s-2,2.11-3.58,1.95c-1-.1.43-2.11.43-2.11S224.1,157.78,224.27,155.94Z" transform="translate(-5.04 -4.94)"/><path class="cls-22" d="M235,144c-1.76-1.09-3.35-1.81-4.19-1.62-2.06.49-3.74,4.15-4.89,7.54A40.53,40.53,0,0,0,235,144Z" transform="translate(-5.04 -4.94)"/><path class="cls-18" d="M162.9,199.36l6.74,9c.13.17,1-.31,2-1.06s1.72-1.5,1.59-1.67l-6.74-9Z" transform="translate(-5.04 -4.94)"/><path class="cls-19" d="M167.23,205.12a23.49,23.49,0,0,0,1.43-2.05c.71-.28,1.41-.57,2.06-.87l-4.19-5.57-3.63,2.73Z" transform="translate(-5.04 -4.94)"/><path class="cls-20" d="M157.07,208.33s-1.47-13.52,2.72-16.66c2-1.53,17.2.24,16.84,1.26s-2.74,2-2.74,2,2.73-.1,2.43.91c-.13.46-4.07,2.78-5.18,2.81,0,0,2.27-.08,2.13.7s-2.53,2.1-5.11,3.1a18.06,18.06,0,0,1-3.19,3.91c-1.58,1.24-1.31-1.25-1.31-1.25s-1.56,3.17-3.4,3.9c-1.12.45-.24-2.26-.24-2.26S157.52,210.19,157.07,208.33Z" transform="translate(-5.04 -4.94)"/><path class="cls-21" d="M159.79,191.67c-2.36,1.77-2.93,6.84-3,10.93a2.06,2.06,0,0,0,.14-.19s-.07.22-.14.52c0,.61,0,1.19,0,1.74a.42.42,0,0,0,.38,0c1.81-.72,3.34-3.85,3.34-3.85s-.26,2.47,1.3,1.25a17.61,17.61,0,0,0,3.13-3.87c2.55-1,4.89-2.16,5-3s-2.11-.72-2.11-.72c1,0,4.37-1.94,5-2.61C168.39,191.1,161.15,190.64,159.79,191.67Z" transform="translate(-5.04 -4.94)"/><path class="cls-20" d="M154.47,202.27s-2.16-13,1.5-15.74c1.78-1.33,15.83,1.27,15.56,2.22s-2.41,1.71-2.41,1.71,2.51.07,2.3,1c-.1.44-3.58,2.41-4.59,2.37,0,0,2.08.06,2,.8s-2.2,1.86-4.52,2.65a14,14,0,0,1-2.7,3.54c-1.37,1.09-1.27-1.27-1.27-1.27s-1.25,2.92-2.89,3.52c-1,.36-.36-2.17-.36-2.17S155,204.08,154.47,202.27Z" transform="translate(-5.04 -4.94)"/><path class="cls-21" d="M156,186.53c-2.09,1.56-2.28,6.45-2.07,10.37a3.13,3.13,0,0,0,.2-.29s-.1.44-.16.93.06.74.09,1.09a.33.33,0,0,0,.45.14c1.61-.57,2.81-3.45,2.81-3.45s-.07,2.33,1.27,1.27a13.39,13.39,0,0,0,2.61-3.48c2.28-.76,4.34-1.74,4.42-2.57s-2-.82-2-.82c1,.05,4.18-1.73,4.48-2.25C163.87,186.51,157.16,185.63,156,186.53Z" transform="translate(-5.04 -4.94)"/><path class="cls-20" d="M151.66,196.5s-2.71-12.58.54-15c2.17-1.63,14.76,2.07,14.57,3s-2.15,1.51-2.15,1.51,2.34.2,2.19,1.09c-.07.42-3.19,2.12-4.13,2,0,0,1.93.17,1.9.88s-1.94,1.66-4.05,2.29a11.49,11.49,0,0,1-2.32,3.25c-1.21,1-1.25-1.28-1.25-1.28s-1,2.74-2.49,3.22c-.92.29-.45-2.11-.45-2.11S152.25,198.26,151.66,196.5Z" transform="translate(-5.04 -4.94)"/><path class="cls-22" d="M156.69,181.28c-2.06-.3-3.8-.32-4.49.2-1.69,1.27-1.77,5.3-1.45,8.86A40.7,40.7,0,0,0,156.69,181.28Z" transform="translate(-5.04 -4.94)"/><path class="cls-18" d="M131.27,234.78l9.61,5.79c.17.11.84-.68,1.49-1.75s1-2,.85-2.14l-9.61-5.79Z" transform="translate(-5.04 -4.94)"/><path class="cls-19" d="M137.43,238.5a21.43,21.43,0,0,0,.56-2.44c.56-.52,1.1-1.06,1.58-1.58l-6-3.59-2.34,3.89Z" transform="translate(-5.04 -4.94)"/><path class="cls-20" d="M129.22,245.29s-6.43-12-3.72-16.48c1.31-2.17,16-6.22,16.08-5.14s-1.81,2.85-1.81,2.85,2.5-1.12,2.6-.08c0,.49-2.74,4.11-3.75,4.55,0,0,2.08-.92,2.24-.14s-1.55,2.89-3.58,4.79a18.08,18.08,0,0,1-1.49,4.82c-1,1.74-1.68-.67-1.68-.67s-.27,3.52-1.69,4.89c-.87.84-1.07-2-1.07-2S130.33,246.84,129.22,245.29Z" transform="translate(-5.04 -4.94)"/><path class="cls-21" d="M125.5,228.81c-1.53,2.53-.15,7.45,1.34,11.26,0-.14.06-.23.06-.23s0,.23.06.53c.23.57.46,1.11.67,1.6a.4.4,0,0,0,.35-.14c1.41-1.35,1.66-4.83,1.66-4.83s.69,2.39,1.67.67a17.29,17.29,0,0,0,1.45-4.75c2-1.86,3.73-3.85,3.54-4.72s-2.23.13-2.23.13c.92-.39,3.32-3.44,3.66-4.3C133.26,225.06,126.37,227.36,125.5,228.81Z" transform="translate(-5.04 -4.94)"/><path class="cls-20" d="M124.54,240.64s-6.88-11.23-4.51-15.15c1.15-1.91,15.15-4.76,15.26-3.78s-1.59,2.49-1.59,2.49,2.35-.88,2.5.07c.08.45-2.41,3.58-3.37,3.92,0,0,2-.72,2.16,0s-1.34,2.54-3.19,4.14a14.11,14.11,0,0,1-1.18,4.3c-.87,1.52-1.65-.7-1.65-.7s-.07,3.18-1.37,4.34c-.8.72-1.14-1.88-1.14-1.88S125.7,242.12,124.54,240.64Z" transform="translate(-5.04 -4.94)"/><path class="cls-21" d="M120,225.49c-1.35,2.23.3,6.83,2,10.38,0-.2.08-.34.08-.34a6.79,6.79,0,0,0,.2.92c.16.34.33.67.48,1a.34.34,0,0,0,.48,0c1.28-1.13,1.31-4.25,1.31-4.25s.8,2.19,1.65.7a13.62,13.62,0,0,0,1.12-4.2c1.82-1.56,3.36-3.24,3.13-4s-2.14,0-2.14,0c.91-.31,3.22-3.17,3.3-3.76C127.35,222.51,120.8,224.21,120,225.49Z" transform="translate(-5.04 -4.94)"/><path class="cls-20" d="M119.77,236.35s-7.22-10.65-5.13-14.13c1.4-2.33,14.46-3.61,14.62-2.71s-1.42,2.2-1.42,2.2,2.24-.68,2.44.2c.09.41-2.17,3.16-3.08,3.43,0,0,1.86-.57,2.09.1s-1.17,2.26-2.89,3.64a11.36,11.36,0,0,1-.93,3.88c-.76,1.36-1.64-.72-1.64-.72s.1,2.92-1.1,3.92c-.74.62-1.21-1.78-1.21-1.78S121,237.76,119.77,236.35Z" transform="translate(-5.04 -4.94)"/><path class="cls-22" d="M118.73,220.35c-2,.49-3.64,1.13-4.09,1.87-1.09,1.81.35,5.57,2,8.76A40.62,40.62,0,0,0,118.73,220.35Z" transform="translate(-5.04 -4.94)"/><path class="cls-18" d="M385.52,190.56l-6.35,9.25c-.11.18.63.89,1.66,1.6s2,1.14,2.09,1l6.34-9.25Z" transform="translate(-5.04 -4.94)"/><path class="cls-19" d="M381.45,196.5a22.32,22.32,0,0,0,2.39.7c.49.59,1,1.16,1.49,1.67l3.93-5.74-3.74-2.57Z" transform="translate(-5.04 -4.94)"/><path class="cls-20" d="M375.15,187.9s12.34-5.71,16.66-2.75c2.1,1.44,5.27,16.37,4.19,16.36s-2.73-2-2.73-2,1,2.56-.08,2.6c-.49,0-3.94-3-4.33-4,0,0,.81,2.12,0,2.24s-2.8-1.72-4.57-3.85a17.9,17.9,0,0,1-4.73-1.78c-1.67-1.1.77-1.63.77-1.63s-3.5-.48-4.78-2c-.79-.92,2.06-.95,2.06-.95S373.53,188.92,375.15,187.9Z" transform="translate(-5.04 -4.94)"/><path class="cls-21" d="M391.81,185.15c-2.43-1.67-7.42-.58-11.31.69l.22.07s-.22,0-.53,0c-.58.19-1.13.38-1.64.57a.43.43,0,0,0,.13.36c1.25,1.48,4.71,1.93,4.71,1.93s-2.42.55-.76,1.63a17.31,17.31,0,0,0,4.66,1.73c1.74,2.11,3.62,4,4.5,3.81s0-2.23,0-2.23c.34.94,3.24,3.52,4.08,3.91C395.1,193.12,393.21,186.11,391.81,185.15Z" transform="translate(-5.04 -4.94)"/><path class="cls-20" d="M380.06,183.5s11.62-6.21,15.4-3.61c1.83,1.25,3.85,15.4,2.86,15.45s-2.38-1.73-2.38-1.73.74,2.4-.22,2.5c-.45,0-3.43-2.63-3.72-3.6,0,0,.61,2-.12,2.16s-2.46-1.49-3.95-3.44a14.16,14.16,0,0,1-4.22-1.42c-1.47-1,.79-1.61.79-1.61s-3.16-.25-4.25-1.62c-.67-.84,1.94-1,1.94-1S378.52,184.58,380.06,183.5Z" transform="translate(-5.04 -4.94)"/><path class="cls-21" d="M395.46,179.89c-2.15-1.48-6.85-.1-10.49,1.36l.33.09a7.48,7.48,0,0,0-.92.15l-1,.43a.32.32,0,0,0,0,.47c1.05,1.35,4.17,1.56,4.17,1.56s-2.24.68-.8,1.61a13.46,13.46,0,0,0,4.13,1.36c1.45,1.91,3,3.55,3.85,3.36s.14-2.13.14-2.13c.26.93,3,3.4,3.56,3.52C398,187.37,396.68,180.73,395.46,179.89Z" transform="translate(-5.04 -4.94)"/><path class="cls-20" d="M384.63,179s11.05-6.59,14.41-4.3c2.23,1.53,2.75,14.65,1.83,14.75s-2.1-1.55-2.1-1.55.55,2.28-.34,2.43c-.42.07-3-2.35-3.25-3.27,0,0,.46,1.89-.22,2.08s-2.19-1.31-3.47-3.1a11.4,11.4,0,0,1-3.82-1.16c-1.31-.84.82-1.59.82-1.59s-2.92-.08-3.85-1.34c-.57-.77,1.85-1.1,1.85-1.1S383.15,180.11,384.63,179Z" transform="translate(-5.04 -4.94)"/><path class="cls-22" d="M400.66,178.89c-.38-2-.91-3.7-1.62-4.19-1.75-1.2-5.59,0-8.87,1.46A40.25,40.25,0,0,0,400.66,178.89Z" transform="translate(-5.04 -4.94)"/><path class="cls-18" d="M429.23,232l-9,6.73c-.17.13.31,1,1.06,2.05s1.5,1.71,1.66,1.59l9-6.73Z" transform="translate(-5.04 -4.94)"/><path class="cls-19" d="M423.47,236.29a23.49,23.49,0,0,0,2,1.43c.28.72.57,1.42.87,2.06l5.57-4.17L429.23,232Z" transform="translate(-5.04 -4.94)"/><path class="cls-20" d="M420.27,226.13s13.52-1.45,16.66,2.74c1.53,2-.26,17.2-1.28,16.84S433.7,243,433.7,243s.09,2.74-.91,2.44c-.47-.14-2.78-4.08-2.81-5.19,0,0,.08,2.27-.71,2.13s-2.1-2.53-3.09-5.11a17.7,17.7,0,0,1-3.9-3.2c-1.24-1.58,1.24-1.3,1.24-1.3s-3.16-1.57-3.89-3.41c-.46-1.12,2.26-.24,2.26-.24S418.41,226.58,420.27,226.13Z" transform="translate(-5.04 -4.94)"/><path class="cls-21" d="M436.93,228.87c-1.77-2.37-6.84-2.93-10.93-3l.19.14s-.22-.07-.52-.14c-.61,0-1.19,0-1.74,0a.4.4,0,0,0,0,.37c.72,1.81,3.85,3.35,3.85,3.35s-2.47-.26-1.25,1.3a17.4,17.4,0,0,0,3.86,3.13c1,2.56,2.16,4.9,3,5.05s.72-2.12.72-2.12c0,1,1.94,4.38,2.61,5C437.49,237.47,438,230.23,436.93,228.87Z" transform="translate(-5.04 -4.94)"/><path class="cls-20" d="M426.33,223.54s13-2.15,15.74,1.51c1.33,1.78-1.28,15.83-2.24,15.56s-1.7-2.41-1.7-2.41-.07,2.51-1,2.3c-.44-.1-2.41-3.59-2.37-4.6,0,0-.06,2.08-.8,2s-1.86-2.2-2.65-4.52a14,14,0,0,1-3.53-2.7c-1.09-1.37,1.26-1.27,1.26-1.27s-2.92-1.25-3.51-2.89c-.36-1,2.17-.36,2.17-.36S424.53,224.06,426.33,223.54Z" transform="translate(-5.04 -4.94)"/><path class="cls-21" d="M442.07,225.05c-1.56-2.09-6.45-2.29-10.37-2.07l.29.2a7.5,7.5,0,0,0-.92-.16l-1.09.08a.33.33,0,0,0-.15.45c.57,1.61,3.45,2.81,3.45,2.81s-2.33-.07-1.27,1.27a13.54,13.54,0,0,0,3.47,2.62c.76,2.27,1.74,4.34,2.57,4.42s.82-2,.82-2c-.05,1,1.73,4.18,2.24,4.48C442.08,233,443,226.24,442.07,225.05Z" transform="translate(-5.04 -4.94)"/><path class="cls-20" d="M432.1,220.73s12.59-2.69,15,.56c1.62,2.17-2.09,14.76-3,14.56s-1.5-2.14-1.5-2.14-.21,2.33-1.1,2.18c-.42-.07-2.12-3.19-2-4.13,0,0-.17,1.93-.88,1.89s-1.65-1.94-2.29-4.05a11.38,11.38,0,0,1-3.24-2.31c-1-1.22,1.28-1.25,1.28-1.25s-2.74-1-3.21-2.5c-.3-.92,2.1-.45,2.1-.45S430.34,221.32,432.1,220.73Z" transform="translate(-5.04 -4.94)"/><path class="cls-22" d="M447.32,225.77c.3-2.05.32-3.79-.19-4.48-1.28-1.7-5.3-1.77-8.87-1.46A40.7,40.7,0,0,0,447.32,225.77Z" transform="translate(-5.04 -4.94)"/><path class="cls-23" d="M215.66,180.19a5.15,5.15,0,0,0-1.24-5c-2.17-2-4.95-.25-4.95-.25s-.48-3.26-4.32-2.88-3.86,5-3.86,5-1-1.8-2.5-1,.19,2.85,1,3.05c0,0-2.51-.92-2.89,1.06s2.43,1,2.43,1-2.57.7-2.61,2.6a1.82,1.82,0,0,0,1.61,2s-2.11.08-2.11,1.29,3.19.56,3.19.56Z" transform="translate(-5.04 -4.94)"/><path class="cls-24" d="M213.63,176.51c-1.57-1-4.94.28-4.94.28s0-2.21-1.72-2.87-4.52,1.45-4.61,3.58a3.8,3.8,0,0,0-2,.28c-.69.46.22,2.25.22,2.25a.93.93,0,0,0-1.44,0c-.8.78.78,1.43.78,1.43a3.2,3.2,0,0,0-1.79,2.07c-.22,1.38,1.62,2.4,1.62,2.4s-2.52.13-2.05,1.88h0c-.73,0-1.4-.18-1.4-.74,0-1.21,2.11-1.29,2.11-1.29a1.82,1.82,0,0,1-1.61-2c0-1.61,1.88-2.36,2.45-2.55-.59.17-2.58.64-2.27-1s2.25-1.26,2.77-1.1c-.87-.34-2.3-2.21-.92-3s2.5,1,2.5,1,0-4.59,3.86-5,4.32,2.88,4.32,2.88,2.78-1.8,4.95.25a5.15,5.15,0,0,1,1.24,5S215.19,177.52,213.63,176.51Z" transform="translate(-5.04 -4.94)"/><path class="cls-23" d="M229.32,175.14a5.3,5.3,0,0,0-.89-5.26c-2.08-2.29-5.09-.65-5.09-.65s-.23-3.39-4.22-3.29-4.36,4.84-4.36,4.84-.95-1.93-2.5-1.18,0,3,.84,3.22c0,0-2.53-1.13-3.06.88s2.43,1.2,2.43,1.2-2.7.53-2.9,2.48a1.88,1.88,0,0,0,1.51,2.21s-2.18-.08-2.27,1.17,3.24.82,3.24.82Z" transform="translate(-5.04 -4.94)"/><path class="cls-24" d="M227.51,171.19c-1.54-1.16-5.11-.09-5.11-.09s.19-2.27-1.55-3.08-4.77,1.15-5,3.33a3.85,3.85,0,0,0-2.12.14c-.74.42.06,2.33.06,2.33a1,1,0,0,0-1.49-.1c-.88.74.7,1.53.7,1.53a3.33,3.33,0,0,0-2,2c-.33,1.4,1.49,2.59,1.49,2.59s-2.61-.06-2.25,1.78h0c-.76-.07-1.44-.29-1.39-.86.09-1.25,2.27-1.17,2.27-1.17a1.88,1.88,0,0,1-1.51-2.21c.16-1.65,2.13-2.28,2.73-2.44-.63.14-2.72.47-2.26-1.24s2.42-1.12,2.93-.93c-.87-.41-2.19-2.44-.71-3.17s2.5,1.18,2.5,1.18.37-4.73,4.36-4.84,4.22,3.29,4.22,3.29,3-1.64,5.09.65a5.3,5.3,0,0,1,.89,5.26S229.05,172.35,227.51,171.19Z" transform="translate(-5.04 -4.94)"/><path class="cls-23" d="M157.89,220.45a5.93,5.93,0,0,0-3.68-4.7c-3.26-1.14-5.34,2.07-5.34,2.07s-2-3.21-5.91-1-1.71,7.07-1.71,7.07-2-1.39-3.09.18,1.56,2.92,2.54,2.72c0,0-3.08.23-2.54,2.48s3-.1,3-.1-2.38,1.95-1.54,4a2.13,2.13,0,0,0,2.67,1.38s-2.19,1.07-1.62,2.36,3.63-.92,3.63-.92Z" transform="translate(-5.04 -4.94)"/><path class="cls-24" d="M154,217.53c-2.13-.33-5.06,2.63-5.06,2.63s-1-2.34-3.17-2.21-4.08,3.67-3.17,6a4.37,4.37,0,0,0-2,1.26c-.5.81,1.3,2.27,1.3,2.27a1.08,1.08,0,0,0-1.52.69c-.47,1.2,1.5,1.14,1.5,1.14a3.69,3.69,0,0,0-.91,3c.42,1.56,2.85,1.76,2.85,1.76s-2.6,1.33-1.27,3h0c-.78.33-1.57.47-1.83-.11-.57-1.29,1.62-2.36,1.62-2.36a2.13,2.13,0,0,1-2.67-1.38c-.71-1.7.88-3.37,1.39-3.84-.54.46-2.42,1.9-2.88,0s1.78-2.38,2.39-2.46c-1.08.05-3.46-1.24-2.39-2.74s3.09-.18,3.09-.18-2.15-4.85,1.71-7.07,5.91,1,5.91,1,2.08-3.21,5.34-2.07a5.93,5.93,0,0,1,3.68,4.7S156.13,217.85,154,217.53Z" transform="translate(-5.04 -4.94)"/><path class="cls-23" d="M331.9,175.77a5.87,5.87,0,0,0,2.3-5.42c-.57-3.37-4.34-3.64-4.34-3.64s1.8-3.29-2-5.57S321,163,321,163s.27-2.37-1.63-2.59-1.78,2.74-1.14,3.5c0,0-1.67-2.56-3.37-1s1.54,2.56,1.54,2.56-2.82-1.12-4.16.58a2.08,2.08,0,0,0,.08,3s-2-1.38-2.81-.27,2.53,2.7,2.53,2.7Z" transform="translate(-5.04 -4.94)"/><path class="cls-24" d="M332.56,171c-.74-2-4.69-3.13-4.69-3.13s1.53-2,.4-3.79-5.13-1.78-6.67.1a4.22,4.22,0,0,0-2.05-1.13c-.94-.06-1.35,2.2-1.35,2.2a1.05,1.05,0,0,0-1.31-1c-1.26.16-.27,1.84-.27,1.84a3.64,3.64,0,0,0-3.05.66c-1.15,1.11-.16,3.3-.16,3.3s-2.39-1.61-3.16.31h0c-.66-.51-1.17-1.13-.78-1.63.83-1.11,2.81.27,2.81.27a2.08,2.08,0,0,1-.08-3c1.13-1.44,3.33-.86,4-.64-.66-.25-2.8-1.18-1.36-2.5s2.92.39,3.28.88c-.56-.9-.58-3.58,1.23-3.37S321,163,321,163s3.16-4.18,6.93-1.9,2,5.57,2,5.57,3.77.27,4.34,3.64a5.87,5.87,0,0,1-2.3,5.42S333.3,173,332.56,171Z" transform="translate(-5.04 -4.94)"/><path class="cls-23" d="M363.74,188.93s3.95-2,3.89-6.26-4.67-5.32-4.67-5.32,2.86-3.73-1.35-7.27-8.93,1-8.93,1,.79-2.87-1.52-3.51-2.72,3-2.08,4.1c0,0-1.57-3.48-4-1.9s1.41,3.47,1.41,3.47-3.28-1.93-5.26-.09a2.61,2.61,0,0,0-.46,3.67s-2.18-2.08-3.43-.88,2.61,3.83,2.61,3.83Z" transform="translate(-5.04 -4.94)"/><path class="cls-24" d="M365.48,183.18c-.53-2.61-5.2-4.76-5.2-4.76s2.28-2.18,1.22-4.61-6-3.18-8.25-1.16a5.29,5.29,0,0,0-2.32-1.8c-1.15-.24-2.08,2.46-2.08,2.46a1.33,1.33,0,0,0-1.44-1.46c-1.59,0-.68,2.22-.68,2.22s-2.27-.92-3.9.23-.83,4-.83,4-2.65-2.45-4-.22h0c-.71-.76-1.22-1.61-.65-2.17,1.25-1.2,3.43.88,3.43.88a2.61,2.61,0,0,1,.46-3.67c1.68-1.56,4.29-.42,5.05,0-.77-.43-3.23-2-1.2-3.35s3.53,1.05,3.88,1.73c-.52-1.23,0-4.54,2.16-3.93s1.52,3.51,1.52,3.51,4.71-4.55,8.93-1,1.35,7.27,1.35,7.27,4.61,1.05,4.67,5.32-3.89,6.26-3.89,6.26S366,185.79,365.48,183.18Z" transform="translate(-5.04 -4.94)"/><path class="cls-23" d="M376,199.22a6.13,6.13,0,0,0,4.12-4.55c.58-3.5-3-5-3-5s2.89-2.62,0-6.15-7.46-.51-7.46-.51,1.07-2.23-.72-3.09-2.69,2.08-2.31,3c0,0-.77-3.08-3-2.14s.63,3,.63,3-2.39-2.07-4.29-.86a2.17,2.17,0,0,0-.93,2.94s-1.47-2-2.67-1.23,1.57,3.52,1.57,3.52Z" transform="translate(-5.04 -4.94)"/><path class="cls-24" d="M378.29,194.77c0-2.21-3.55-4.67-3.55-4.67s2.19-1.45,1.69-3.6-4.43-3.49-6.58-2.17a4.48,4.48,0,0,0-1.64-1.82c-.9-.37-2.07,1.71-2.07,1.71a1.11,1.11,0,0,0-1-1.42c-1.29-.27-.89,1.72-.89,1.72a3.78,3.78,0,0,0-3.22-.39c-1.51.69-1.29,3.18-1.29,3.18s-1.8-2.39-3.21-.77h0c-.47-.73-.76-1.5-.21-1.87,1.2-.8,2.67,1.23,2.67,1.23A2.17,2.17,0,0,1,360,183c1.6-1,3.57.3,4.13.73-.56-.47-2.34-2.11-.47-2.92s2.73,1.39,2.91,2c-.24-1.08.65-3.72,2.36-2.89s.72,3.09.72,3.09,4.54-3,7.46.51,0,6.15,0,6.15,3.61,1.55,3,5a6.13,6.13,0,0,1-4.12,4.55S378.33,197,378.29,194.77Z" transform="translate(-5.04 -4.94)"/><path class="cls-23" d="M191.49,192.64s.45-4.14-3-6.27-6.58,1-6.58,1-1.48-4.15-6.42-2.64-3.77,7.55-3.77,7.55-1.86-2.08-3.54-.59,1,3.7,2.17,3.73c0,0-3.55-.54-3.52,2.15s3.45.67,3.45.67-3.19,1.6-2.75,4.1a2.45,2.45,0,0,0,2.66,2.24s-2.76.65-2.45,2.25,4.35-.1,4.35-.1Z" transform="translate(-5.04 -4.94)"/><path class="cls-24" d="M187.84,188.33c-2.32-.92-6.41,1.66-6.41,1.66s-.55-2.9-3-3.32-5.56,3.1-5.12,5.92a5.05,5.05,0,0,0-2.61.91c-.78.78.88,2.9.88,2.9a1.24,1.24,0,0,0-1.89.39c-.85,1.23,1.4,1.67,1.4,1.67a4.3,4.3,0,0,0-1.81,3.19c.07,1.87,2.76,2.72,2.76,2.72s-3.28.84-2.2,3h0c-1,.17-1.89.13-2-.6-.31-1.6,2.45-2.25,2.45-2.25a2.45,2.45,0,0,1-2.66-2.24c-.37-2.12,1.86-3.59,2.55-4-.73.38-3.22,1.52-3.25-.78s2.63-2.24,3.34-2.17c-1.23-.22-3.59-2.29-2-3.71s3.54.59,3.54.59-1.18-6,3.77-7.55,6.42,2.64,6.42,2.64,3.18-3.09,6.58-1,3,6.27,3,6.27S190.17,189.24,187.84,188.33Z" transform="translate(-5.04 -4.94)"/><g class="cls-25"><path class="cls-11" d="M453.35,339.76A172.67,172.67,0,1,1,280.68,167.08,172.67,172.67,0,0,1,453.35,339.76Z" transform="translate(-5.04 -4.94)"/><path class="cls-24" d="M453.21,333.09c0-1.18-.1-2.36-.17-3.53,0-.59-.07-1.18-.11-1.76-.08-1.17-.18-2.34-.28-3.5,0-.52-.09-1-.14-1.56-.16-1.62-.33-3.24-.53-4.85,0,0,0-.07,0-.11-.21-1.64-.44-3.28-.7-4.91-.08-.5-.17-1-.25-1.5-.19-1.15-.39-2.29-.6-3.43-.1-.56-.21-1.12-.32-1.67-.22-1.14-.46-2.26-.7-3.39-.11-.49-.21-1-.33-1.48q-.53-2.32-1.11-4.62l0-.13c-.41-1.59-.84-3.16-1.29-4.73-.13-.46-.27-.91-.41-1.37-.33-1.11-.67-2.23-1-3.33l-.51-1.55q-.54-1.65-1.11-3.27L443.1,281c-.54-1.48-1.09-3-1.67-4.42l0-.1q-.9-2.26-1.86-4.5c-.17-.4-.35-.81-.53-1.21-.47-1.08-.95-2.16-1.45-3.24-.21-.47-.43-.93-.65-1.4-.5-1.05-1-2.1-1.52-3.14-.21-.41-.41-.82-.61-1.23q-1.08-2.12-2.2-4.2l0,0c-.78-1.43-1.57-2.84-2.39-4.25l-.61-1c-.61-1.05-1.24-2.09-1.88-3.12l-.77-1.24c-.63-1-1.28-2-1.93-3-.23-.37-.47-.73-.71-1.08q-2.68-4-5.58-7.87l-.67-.87c-.75-1-1.52-2-2.3-2.94-.28-.37-.57-.72-.86-1.08-.76-.94-1.54-1.87-2.32-2.79l-.78-.93c-2.11-2.45-4.27-4.84-6.51-7.17l-.69-.71c-.89-.91-1.79-1.82-2.7-2.72l-.94-.92c-.88-.86-1.77-1.7-2.67-2.54l-.87-.8q-3.57-3.28-7.33-6.36c-.23-.2-.48-.39-.72-.59-1-.81-2-1.62-3.05-2.41l-1-.8c-1-.74-2-1.48-3-2.21l-1-.69q-1.92-1.39-3.89-2.73h0s1.69,35-7.46,36.82-28.25-2.06-34.12,17.77S320.12,262,310.11,273.84s-26.47,24.71-5.42,49.41,35.68,3.66,42.08,11.89-6.4,25.15,9.15,43.69,30,9.11,38.33,24.34,16.57,16.15,9.25,35.36c-4.74,12.44-9.18,23-10.45,32.32a175.69,175.69,0,0,0,13.18-12.56l0-.06c1-1.05,2-2.11,2.93-3.18l.35-.4c.86-1,1.72-1.94,2.56-2.93l.48-.58c.8-.93,1.58-1.88,2.36-2.84l.52-.66c.77-.95,1.52-1.91,2.26-2.87l.51-.66q1.13-1.49,2.22-3c.14-.2.29-.39.43-.58.78-1.09,1.55-2.18,2.3-3.29l.24-.35a169.65,169.65,0,0,0,9.38-15.41c.12-.24.24-.48.37-.71.56-1.06,1.12-2.13,1.66-3.21.18-.34.35-.69.52-1,.49-1,1-2,1.43-2.95.19-.4.38-.8.56-1.2.44-.95.87-1.89,1.29-2.84.2-.44.39-.87.57-1.3.41-.94.8-1.88,1.19-2.82.19-.45.37-.9.55-1.35.38-.95.75-1.9,1.12-2.86.17-.44.34-.88.5-1.33.37-1,.73-2,1.09-3l.42-1.2c.39-1.14.77-2.29,1.13-3.44l.27-.83c.9-2.89,1.74-5.81,2.49-8.75.09-.36.17-.73.26-1.08.27-1.1.54-2.2.79-3.3.12-.51.23-1,.34-1.54.21-1,.41-1.92.61-2.88l.33-1.74c.17-.91.34-1.82.5-2.73l.3-1.85q.22-1.33.42-2.67c.09-.63.18-1.27.26-1.9.12-.89.23-1.78.34-2.67.07-.64.15-1.28.22-1.92.09-.9.18-1.81.26-2.72.06-.63.12-1.26.17-1.89.08-.94.14-1.89.2-2.83,0-.61.08-1.2.11-1.81.06-1,.1-2.09.13-3.13,0-.52,0-1,.06-1.53,0-1.56.07-3.12.07-4.69s0-3.4-.08-5.09C453.25,334.14,453.22,333.61,453.21,333.09Z" transform="translate(-5.04 -4.94)"/><path class="cls-24" d="M108,339.76a171.85,171.85,0,0,0,24.5,88.69c-12.06-41.16-9.89-67.69,2-78.67s21.05,25.62,41.17,6.08S162,326.91,186.66,305s37.51,3.66,50.32-17.5-21-38.31-48.49-45.32c-14.86-3.8-22.48-16.8-26.34-27.93A172.21,172.21,0,0,0,108,339.76Z" transform="translate(-5.04 -4.94)"/><path class="cls-24" d="M222.34,349.78c7.32-27.45,22.88-34.75,41.18-16s25.61.33,41.17,24.18,19.21,30.25,0,39.4-44.83,7.32-38.43,31.11,8.23,51.23-18.3,28.36S190.32,428,202.22,394.39,222.34,349.78,222.34,349.78Z" transform="translate(-5.04 -4.94)"/><path class="cls-24" d="M280.68,167.08a172.3,172.3,0,0,0-56,9.31h0c10,13.32,15.48,27.92,34,24.26s17.38-.52,35.81,3.4,9.45-14.06,23.27-21.7A90.41,90.41,0,0,0,330,174.26,172.62,172.62,0,0,0,280.68,167.08Z" transform="translate(-5.04 -4.94)"/><path class="cls-24" d="M331.22,490.68c-9.15.91-13.72,8.23-21.11-5.49S291,469.64,280.68,496.45c-3,7.74-5.35,12.65-7.44,15.81,2.47.1,4.95.17,7.44.17A172.23,172.23,0,0,0,342.44,501C339.53,495.37,336.42,490.16,331.22,490.68Z" transform="translate(-5.04 -4.94)"/><ellipse class="cls-24" cx="295.65" cy="242.73" rx="9.76" ry="6.33"/><path class="cls-24" d="M327,445.88c-2.62,4.51-10.39,4.9-17.35.87s-10.49-11-7.87-15.49,10.38-4.91,17.35-.87S329.59,441.36,327,445.88Z" transform="translate(-5.04 -4.94)"/><circle class="cls-24" cx="212.04" cy="214.27" r="5.01"/><circle class="cls-24" cx="360.35" cy="428.55" r="5.01"/><circle class="cls-24" cx="164.02" cy="418" r="5.01"/></g><path class="cls-23" d="M311.82,180.38a2.39,2.39,0,0,1-2.38,2.38h-62.8a2.38,2.38,0,0,1-2.38-2.38h0a2.37,2.37,0,0,1,2.38-2.37h62.8a2.38,2.38,0,0,1,2.38,2.37Z" transform="translate(-5.04 -4.94)"/><rect class="cls-26" x="284.59" y="110.13" width="4.12" height="59.07" transform="translate(528.55 336.45) rotate(-166.73)"/><rect class="cls-19" x="290.94" y="110.86" width="4.12" height="3.75" transform="translate(547.27 284.76) rotate(-166.73)"/><polygon class="cls-27" points="272.63 88.25 315.4 98.33 311.98 112.83 269.21 102.75 264.79 94.67 265.06 93.5 272.63 88.25"/><polygon class="cls-28" points="269.49 101.58 312.25 111.66 315.4 98.33 272.63 88.25 265.06 93.5 269.49 101.58"/><polygon class="cls-27" points="308.86 117.49 288.9 112.78 287.32 119.5 307.28 124.2 311.01 121.83 311.14 121.28 308.86 117.49"/><polygon class="cls-28" points="307.4 123.66 287.45 118.96 288.9 112.78 308.86 117.49 311.14 121.28 307.4 123.66"/><polygon class="cls-27" points="260.25 115.32 282.82 120.64 281.23 127.35 258.67 122.03 256 118.14 256.12 117.6 260.25 115.32"/><polygon class="cls-28" points="258.8 121.49 281.36 126.81 282.82 120.64 260.25 115.32 256.12 117.6 258.8 121.49"/><text class="cls-29" transform="translate(281.2 100.07) rotate(13.25)">spain</text><text class="cls-30" transform="translate(291.6 118.1) rotate(13.25)">greece</text><text class="cls-30" transform="translate(259.8 120.2) rotate(13.25)">portugal</text><rect class="cls-31" x="274.23" y="146.06" width="38.93" height="30.17" rx="3.52" transform="translate(127.52 449.89) rotate(-90)"/><path class="cls-32" d="M306.91,146.58v29.13a3.18,3.18,0,0,1-3.12,3.21H283.6a3.17,3.17,0,0,1-3.11-3.21V146.58a3.17,3.17,0,0,1,3.11-3.21h20.2A3.17,3.17,0,0,1,306.91,146.58Z" transform="translate(-5.04 -4.94)"/><path class="cls-31" d="M294.9,147.06v28.29a1,1,0,0,1-.94,1h0a1,1,0,0,1-.95-1V147.06a.94.94,0,0,1,.95-.95h0A.94.94,0,0,1,294.9,147.06Z" transform="translate(-5.04 -4.94)"/><path class="cls-31" d="M287.09,147.06v28.29a1,1,0,0,1-.94,1h0a1,1,0,0,1-.95-1V147.06a.94.94,0,0,1,.95-.95h0A.94.94,0,0,1,287.09,147.06Z" transform="translate(-5.04 -4.94)"/><path class="cls-31" d="M302.29,147.06v28.29a1,1,0,0,1-.94,1h0a1,1,0,0,1-1-1V147.06a.94.94,0,0,1,1-.95h0A.94.94,0,0,1,302.29,147.06Z" transform="translate(-5.04 -4.94)"/><rect class="cls-33" x="273.17" y="154.13" width="31.06" height="3.43"/><rect class="cls-34" x="285.98" y="154.13" width="6.17" height="3.43"/><rect class="cls-35" x="286.77" y="153.31" width="4.61" height="5.35"/><rect class="cls-36" x="289.07" y="153.31" width="2.3" height="5.35"/><rect class="cls-37" x="287.65" y="154.14" width="2.83" height="3.69"/><rect class="cls-38" x="289.07" y="154.14" width="1.42" height="3.69"/><path class="cls-37" d="M287.25,139.87v-4.72a1,1,0,0,1,1-1h11.14a1,1,0,0,1,1,1v4.72h2v-4.72a3,3,0,0,0-3-3H288.24a3,3,0,0,0-3,3v4.72Z" transform="translate(-5.04 -4.94)"/><path class="cls-38" d="M301.35,139.87v-4.26c0-1.45-.27-2.35-2.48-2.35h-10c-1.7,0-2.48.8-2.48,2.52v4.09h.83v-4.72a1,1,0,0,1,1-1h11.14a1,1,0,0,1,1,1v4.72Z" transform="translate(-5.04 -4.94)"/><path class="cls-35" d="M286.17,139.41a2.39,2.39,0,0,0-2.5,2.27h5A2.38,2.38,0,0,0,286.17,139.41Z" transform="translate(-5.04 -4.94)"/><path class="cls-36" d="M286.17,140.54c-1.08,0-1.94.51-1.94,1.14h3.87C288.1,141.05,287.24,140.54,286.17,140.54Z" transform="translate(-5.04 -4.94)"/><path class="cls-35" d="M301.35,139.41a2.39,2.39,0,0,0-2.5,2.27h5A2.39,2.39,0,0,0,301.35,139.41Z" transform="translate(-5.04 -4.94)"/><path class="cls-36" d="M301.35,140.54c-1.07,0-1.94.51-1.94,1.14h3.88C303.29,141.05,302.42,140.54,301.35,140.54Z" transform="translate(-5.04 -4.94)"/><rect class="cls-39" x="248.74" y="139.01" width="35.68" height="24.84" rx="2.9"/><path class="cls-38" d="M286.56,144H256.68a2.9,2.9,0,0,0-2.9,2.89V148h35.68v-1.12A2.91,2.91,0,0,0,286.56,144Z" transform="translate(-5.04 -4.94)"/><path class="cls-38" d="M253.78,165.06v.84a2.9,2.9,0,0,0,2.9,2.9h29.88a2.91,2.91,0,0,0,2.9-2.9v-.84Z" transform="translate(-5.04 -4.94)"/><path class="cls-37" d="M262.36,143.76v-4.71a1,1,0,0,1,1-1H276a1,1,0,0,1,1,1v4.71h2v-4.71a3,3,0,0,0-3-3H263.35a3,3,0,0,0-3,3v4.71Z" transform="translate(-5.04 -4.94)"/><path class="cls-38" d="M278,143.76v-4.25c0-1.45-.28-2.35-2.48-2.35H264c-1.69,0-2.48.8-2.48,2.52v4.08h.84v-4.71a1,1,0,0,1,1-1H276a1,1,0,0,1,1,1v4.71Z" transform="translate(-5.04 -4.94)"/><rect class="cls-40" x="247.15" y="139.01" width="35.68" height="24.84" rx="2.9"/><rect class="cls-41" x="249.22" y="140.69" width="31.54" height="21.49" rx="2.53"/><path class="cls-37" d="M252.18,146.85v1a2.94,2.94,0,0,0,.84.12,3.08,3.08,0,0,0,3.08-3.08A3.17,3.17,0,0,0,256,144h-.88A2.91,2.91,0,0,0,252.18,146.85Z" transform="translate(-5.04 -4.94)"/><path class="cls-37" d="M285,144h-1a2.88,2.88,0,0,0-.15.93,3.08,3.08,0,0,0,3.09,3.08,3.17,3.17,0,0,0,.93-.14v-1A2.9,2.9,0,0,0,285,144Z" transform="translate(-5.04 -4.94)"/><path class="cls-37" d="M253,165.06a3.34,3.34,0,0,0-.84.12v.72a2.91,2.91,0,0,0,2.9,2.9H256a2.81,2.81,0,0,0,.07-.65A3.09,3.09,0,0,0,253,165.06Z" transform="translate(-5.04 -4.94)"/><path class="cls-37" d="M286.93,165.06a3.09,3.09,0,0,0-3.09,3.09,3.5,3.5,0,0,0,.07.65h1a2.9,2.9,0,0,0,2.9-2.9v-.69A3.18,3.18,0,0,0,286.93,165.06Z" transform="translate(-5.04 -4.94)"/><rect class="cls-33" x="254.74" y="138.7" width="3.43" height="25.29"/><rect class="cls-34" x="254.74" y="138.7" width="3.43" height="1.52"/><rect class="cls-34" x="254.74" y="149.13" width="3.43" height="5.03"/><rect class="cls-42" x="253.64" y="149.77" width="5.35" height="3.76"/><rect class="cls-43" x="253.64" y="151.65" width="5.35" height="1.88"/><rect class="cls-37" x="254.47" y="150.49" width="3.69" height="2.31"/><rect class="cls-38" x="254.47" y="151.65" width="3.69" height="1.15"/><rect class="cls-33" x="271.09" y="138.7" width="3.43" height="25.29"/><rect class="cls-34" x="271.09" y="138.7" width="3.43" height="1.52"/><rect class="cls-34" x="271.09" y="149.13" width="3.43" height="5.03"/><rect class="cls-42" x="269.99" y="149.77" width="5.35" height="3.76"/><rect class="cls-43" x="269.99" y="151.65" width="5.35" height="1.88"/><rect class="cls-37" x="270.82" y="150.49" width="3.69" height="2.31"/><rect class="cls-38" x="270.82" y="151.65" width="3.69" height="1.15"/><rect class="cls-44" x="241.96" y="163.86" width="50.22" height="11.8" rx="2.9"/><rect class="cls-45" x="244.03" y="165.53" width="46.07" height="8.45" rx="2.53"/><rect class="cls-44" x="243.34" y="169.45" width="47.45" height="0.62"/><rect class="cls-41" x="250.83" y="167.88" width="5.35" height="3.76"/><rect class="cls-40" x="250.83" y="169.76" width="5.35" height="1.88"/><rect class="cls-37" x="251.66" y="168.61" width="3.69" height="2.31"/><rect class="cls-38" x="251.66" y="169.76" width="3.69" height="1.16"/><rect class="cls-41" x="277.95" y="167.88" width="5.35" height="3.76"/><rect class="cls-40" x="277.95" y="169.76" width="5.35" height="1.88"/><rect class="cls-37" x="278.77" y="168.61" width="3.69" height="2.31"/><rect class="cls-38" x="278.77" y="169.76" width="3.69" height="1.16"/><polygon class="cls-46" points="164.93 180.08 161.57 163.32 177.67 154.01 189.01 166.15 164.93 180.08"/><polygon class="cls-47" points="177.67 154.01 186.27 149.04 200.1 159.74 189.01 166.15 177.67 154.01"/><path class="cls-38" d="M197.93,189.32,195.08,191l-5.19-9,2.85-1.65C197,177.87,202.2,186.85,197.93,189.32Z" transform="translate(-5.04 -4.94)"/><path class="cls-37" d="M189.89,182c1.92-1.11,4.63,0,6.07,2.48s1,5.38-.88,6.49-4.63,0-6.06-2.48S188,183.1,189.89,182Z" transform="translate(-5.04 -4.94)"/><path class="cls-48" d="M191,183.91c1.09-.63,2.64,0,3.46,1.42s.59,3.07-.5,3.7-2.64,0-3.46-1.41S189.91,184.55,191,183.91Z" transform="translate(-5.04 -4.94)"/><path class="cls-38" d="M211,181.74l-2.85,1.65-5.19-9,2.85-1.65C210.1,170.3,215.29,179.28,211,181.74Z" transform="translate(-5.04 -4.94)"/><path class="cls-37" d="M203,174.42c1.92-1.11,4.64,0,6.07,2.48s1,5.38-.88,6.49-4.63,0-6.06-2.48S201.07,175.52,203,174.42Z" transform="translate(-5.04 -4.94)"/><path class="cls-48" d="M204.1,176.34c1.09-.63,2.64,0,3.46,1.42s.59,3.07-.5,3.7-2.64,0-3.46-1.41S203,177,204.1,176.34Z" transform="translate(-5.04 -4.94)"/><rect class="cls-49" x="171.25" y="182.37" width="31.74" height="5.9" transform="translate(-72.68 113.64) rotate(-30.04)"/><path class="cls-38" d="M187.21,195.52l-2.85,1.64-5.19-9,2.85-1.65C186.29,184.07,191.48,193.05,187.21,195.52Z" transform="translate(-5.04 -4.94)"/><path class="cls-37" d="M179.17,188.19c1.92-1.11,4.63,0,6.07,2.48s1,5.38-.88,6.49-4.63,0-6.06-2.48S177.26,189.29,179.17,188.19Z" transform="translate(-5.04 -4.94)"/><path class="cls-33" d="M180.29,190.11c1.09-.63,2.64,0,3.46,1.42s.59,3.07-.5,3.7-2.64,0-3.46-1.41S179.19,190.75,180.29,190.11Z" transform="translate(-5.04 -4.94)"/><path class="cls-38" d="M200.3,187.94l-2.85,1.65-5.19-9,2.85-1.64C199.38,176.5,204.57,185.48,200.3,187.94Z" transform="translate(-5.04 -4.94)"/><path class="cls-37" d="M192.26,180.61c1.92-1.1,4.64,0,6.07,2.49s1,5.38-.88,6.49-4.63,0-6.06-2.48S190.35,181.72,192.26,180.61Z" transform="translate(-5.04 -4.94)"/><path class="cls-33" d="M193.38,182.54c1.09-.63,2.64,0,3.46,1.42s.59,3.07-.5,3.7-2.64,0-3.46-1.41S192.29,183.18,193.38,182.54Z" transform="translate(-5.04 -4.94)"/><rect class="cls-45" x="180.35" y="162.47" width="1.72" height="14.88" transform="translate(-65.74 108.55) rotate(-30.03)"/><rect class="cls-50" x="181.92" y="161.94" width="0.4" height="14.88" transform="translate(-65.42 109.2) rotate(-30.09)"/><polygon class="cls-45" points="169.96 177.17 164.93 180.08 161.24 165.01 165.55 162.52 169.96 177.17"/><polygon class="cls-50" points="170.31 176.96 169.96 177.17 165.55 162.52 165.9 162.31 170.31 176.96"/><path class="cls-45" d="M194.05,171.09,170,185l-1.32,4.35,6.22,6.45,2.45-1.42c-1.25-2.55-.6-5.5,1.55-6.75s5-.33,6.62,2l4.93-2.84c-1.26-2.55-.61-5.5,1.55-6.75s5-.33,6.62,2l6.73-3.89-2.07-6.3Z" transform="translate(-5.04 -4.94)"/><polygon class="cls-50" points="189.01 166.15 200.1 159.74 212.9 158.39 214.77 164.88 200.28 173.26 198.21 166.96 189.01 166.15"/><polygon class="cls-49" points="198.21 166.96 212.9 158.39 214.77 164.88 200.28 173.26 198.21 166.96"/><path class="cls-51" d="M174.85,192a6.44,6.44,0,0,1,3.14-6,6.51,6.51,0,0,1,8.13,1.48l1.95-1.12a6.48,6.48,0,0,1,11.15-6.26l1.25-.72" transform="translate(-5.04 -4.94)"/><polyline class="cls-51" points="164.79 163.11 169.15 177.92 171.6 182.15"/><line class="cls-51" x1="172.45" y1="158.53" x2="183.08" y2="176.91"/><polygon class="cls-33" points="169.61 191.85 171.92 190.51 169.94 187.08 166.84 188.87 169.61 191.85"/><rect class="cls-34" x="175.93" y="191.64" width="0.47" height="3.96" transform="translate(-78.31 109.29) rotate(-30.05)"/><polygon class="cls-50" points="188.1 149.48 161.24 165.02 160.89 163.12 186.68 148.2 188.1 149.48"/><polygon class="cls-45" points="179.31 154.57 161.24 165.02 160.89 163.12 177.89 153.29 179.31 154.57"/><polygon class="cls-51" points="211.13 159.48 201.12 160.33 192.19 165.5 199.67 166.11 199.98 166.62 211.34 160.05 211.13 159.48"/><polygon class="cls-34" points="215.53 165.29 196.49 176.3 194.5 172.87 214.34 161.4 215.53 165.29"/><polygon class="cls-33" points="201.03 173.68 196.49 176.3 194.5 172.87 199.6 169.92 201.03 173.68"/><path class="cls-40" d="M178.75,181.89l-2.56,1.49a.29.29,0,0,1-.38-.1l-.11-.2a.28.28,0,0,1,.1-.38l2.56-1.48a.28.28,0,0,1,.38.1l.11.2A.27.27,0,0,1,178.75,181.89Z" transform="translate(-5.04 -4.94)"/><rect class="cls-33" x="175.18" y="181.81" width="3.51" height="0.78" rx="0.28" transform="translate(-72.49 108.14) rotate(-30.05)"/><rect class="cls-40" x="186.31" y="175.67" width="3.51" height="0.78" rx="0.28" transform="matrix(0.87, -0.5, 0.5, 0.87, -67.91, 112.85)"/><rect class="cls-33" x="185.97" y="175.57" width="3.51" height="0.78" rx="0.28" transform="translate(-67.91 112.67) rotate(-30.04)"/><path class="cls-52" d="M203.93,172.69a1.61,1.61,0,0,0,1.93,1.14,1.59,1.59,0,0,0,.62-2.15,2,2,0,0,0-1-1.1l-1.71,1A2.07,2.07,0,0,0,203.93,172.69Z" transform="translate(-5.04 -4.94)"/><path class="cls-52" d="M216.28,165.55a1.42,1.42,0,1,0,2.55-1,2,2,0,0,0-1-1.1l-1.72,1A2.19,2.19,0,0,0,216.28,165.55Z" transform="translate(-5.04 -4.94)"/><path class="cls-34" d="M218.43,166.38l.8-.32-1.31-3.3-.8.32C215.55,163.7,216.86,167,218.43,166.38Z" transform="translate(-5.04 -4.94)"/><path class="cls-33" d="M217.92,162.76a1.83,1.83,0,0,0,1.31,3.3,1.6,1.6,0,0,0,.63-2.15A1.63,1.63,0,0,0,217.92,162.76Z" transform="translate(-5.04 -4.94)"/><path class="cls-41" d="M218.23,163.24a1.26,1.26,0,1,0,1.33.78A1.11,1.11,0,0,0,218.23,163.24Z" transform="translate(-5.04 -4.94)"/><path class="cls-40" d="M219.34,165.17a1.11,1.11,0,0,1-1.33-.79,1.36,1.36,0,0,1,0-1,1.26,1.26,0,0,0-.17,1.31,1.12,1.12,0,0,0,1.33.79.81.81,0,0,0,.47-.52A.68.68,0,0,1,219.34,165.17Z" transform="translate(-5.04 -4.94)"/><path class="cls-34" d="M206.08,173.53l.81-.32-1.31-3.31-.81.32C203.2,170.85,204.51,174.15,206.08,173.53Z" transform="translate(-5.04 -4.94)"/><path class="cls-33" d="M205.58,169.9a1.84,1.84,0,1,0,1.93,1.15A1.62,1.62,0,0,0,205.58,169.9Z" transform="translate(-5.04 -4.94)"/><path class="cls-41" d="M205.88,170.38a1.27,1.27,0,1,0,1.33.79A1.11,1.11,0,0,0,205.88,170.38Z" transform="translate(-5.04 -4.94)"/><path class="cls-40" d="M207,172.31a1.12,1.12,0,0,1-1.33-.79,1.42,1.42,0,0,1,0-1,1.24,1.24,0,0,0-.16,1.31,1.11,1.11,0,0,0,1.33.79.82.82,0,0,0,.46-.52A.68.68,0,0,1,207,172.31Z" transform="translate(-5.04 -4.94)"/><polygon class="cls-41" points="164.27 185.11 166.18 184.01 167.49 186.28 166.14 187.06 164.27 185.11"/><polygon class="cls-40" points="165.75 184.25 166.85 186.14 165.83 186.73 166.14 187.06 167.49 186.28 166.18 184.01 165.75 184.25"/><polygon class="cls-53" points="403.29 219.13 419.71 206.73 416.58 186.29 397.06 183.29 384.35 199.53 403.29 219.13"/><polygon class="cls-54" points="406.65 216.59 403.29 219.13 384.35 199.53 386.95 196.2 406.65 216.59"/><polygon class="cls-55" points="406.65 216.59 404.88 217.92 386.32 196.93 386.95 196.2 406.65 216.59"/><rect class="cls-56" x="386.77" y="210.72" width="29.84" height="0.93" transform="translate(269.31 -229.35) rotate(45.97)"/><rect class="cls-57" x="396.45" y="195.11" width="13.14" height="11.53" transform="translate(262.31 -233.45) rotate(45.97)"/><rect class="cls-56" x="397.5" y="192.84" width="6.75" height="11.29" transform="translate(259.93 -232.64) rotate(45.97)"/><rect class="cls-58" x="398.03" y="193.48" width="5.69" height="10.01" transform="translate(259.93 -232.64) rotate(45.97)"/><polygon class="cls-56" points="392.25 197.69 391.82 197.24 399.46 189.17 400.24 189.97 392.25 197.69"/><rect class="cls-56" x="397.73" y="197.83" width="6.49" height="0.8" transform="translate(259.78 -232.79) rotate(45.97)"/><g class="cls-59"><polygon class="cls-58" points="401.06 192.45 401.42 192.11 399.78 190.41 396.65 193.44 396.99 193.8 399.77 191.12 401.06 192.45"/><polygon class="cls-58" points="395.13 193.74 395.47 193.38 393.75 191.6 390.27 194.97 390.61 195.33 393.74 192.31 395.13 193.74"/><polygon class="cls-58" points="397.45 188.72 398.68 189.99 399.02 189.63 397.46 188.02 394.33 191.04 394.68 191.4 397.45 188.72"/><polygon class="cls-58" points="397.35 196.04 397.71 195.69 396.07 194 392.58 197.37 392.93 197.73 396.06 194.7 397.35 196.04"/></g><rect class="cls-56" x="401.78" y="197.27" width="6.75" height="11.29" transform="translate(264.42 -234.36) rotate(45.97)"/><rect class="cls-58" x="402.31" y="197.91" width="5.69" height="10.01" transform="translate(264.42 -234.36) rotate(45.97)"/><polygon class="cls-56" points="396.53 202.12 396.1 201.67 403.74 193.59 404.52 194.4 396.53 202.12"/><rect class="cls-56" x="402.01" y="202.25" width="6.49" height="0.8" transform="translate(264.27 -234.51) rotate(45.97)"/><g class="cls-59"><polygon class="cls-58" points="405.34 196.88 405.69 196.53 404.06 194.84 400.93 197.87 401.27 198.22 404.05 195.54 405.34 196.88"/><polygon class="cls-58" points="399.41 198.17 399.75 197.81 398.03 196.03 394.55 199.4 394.89 199.76 398.02 196.73 399.41 198.17"/><polygon class="cls-58" points="401.73 193.15 402.96 194.42 403.3 194.06 401.74 192.44 398.61 195.47 398.96 195.83 401.73 193.15"/><polygon class="cls-58" points="401.63 200.46 401.99 200.12 400.35 198.42 396.86 201.79 397.21 202.15 400.34 199.13 401.63 200.46"/></g><g class="cls-59"><polygon class="cls-60" points="415.55 209.68 419.1 207.17 416.02 187.14 396.51 184.04 393.63 187.96 412.65 190.78 415.55 209.68"/></g><polygon class="cls-54" points="419.35 207.67 420.29 208.64 421.92 210.19 417.92 185.21 394.02 181.33 395.86 183.36 396.32 183.85 416.17 186.9 419.35 207.67"/><polygon class="cls-61" points="419.18 207.85 420.98 209.71 421.05 209.65 417.38 185.72 394.53 182.21 394.47 182.29 396.14 184.02 415.99 187.07 419.18 207.85"/><rect class="cls-62" x="407.59" y="204.51" width="9.03" height="14.81" transform="translate(273.01 -236.61) rotate(45.97)"/><rect class="cls-56" x="407.27" y="204.69" width="9.03" height="14.39" transform="translate(272.89 -236.39) rotate(45.97)"/><rect class="cls-61" x="407.77" y="205.37" width="7.45" height="13.57" transform="translate(273 -236.1) rotate(45.97)"/><g class="cls-59"><polygon class="cls-61" points="413.57 205.52 413.93 205.17 408.75 199.82 399 209.25 399.34 209.61 408.74 200.52 413.57 205.52"/></g><path class="cls-63" d="M412.17,214.49a.63.63,0,1,1,.87.91.62.62,0,0,1-.89,0A.63.63,0,0,1,412.17,214.49Z" transform="translate(-5.04 -4.94)"/><path class="cls-64" d="M412.17,214.14a.63.63,0,0,1,.89,0,.62.62,0,0,1,0,.89.63.63,0,0,1-.88-.91Z" transform="translate(-5.04 -4.94)"/><path class="cls-65" d="M412.61,214.14a.33.33,0,0,1,.21.63.33.33,0,0,1-.21-.63Z" transform="translate(-5.04 -4.94)"/><rect class="cls-66" x="400.72" y="216.74" width="10.92" height="1.36" transform="translate(275.16 -230.67) rotate(45.97)"/><rect class="cls-67" x="400.81" y="216.91" width="10.63" height="1.18" transform="translate(275.2 -230.61) rotate(45.97)"/><rect class="cls-66" x="399.41" y="217.72" width="11.63" height="1.36" transform="translate(275.58 -229.69) rotate(45.97)"/><rect class="cls-68" x="399.52" y="217.89" width="11.32" height="1.18" transform="translate(275.62 -229.63) rotate(45.97)"/><rect class="cls-66" x="398.07" y="218.64" width="12.31" height="1.36" transform="translate(275.94 -228.69) rotate(45.97)"/><rect class="cls-69" x="398.19" y="218.81" width="11.99" height="1.18" transform="translate(275.98 -228.63) rotate(45.97)"/><path class="cls-23" d="M420.33,240.39a6.12,6.12,0,0,0,5.47-2.77c1.8-3.07-1-5.81-1-5.81s3.64-1.41,2.17-5.75-6.79-3.14-6.79-3.14,1.8-1.7.44-3.15-3.26,1-3.25,2c0,0,.38-3.16-2-3.06s-.5,3.08-.5,3.08-1.5-2.79-3.7-2.34a2.17,2.17,0,0,0-1.92,2.41s-.65-2.42-2.05-2.1.2,3.85.2,3.85Z" transform="translate(-5.04 -4.94)"/><path class="cls-24" d="M424.05,237.05c.75-2.08-1.64-5.63-1.64-5.63s2.55-.57,2.86-2.76-2.89-4.84-5.38-4.38A4.43,4.43,0,0,0,419,222c-.71-.67-2.55.85-2.55.85a1.1,1.1,0,0,0-.38-1.66c-1.12-.72-1.45,1.28-1.45,1.28a3.79,3.79,0,0,0-2.87-1.51c-1.66.11-2.34,2.51-2.34,2.51s-.83-2.88-2.73-1.87h0c-.18-.85-.17-1.67.48-1.82,1.4-.32,2.05,2.1,2.05,2.1a2.17,2.17,0,0,1,1.92-2.41c1.86-.38,3.23,1.56,3.6,2.16-.36-.64-1.44-2.81.6-2.9s2,2.27,2,2.9c.16-1.09,1.94-3.24,3.24-1.86s-.44,3.15-.44,3.15,5.32-1.2,6.79,3.14-2.17,5.75-2.17,5.75,2.82,2.74,1,5.81a6.12,6.12,0,0,1-5.47,2.77S423.3,239.13,424.05,237.05Z" transform="translate(-5.04 -4.94)"/><path class="cls-23" d="M397.7,213.77s.52,0,.87-1c1.25-3.32-2.11-5.5-2.11-5.5s3.3-2.08,1-6.06-7.26-1.78-7.26-1.78,1.44-2-.18-3.17-3,1.59-2.8,2.6c0,0,0-3-2.55-2.61-1.5.22-.48,2.57-.48,2.57a2.27,2.27,0,0,0-2.21-1.42,2.92,2.92,0,0,0-2,1.17Z" transform="translate(-5.04 -4.94)"/><path class="cls-24" d="M396.57,213.12c1.55-3.56-2.52-5.74-2.52-5.74s2.4-1,2.28-3.25-3.76-4.2-6.11-3.27c0,0-.32-2-1.3-2.07-1.22-.09-2.33,1.32-2.33,1.32a1.11,1.11,0,0,0-.7-1.56c-1.23-.49-1.17,1.54-1.17,1.54a2.46,2.46,0,0,0-2.44-1.45,2.07,2.07,0,0,0-1.27.84l-1-.86a2.35,2.35,0,0,1,2-1.17,2.11,2.11,0,0,1,2,1s-1.23-1.62.73-2.18c2.52-.7,2.45,1.84,2.53,2.46-.05-1.1,1.28-3.55,2.82-2.44s.18,3.17.18,3.17,5-2.2,7.26,1.78-1,6.06-1,6.06,3.39,2.19,2.11,5.5c-.45,1.2-.87.95-.87.95Z" transform="translate(-5.04 -4.94)"/></g><g id="Laag_1" data-name="Laag 1"><g id="legenda"><text class="cls-70" transform="translate(284.04 32.93)">zelf controle over <tspan x="2.36" y="12">waar, wanneer en </tspan><tspan x="8.07" y="24">hoe lang je wilt </tspan><tspan x="2.52" y="36">stoppen onderweg</tspan></text><text class="cls-70" transform="translate(177.37 32.93)">meer ruimte <tspan x="-8.44" y="12">voor bagage en </tspan><tspan x="-9.19" y="24">voor souvenirs </tspan><tspan x="-7.9" y="36">op de terugweg</tspan></text><text class="cls-70" transform="translate(431.47 53.59)">meer zien van <tspan x="-7.95" y="12">dorpen en steden </tspan><tspan x="-2.25" y="24">langs de route</tspan></text><text class="cls-70" transform="translate(22.57 176.06)">een relatief goedkoop <tspan x="6.03" y="12">vervoersmiddel om </tspan><tspan x="5.77" y="24">op vakantie te gaan</tspan></text><text class="cls-70" transform="translate(27.39 55.45)">ook op je vakantieadres <tspan x="-1.54" y="12">altijd eigen vervoer tot </tspan><tspan x="26.98" y="24">je beschikking</tspan></text><path class="cls-71" d="M211.1,82.38a2.58,2.58,0,1,0-.89,2.9A2.61,2.61,0,0,0,211.1,82.38Z" transform="translate(-5.04 -4.94)"/><path class="cls-72" d="M209.64,82.69a1.12,1.12,0,1,0-.46,1.51A1.11,1.11,0,0,0,209.64,82.69Z" transform="translate(-5.04 -4.94)"/><polyline class="cls-71" points="203.62 80.85 203.62 88.25 239.1 132.26"/><path class="cls-72" d="M246.47,136.66a2.46,2.46,0,1,0-.85,2.77A2.47,2.47,0,0,0,246.47,136.66Z" transform="translate(-5.04 -4.94)"/><path class="cls-71" d="M92.11,159.46a2.59,2.59,0,1,0,1.29,2.75A2.62,2.62,0,0,0,92.11,159.46Z" transform="translate(-5.04 -4.94)"/><path class="cls-72" d="M91.24,160.67a1.12,1.12,0,1,0-.76,2.11,1.12,1.12,0,0,0,.76-2.11Z" transform="translate(-5.04 -4.94)"/><polyline class="cls-71" points="87.92 155.66 119.62 137.92 154.08 164.13"/><path class="cls-72" d="M160.31,166.92a2.46,2.46,0,1,0,1.23,2.61A2.47,2.47,0,0,0,160.31,166.92Z" transform="translate(-5.04 -4.94)"/><line class="cls-71" x1="96.91" y1="96.77" x2="119.62" y2="137.92"/><path class="cls-71" d="M101.78,97.12a2.58,2.58,0,1,0,1.29,2.74A2.59,2.59,0,0,0,101.78,97.12Z" transform="translate(-5.04 -4.94)"/><path class="cls-72" d="M100.91,98.33a1.12,1.12,0,1,0,.67,1.43A1.13,1.13,0,0,0,100.91,98.33Z" transform="translate(-5.04 -4.94)"/><path class="cls-71" d="M432.41,93.22A2.58,2.58,0,1,0,429.56,91,2.59,2.59,0,0,0,432.41,93.22Z" transform="translate(-5.04 -4.94)"/><path class="cls-72" d="M432.25,91.77a1.12,1.12,0,1,0-1.24-1A1.12,1.12,0,0,0,432.25,91.77Z" transform="translate(-5.04 -4.94)"/><polyline class="cls-71" points="427.08 88.28 427.08 94.93 379.08 122.6"/><path class="cls-72" d="M385.1,129.8a2.46,2.46,0,1,0-3.25-1.27A2.47,2.47,0,0,0,385.1,129.8Z" transform="translate(-5.04 -4.94)"/><path class="cls-71" d="M361.29,82.68a2.58,2.58,0,1,0-3.18-1.8A2.59,2.59,0,0,0,361.29,82.68Z" transform="translate(-5.04 -4.94)"/><path class="cls-72" d="M360.9,81.27a1.12,1.12,0,1,0-.6-2.16,1.12,1.12,0,0,0,.6,2.16Z" transform="translate(-5.04 -4.94)"/><polyline class="cls-71" points="355.56 77.59 355.56 83.67 301.39 89.53"/><path class="cls-72" d="M307.75,96.55a2.46,2.46,0,1,0-3.4-.75A2.46,2.46,0,0,0,307.75,96.55Z" transform="translate(-5.04 -4.94)"/><path class="cls-71" d="M442.16,131.92a2.58,2.58,0,1,0-2.92.82A2.59,2.59,0,0,0,442.16,131.92Z" transform="translate(-5.04 -4.94)"/><path class="cls-72" d="M441.11,130.86a1.12,1.12,0,1,0-1.52.43A1.12,1.12,0,0,0,441.11,130.86Z" transform="translate(-5.04 -4.94)"/><polyline class="cls-71" points="432.28 125.4 425.55 125.37 407.73 179.02"/><path class="cls-72" d="M414.49,185.63a2.46,2.46,0,1,0-2.79.79A2.47,2.47,0,0,0,414.49,185.63Z" transform="translate(-5.04 -4.94)"/></g><text class="cls-70" transform="translate(445.11 121.23)">het voordeel <tspan x="1.02" y="12">van voor je </tspan><tspan x="-3.12" y="24">deur instappen </tspan><tspan x="0.42" y="36">en uitstappen</tspan></text><text class="cls-73" transform="translate(183.95 212.42)">voordelen van een <tspan x="5.25" y="24">roadtrip vakantie</tspan></text><text class="cls-74" transform="translate(182.95 211.42)">voordelen van een <tspan x="5.25" y="24">roadtrip vakantie</tspan></text></g></g></svg>