<svg xmlns="http://www.w3.org/2000/svg" xmlns:xlink="http://www.w3.org/1999/xlink" viewBox="0 0 15567 768"><defs><style>.cls-1{fill:url(#Naamloos_verloop_6);}.cls-2{fill:url(#Naamloos_verloop_6-2);}.cls-3{fill:url(#Naamloos_verloop_6-3);}.cls-4{fill:url(#Naamloos_verloop_6-4);}.cls-5{fill:url(#Naamloos_verloop_6-5);}.cls-6{fill:url(#Naamloos_verloop_6-6);}.cls-7{fill:url(#Naamloos_verloop_6-7);}.cls-8{fill:url(#Naamloos_verloop_6-8);}.cls-9{fill:url(#Naamloos_verloop_6-9);}.cls-10{fill:url(#Naamloos_verloop_6-10);}.cls-11{fill:url(#Naamloos_verloop_6-11);}.cls-12{fill:url(#Naamloos_verloop_6-12);}.cls-13{fill:url(#Naamloos_verloop_6-13);}.cls-14{fill:url(#Naamloos_verloop_6-14);}.cls-15{fill:url(#Naamloos_verloop_6-15);}.cls-16{fill:url(#Naamloos_verloop_6-16);}.cls-17{fill:url(#Naamloos_verloop_6-17);}.cls-18{fill:url(#Naamloos_verloop_6-18);}.cls-19{fill:url(#Naamloos_verloop_6-19);}.cls-20{fill:url(#Naamloos_verloop_6-20);}.cls-21{fill:url(#Naamloos_verloop_6-21);}.cls-104,.cls-22{fill:none;}.cls-23{isolation:isolate;}.cls-24{fill:#5fa8dd;}.cls-25{fill:#63b22f;}.cls-26{fill:#2c509e;}.cls-27{fill:#138a37;}.cls-28{fill:#437c1e;}.cls-29{fill:#9b9b9b;}.cls-30{fill:#7f8080;}.cls-31{clip-path:url(#clip-path);}.cls-32{clip-path:url(#clip-path-2);}.cls-164,.cls-33,.cls-44{fill:#fff;}.cls-34{fill:#f7edbf;}.cls-35{fill:#d9fdff;}.cls-36{fill:#60f5fc;}.cls-37{clip-path:url(#clip-path-3);}.cls-38{fill:#b07b2c;}.cls-39{fill:#81b02c;}.cls-40{fill:#c7d439;}.cls-41{clip-path:url(#clip-path-5);}.cls-42{fill:#252c5d;}.cls-43{fill:#dfdfdf;}.cls-44{stroke:#894f14;}.cls-104,.cls-44,.cls-45{stroke-miterlimit:10;}.cls-45{fill:#894e14;stroke:#fff;stroke-width:2px;}.cls-46{fill:#d5ecf4;}.cls-47{fill:#c6c6c6;}.cls-48{clip-path:url(#clip-path-7);}.cls-49{fill:#1f7a09;}.cls-50{fill:#693c28;}.cls-51{clip-path:url(#clip-path-9);}.cls-52{fill:#7c4c33;}.cls-53{fill:#619d5b;}.cls-54{clip-path:url(#clip-path-11);}.cls-55{fill:#7e4f2e;}.cls-56{fill:#6a3f23;}.cls-57{fill:#80c441;}.cls-58{fill:#598c00;}.cls-59{clip-path:url(#clip-path-13);}.cls-60{clip-path:url(#clip-path-15);}.cls-61{clip-path:url(#clip-path-17);}.cls-62{clip-path:url(#clip-path-19);}.cls-63{clip-path:url(#clip-path-21);}.cls-64{clip-path:url(#clip-path-23);}.cls-65{clip-path:url(#clip-path-25);}.cls-66{fill:#4a2801;}.cls-67{fill:#afd554;}.cls-68{clip-path:url(#clip-path-27);}.cls-69{clip-path:url(#clip-path-29);}.cls-70{clip-path:url(#clip-path-31);}.cls-71{clip-path:url(#clip-path-33);}.cls-72{clip-path:url(#clip-path-35);}.cls-73{clip-path:url(#clip-path-37);}.cls-74{clip-path:url(#clip-path-39);}.cls-75{clip-path:url(#clip-path-41);}.cls-76{clip-path:url(#clip-path-43);}.cls-77{clip-path:url(#clip-path-45);}.cls-78{clip-path:url(#clip-path-47);}.cls-79{clip-path:url(#clip-path-49);}.cls-80{fill:#fddbb8;}.cls-81{mix-blend-mode:multiply;}.cls-82{clip-path:url(#clip-path-52);}.cls-83{clip-path:url(#clip-path-53);}.cls-84{fill:#7b5118;}.cls-85{fill:#43404c;}.cls-86{fill:#eb5962;}.cls-87{fill:#77684e;}.cls-88{opacity:0.69;}.cls-89{clip-path:url(#clip-path-54);}.cls-90{fill:#96cb99;}.cls-91{clip-path:url(#clip-path-55);}.cls-92{fill:#c1c4c2;}.cls-93{clip-path:url(#clip-path-58);}.cls-94{mask:url(#mask);}.cls-95{fill:url(#Naamloos_verloop_3);}.cls-96{clip-path:url(#clip-path-59);}.cls-97{mask:url(#mask-2);}.cls-98{fill:url(#Naamloos_verloop_3-2);}.cls-99{fill:#bcbbbb;}.cls-100{clip-path:url(#clip-path-61);}.cls-101{mask:url(#mask-3);}.cls-102{fill:url(#Naamloos_verloop_5);}.cls-103{fill:#f7eb62;}.cls-104{stroke:#1d1d1b;}.cls-105{clip-path:url(#clip-path-63);}.cls-106{clip-path:url(#clip-path-66);}.cls-107{mask:url(#mask-4);}.cls-108{fill:url(#Naamloos_verloop_3-3);}.cls-109{clip-path:url(#clip-path-67);}.cls-110{mask:url(#mask-5);}.cls-111{fill:url(#Naamloos_verloop_3-4);}.cls-112{clip-path:url(#clip-path-69);}.cls-113{mask:url(#mask-6);}.cls-114{fill:url(#Naamloos_verloop_5-2);}.cls-115{clip-path:url(#clip-path-71);}.cls-116{mask:url(#mask-7);}.cls-117{fill:url(#Naamloos_verloop_3-5);}.cls-118{clip-path:url(#clip-path-72);}.cls-119{mask:url(#mask-8);}.cls-120{fill:url(#Naamloos_verloop_3-6);}.cls-121{clip-path:url(#clip-path-74);}.cls-122{mask:url(#mask-9);}.cls-123{fill:url(#Naamloos_verloop_5-3);}.cls-124{fill:#297b3a;}.cls-125{clip-path:url(#clip-path-76);}.cls-126{clip-path:url(#clip-path-79);}.cls-127{mask:url(#mask-10);}.cls-128{fill:url(#Naamloos_verloop_3-7);}.cls-129{clip-path:url(#clip-path-80);}.cls-130{mask:url(#mask-11);}.cls-131{fill:url(#Naamloos_verloop_3-8);}.cls-132{clip-path:url(#clip-path-82);}.cls-133{mask:url(#mask-12);}.cls-134{fill:url(#Naamloos_verloop_5-4);}.cls-135{clip-path:url(#clip-path-84);}.cls-136{clip-path:url(#clip-path-87);}.cls-137{mask:url(#mask-13);}.cls-138{fill:url(#Naamloos_verloop_3-9);}.cls-139{clip-path:url(#clip-path-88);}.cls-140{mask:url(#mask-14);}.cls-141{fill:url(#Naamloos_verloop_3-10);}.cls-142{clip-path:url(#clip-path-90);}.cls-143{mask:url(#mask-15);}.cls-144{fill:url(#Naamloos_verloop_5-5);}.cls-145{clip-path:url(#clip-path-92);}.cls-146{mask:url(#mask-16);}.cls-147{fill:url(#Naamloos_verloop_3-11);}.cls-148{clip-path:url(#clip-path-93);}.cls-149{mask:url(#mask-17);}.cls-150{fill:url(#Naamloos_verloop_3-12);}.cls-151{clip-path:url(#clip-path-95);}.cls-152{mask:url(#mask-18);}.cls-153{fill:url(#Naamloos_verloop_5-6);}.cls-154{clip-path:url(#clip-path-97);}.cls-155{clip-path:url(#clip-path-100);}.cls-156{mask:url(#mask-19);}.cls-157{fill:url(#Naamloos_verloop_3-13);}.cls-158{clip-path:url(#clip-path-101);}.cls-159{mask:url(#mask-20);}.cls-160{fill:url(#Naamloos_verloop_3-14);}.cls-161{clip-path:url(#clip-path-103);}.cls-162{mask:url(#mask-21);}.cls-163{fill:url(#Naamloos_verloop_5-7);}.cls-164{font-size:28px;font-family:Arnold21, "Arnold 2.1";}</style><linearGradient id="Naamloos_verloop_6" x1="5737.38" y1="-161.68" x2="5738.38" y2="-161.68" gradientTransform="matrix(3.84, 0, 0, -3.84, -19767.91, -10.06)" gradientUnits="userSpaceOnUse"><stop offset="0"/><stop offset="0.02" stop-color="#1a1a1a"/><stop offset="0.06" stop-color="#4f4f4f"/><stop offset="0.1" stop-color="#7e7e7e"/><stop offset="0.14" stop-color="#a6a6a6"/><stop offset="0.18" stop-color="#c6c6c6"/><stop offset="0.23" stop-color="#dfdfdf"/><stop offset="0.27" stop-color="#f1f1f1"/><stop offset="0.32" stop-color="#fcfcfc"/><stop offset="0.38" stop-color="#fff"/><stop offset="0.99" stop-color="#fff"/><stop offset="1" stop-color="#fff"/></linearGradient><linearGradient id="Naamloos_verloop_6-2" x1="8212.62" y1="-161.68" x2="8213.62" y2="-161.68" gradientTransform="translate(33802 -10.09) rotate(180) scale(3.84)" xlink:href="#Naamloos_verloop_6"/><linearGradient id="Naamloos_verloop_6-3" x1="6621.39" y1="-161.8" x2="6622.39" y2="-161.8" gradientTransform="translate(33916.23 -10.09) rotate(180) scale(3.84)" xlink:href="#Naamloos_verloop_6"/><linearGradient id="Naamloos_verloop_6-4" x1="6621.39" y1="-161.8" x2="6622.39" y2="-161.8" gradientTransform="translate(33918.77 -57.39) rotate(180) scale(3.84)" xlink:href="#Naamloos_verloop_6"/><linearGradient id="Naamloos_verloop_6-5" x1="8069.41" y1="-161.76" x2="8070.41" y2="-161.76" gradientTransform="matrix(3.84, 0, 0, -3.84, -19768.26, -10.06)" xlink:href="#Naamloos_verloop_6"/><linearGradient id="Naamloos_verloop_6-6" x1="5880.59" y1="-161.76" x2="5881.59" y2="-161.76" gradientTransform="translate(33801.65 -10.09) rotate(180) scale(3.84)" xlink:href="#Naamloos_verloop_6"/><linearGradient id="Naamloos_verloop_6-7" x1="5880.59" y1="-161.76" x2="5881.59" y2="-161.76" gradientTransform="translate(33804.19 -57.39) rotate(180) scale(3.84)" xlink:href="#Naamloos_verloop_6"/><linearGradient id="Naamloos_verloop_6-8" x1="8069.41" y1="-161.76" x2="8070.41" y2="-161.76" gradientTransform="matrix(3.84, 0, 0, -3.84, -19536.1, -10.1)" xlink:href="#Naamloos_verloop_6"/><linearGradient id="Naamloos_verloop_6-9" x1="5880.59" y1="-161.76" x2="5881.59" y2="-161.76" gradientTransform="translate(34033.82 -10.12) rotate(180) scale(3.84)" xlink:href="#Naamloos_verloop_6"/><linearGradient id="Naamloos_verloop_6-10" x1="5880.59" y1="-161.76" x2="5881.59" y2="-161.76" gradientTransform="translate(34036.36 -57.43) rotate(180) scale(3.84)" xlink:href="#Naamloos_verloop_6"/><linearGradient id="Naamloos_verloop_6-11" x1="8724.02" y1="-161.8" x2="8725.03" y2="-161.8" gradientTransform="matrix(3.84, 0, 0, -3.84, -19653.68, -10.06)" xlink:href="#Naamloos_verloop_6"/><linearGradient id="Naamloos_verloop_6-12" x1="5225.98" y1="-161.8" x2="5226.98" y2="-161.8" gradientTransform="translate(33916.23 -10.09) rotate(180) scale(3.84)" xlink:href="#Naamloos_verloop_6"/><linearGradient id="Naamloos_verloop_6-13" x1="8212.62" y1="-161.68" x2="8213.62" y2="-161.68" gradientTransform="translate(33804.55 -59.42) rotate(180) scale(3.84)" xlink:href="#Naamloos_verloop_6"/><linearGradient id="Naamloos_verloop_6-14" x1="5225.98" y1="-161.8" x2="5226.98" y2="-161.8" gradientTransform="translate(33918.77 -57.39) rotate(180) scale(3.84)" xlink:href="#Naamloos_verloop_6"/><linearGradient id="Naamloos_verloop_6-15" x1="6647.43" y1="-161.76" x2="6648.43" y2="-161.76" gradientTransform="matrix(3.84, 0, 0, -3.84, -19768.26, -10.06)" xlink:href="#Naamloos_verloop_6"/><linearGradient id="Naamloos_verloop_6-16" x1="7302.57" y1="-161.76" x2="7303.57" y2="-161.76" gradientTransform="translate(33801.65 -10.09) rotate(180) scale(3.84)" xlink:href="#Naamloos_verloop_6"/><linearGradient id="Naamloos_verloop_6-17" x1="7302.57" y1="-161.76" x2="7303.57" y2="-161.76" gradientTransform="translate(33804.19 -57.39) rotate(180) scale(3.84)" xlink:href="#Naamloos_verloop_6"/><linearGradient id="Naamloos_verloop_6-18" x1="6647.43" y1="-161.76" x2="6648.43" y2="-161.76" gradientTransform="matrix(3.84, 0, 0, -3.84, -19536.1, -10.1)" xlink:href="#Naamloos_verloop_6"/><linearGradient id="Naamloos_verloop_6-19" x1="7302.57" y1="-161.76" x2="7303.57" y2="-161.76" gradientTransform="translate(34033.82 -10.12) rotate(180) scale(3.84)" xlink:href="#Naamloos_verloop_6"/><linearGradient id="Naamloos_verloop_6-20" x1="7302.57" y1="-161.76" x2="7303.57" y2="-161.76" gradientTransform="translate(34036.36 -57.43) rotate(180) scale(3.84)" xlink:href="#Naamloos_verloop_6"/><linearGradient id="Naamloos_verloop_6-21" x1="7328.61" y1="-161.8" x2="7329.61" y2="-161.8" gradientTransform="matrix(3.84, 0, 0, -3.84, -19653.68, -10.06)" xlink:href="#Naamloos_verloop_6"/><clipPath id="clip-path" transform="translate(0 0)"><rect class="cls-22" x="8597" y="151" width="2083.4" height="436.83"/></clipPath><clipPath id="clip-path-2" transform="translate(0 0)"><rect class="cls-22" x="8597" y="151" width="2083.4" height="436.83"/></clipPath><clipPath id="clip-path-3" transform="translate(0 0)"><rect class="cls-22" x="14766" y="271.64" width="133.13" height="206.04"/></clipPath><clipPath id="clip-path-5" transform="translate(0 0)"><rect class="cls-22" x="14922" y="241" width="67" height="103.69"/></clipPath><clipPath id="clip-path-7" transform="translate(0 0)"><rect class="cls-22" x="4110.61" y="324.5" width="142.51" height="230.92"/></clipPath><clipPath id="clip-path-9" transform="translate(0 0)"><rect class="cls-22" x="1892" y="315" width="169.05" height="220.06"/></clipPath><clipPath id="clip-path-11" transform="translate(0 0)"><rect class="cls-22" x="3376" y="249" width="249.09" height="228.99"/></clipPath><clipPath id="clip-path-13" transform="translate(0 0)"><rect class="cls-22" x="4922.18" y="324.5" width="142.51" height="230.92"/></clipPath><clipPath id="clip-path-15" transform="translate(0 0)"><rect class="cls-22" x="5084.49" y="324.5" width="142.51" height="230.92"/></clipPath><clipPath id="clip-path-17" transform="translate(0 0)"><rect class="cls-22" x="4759.87" y="324.5" width="142.51" height="230.92"/></clipPath><clipPath id="clip-path-19" transform="translate(0 0)"><rect class="cls-22" x="4597.55" y="324.5" width="142.51" height="230.92"/></clipPath><clipPath id="clip-path-21" transform="translate(0 0)"><rect class="cls-22" x="4435.24" y="324.5" width="142.51" height="230.92"/></clipPath><clipPath id="clip-path-23" transform="translate(0 0)"><rect class="cls-22" x="4272.93" y="324.5" width="142.51" height="230.92"/></clipPath><clipPath id="clip-path-25" transform="translate(0 0)"><rect class="cls-22" x="8244" y="180" width="53.66" height="118.6"/></clipPath><clipPath id="clip-path-27" transform="translate(0 0)"><rect class="cls-22" x="7735" y="217" width="49.02" height="108.35"/></clipPath><clipPath id="clip-path-29" transform="translate(0 0)"><rect class="cls-22" x="6724" y="159" width="45.96" height="101.57"/></clipPath><clipPath id="clip-path-31" transform="translate(0 0)"><rect class="cls-22" x="6963" y="210" width="46.7" height="103.21"/></clipPath><clipPath id="clip-path-33" transform="translate(0 0)"><rect class="cls-22" x="6827" y="214" width="50.39" height="111.37"/></clipPath><clipPath id="clip-path-35" transform="translate(0 0)"><rect class="cls-22" x="6596" y="227" width="64.37" height="142.26"/></clipPath><clipPath id="clip-path-37" transform="translate(0 0)"><rect class="cls-22" x="2674" y="315" width="169.05" height="220.06"/></clipPath><clipPath id="clip-path-39" transform="translate(0 0)"><rect class="cls-22" x="7453" y="52" width="141.44" height="103.93"/></clipPath><clipPath id="clip-path-41" transform="translate(0 0)"><rect class="cls-22" x="2330" y="22" width="330.1" height="172.06"/></clipPath><clipPath id="clip-path-43" transform="translate(0 0)"><rect class="cls-22" x="4108.55" y="125.54" width="70.6" height="29.33"/></clipPath><clipPath id="clip-path-45" transform="translate(0 0)"><rect class="cls-22" x="3125" y="31" width="208.69" height="104.57"/></clipPath><clipPath id="clip-path-47" transform="translate(0 0)"><rect class="cls-22" x="1669" y="144" width="98.79" height="72.59"/></clipPath><clipPath id="clip-path-49" transform="translate(0 0)"><rect class="cls-22" x="3839.43" y="396.41" width="60.7" height="213.59"/></clipPath><clipPath id="clip-path-52" transform="translate(0 0)"><rect class="cls-22" x="3881.69" y="425.37" width="4.41" height="5.34"/></clipPath><clipPath id="clip-path-53" transform="translate(0 0)"><rect class="cls-22" x="3848.44" y="425.37" width="4" height="5.34"/></clipPath><clipPath id="clip-path-54" transform="translate(0 0)"><rect class="cls-22" x="3853.74" y="420.36" width="27.58" height="12.29"/></clipPath><clipPath id="clip-path-55" transform="translate(0 0)"><rect class="cls-22" x="2222" y="441" width="84.09" height="179.9"/></clipPath><clipPath id="clip-path-58" transform="translate(0 0)"><path class="cls-22" d="M2266.06,600.89V620.8c1.18-.12,3-.55,3.84-1.53V600.89Z"/></clipPath><mask id="mask" x="2266.06" y="600.89" width="3.84" height="19.91" maskUnits="userSpaceOnUse"><g transform="translate(0 0)"><rect class="cls-1" x="2266.06" y="600.89" width="3.84" height="19.91"/></g></mask><linearGradient id="Naamloos_verloop_3" x1="5737.38" y1="-161.68" x2="5738.38" y2="-161.68" gradientTransform="matrix(3.84, 0, 0, -3.84, -19767.91, -10.06)" gradientUnits="userSpaceOnUse"><stop offset="0" stop-color="#c0c4c2"/><stop offset="0.38" stop-color="#c0c4c2"/><stop offset="0.51" stop-color="#bcc0be"/><stop offset="0.65" stop-color="#b1b5b3"/><stop offset="0.78" stop-color="#9da19f"/><stop offset="0.91" stop-color="#838684"/><stop offset="1" stop-color="#6a6d6b"/></linearGradient><clipPath id="clip-path-59" transform="translate(0 0)"><path class="cls-22" d="M2258.2,600.89v18.38c.45.8,3.51,1.47,3.84,1.47V600.89Z"/></clipPath><mask id="mask-2" x="2258.2" y="600.89" width="3.84" height="19.85" maskUnits="userSpaceOnUse"><g transform="translate(0 0)"><rect class="cls-2" x="2258.2" y="600.89" width="3.84" height="19.85"/></g></mask><linearGradient id="Naamloos_verloop_3-2" x1="8212.62" y1="-161.68" x2="8213.62" y2="-161.68" gradientTransform="translate(33802 -10.09) rotate(180) scale(3.84)" xlink:href="#Naamloos_verloop_3"/><clipPath id="clip-path-61" transform="translate(0 0)"><path class="cls-22" d="M2260.74,521.06v79.48c.77,1.36,3.51,1.36,3.84,1.36V521.06Z"/></clipPath><mask id="mask-3" x="2260.74" y="521.06" width="3.84" height="80.84" maskUnits="userSpaceOnUse"><g transform="translate(0 0)"><rect class="cls-13" x="2260.74" y="521.06" width="3.84" height="80.84"/></g></mask><linearGradient id="Naamloos_verloop_5" x1="8212.62" y1="-161.68" x2="8213.62" y2="-161.68" gradientTransform="translate(33804.55 -59.42) rotate(180) scale(3.84)" gradientUnits="userSpaceOnUse"><stop offset="0" stop-color="#c0c4c2"/><stop offset="0.13" stop-color="#bebebe"/><stop offset="0.38" stop-color="#bcbbbb"/><stop offset="0.52" stop-color="#b8b7b7"/><stop offset="0.65" stop-color="#acacac"/><stop offset="0.79" stop-color="#999998"/><stop offset="0.92" stop-color="#7d7f7e"/><stop offset="1" stop-color="#6a6d6b"/></linearGradient><clipPath id="clip-path-63" transform="translate(0 0)"><rect class="cls-22" x="5717" y="374" width="315.56" height="247.23"/></clipPath><clipPath id="clip-path-66" transform="translate(0 0)"><path class="cls-22" d="M5760.71,601.22v19.91c1.18-.12,3-.55,3.84-1.53V601.22Z"/></clipPath><mask id="mask-4" x="5760.71" y="601.22" width="3.84" height="19.91" maskUnits="userSpaceOnUse"><g transform="translate(0 0)"><rect class="cls-15" x="5760.71" y="601.22" width="3.84" height="19.91"/></g></mask><linearGradient id="Naamloos_verloop_3-3" x1="6647.43" y1="-161.76" x2="6648.43" y2="-161.76" gradientTransform="matrix(3.84, 0, 0, -3.84, -19768.26, -10.06)" xlink:href="#Naamloos_verloop_3"/><clipPath id="clip-path-67" transform="translate(0 0)"><path class="cls-22" d="M5752.84,601.22V619.6c.46.8,3.51,1.47,3.85,1.47V601.22Z"/></clipPath><mask id="mask-5" x="5752.84" y="601.22" width="3.84" height="19.85" maskUnits="userSpaceOnUse"><g transform="translate(0 0)"><rect class="cls-16" x="5752.84" y="601.22" width="3.84" height="19.85"/></g></mask><linearGradient id="Naamloos_verloop_3-4" x1="7302.57" y1="-161.76" x2="7303.57" y2="-161.76" gradientTransform="translate(33801.65 -10.09) rotate(180) scale(3.84)" xlink:href="#Naamloos_verloop_3"/><clipPath id="clip-path-69" transform="translate(0 0)"><path class="cls-22" d="M5755.39,525.45v75.49c.77,1.29,3.51,1.29,3.84,1.29V525.45Z"/></clipPath><mask id="mask-6" x="5755.39" y="525.45" width="3.84" height="76.78" maskUnits="userSpaceOnUse"><g transform="translate(0 0)"><rect class="cls-17" x="5755.39" y="525.45" width="3.84" height="76.78"/></g></mask><linearGradient id="Naamloos_verloop_5-2" x1="7302.57" y1="-161.76" x2="7303.57" y2="-161.76" gradientTransform="translate(33804.19 -57.39) rotate(180) scale(3.84)" xlink:href="#Naamloos_verloop_5"/><clipPath id="clip-path-71" transform="translate(0 0)"><path class="cls-22" d="M5992.87,601.18v19.91c1.19-.12,3-.55,3.84-1.53V601.18Z"/></clipPath><mask id="mask-7" x="5992.87" y="601.18" width="3.84" height="19.91" maskUnits="userSpaceOnUse"><g transform="translate(0 0)"><rect class="cls-18" x="5992.87" y="601.18" width="3.84" height="19.91"/></g></mask><linearGradient id="Naamloos_verloop_3-5" x1="6647.43" y1="-161.76" x2="6648.43" y2="-161.76" gradientTransform="matrix(3.84, 0, 0, -3.84, -19536.1, -10.1)" xlink:href="#Naamloos_verloop_3"/><clipPath id="clip-path-72" transform="translate(0 0)"><path class="cls-22" d="M5985,601.18v18.38c.46.8,3.51,1.47,3.84,1.47V601.18Z"/></clipPath><mask id="mask-8" x="5985.01" y="601.18" width="3.84" height="19.85" maskUnits="userSpaceOnUse"><g transform="translate(0 0)"><rect class="cls-19" x="5985.01" y="601.18" width="3.84" height="19.85"/></g></mask><linearGradient id="Naamloos_verloop_3-6" x1="7302.57" y1="-161.76" x2="7303.57" y2="-161.76" gradientTransform="translate(34033.82 -10.12) rotate(180) scale(3.84)" xlink:href="#Naamloos_verloop_3"/><clipPath id="clip-path-74" transform="translate(0 0)"><path class="cls-22" d="M5987.55,525.41V600.9c.78,1.29,3.51,1.29,3.84,1.29V525.41Z"/></clipPath><mask id="mask-9" x="5987.55" y="525.41" width="3.84" height="76.78" maskUnits="userSpaceOnUse"><g transform="translate(0 0)"><rect class="cls-20" x="5987.55" y="525.41" width="3.84" height="76.78"/></g></mask><linearGradient id="Naamloos_verloop_5-3" x1="7302.57" y1="-161.76" x2="7303.57" y2="-161.76" gradientTransform="translate(34036.36 -57.43) rotate(180) scale(3.84)" xlink:href="#Naamloos_verloop_5"/><clipPath id="clip-path-76" transform="translate(0 0)"><rect class="cls-22" x="8333" y="444" width="308.85" height="177.38"/></clipPath><clipPath id="clip-path-79" transform="translate(0 0)"><path class="cls-22" d="M8491.28,601.36v19.92c1.19-.12,3-.55,3.84-1.53V601.36Z"/></clipPath><mask id="mask-10" x="8491.28" y="601.37" width="3.84" height="19.91" maskUnits="userSpaceOnUse"><g transform="translate(0 0)"><rect class="cls-21" x="8491.28" y="601.37" width="3.84" height="19.91"/></g></mask><linearGradient id="Naamloos_verloop_3-7" x1="7328.61" y1="-161.8" x2="7329.61" y2="-161.8" gradientTransform="matrix(3.84, 0, 0, -3.84, -19653.68, -10.06)" xlink:href="#Naamloos_verloop_3"/><clipPath id="clip-path-80" transform="translate(0 0)"><path class="cls-22" d="M8483.42,601.36v18.39c.46.79,3.51,1.47,3.84,1.47V601.36Z"/></clipPath><mask id="mask-11" x="8483.42" y="601.36" width="3.84" height="19.85" maskUnits="userSpaceOnUse"><g transform="translate(0 0)"><rect class="cls-3" x="8483.42" y="601.36" width="3.84" height="19.85"/></g></mask><linearGradient id="Naamloos_verloop_3-8" x1="6621.39" y1="-161.8" x2="6622.39" y2="-161.8" gradientTransform="translate(33916.23 -10.09) rotate(180) scale(3.84)" xlink:href="#Naamloos_verloop_3"/><clipPath id="clip-path-82" transform="translate(0 0)"><path class="cls-22" d="M8486,525.6v75.49c.78,1.29,3.52,1.29,3.84,1.29V525.6Z"/></clipPath><mask id="mask-12" x="8485.96" y="525.6" width="3.84" height="76.78" maskUnits="userSpaceOnUse"><g transform="translate(0 0)"><rect class="cls-4" x="8485.96" y="525.6" width="3.84" height="76.78"/></g></mask><linearGradient id="Naamloos_verloop_5-4" x1="6621.39" y1="-161.8" x2="6622.39" y2="-161.8" gradientTransform="translate(33918.77 -57.39) rotate(180) scale(3.84)" xlink:href="#Naamloos_verloop_5"/><clipPath id="clip-path-84" transform="translate(0 0)"><rect class="cls-22" x="11178" y="374" width="315.56" height="247.23"/></clipPath><clipPath id="clip-path-87" transform="translate(0 0)"><path class="cls-22" d="M11221.71,601.22v19.91c1.18-.12,3-.55,3.84-1.53V601.22Z"/></clipPath><mask id="mask-13" x="11221.71" y="601.22" width="3.84" height="19.91" maskUnits="userSpaceOnUse"><g transform="translate(0 0)"><rect class="cls-5" x="11221.71" y="601.22" width="3.84" height="19.91"/></g></mask><linearGradient id="Naamloos_verloop_3-9" x1="8069.41" y1="-161.76" x2="8070.41" y2="-161.76" gradientTransform="matrix(3.84, 0, 0, -3.84, -19768.26, -10.06)" xlink:href="#Naamloos_verloop_3"/><clipPath id="clip-path-88" transform="translate(0 0)"><path class="cls-22" d="M11213.84,601.22V619.6c.46.8,3.51,1.47,3.85,1.47V601.22Z"/></clipPath><mask id="mask-14" x="11213.84" y="601.22" width="3.84" height="19.85" maskUnits="userSpaceOnUse"><g transform="translate(0 0)"><rect class="cls-6" x="11213.84" y="601.22" width="3.84" height="19.85"/></g></mask><linearGradient id="Naamloos_verloop_3-10" x1="5880.59" y1="-161.76" x2="5881.59" y2="-161.76" gradientTransform="translate(33801.65 -10.09) rotate(180) scale(3.84)" xlink:href="#Naamloos_verloop_3"/><clipPath id="clip-path-90" transform="translate(0 0)"><path class="cls-22" d="M11216.39,525.45v75.49c.77,1.29,3.51,1.29,3.84,1.29V525.45Z"/></clipPath><mask id="mask-15" x="11216.39" y="525.45" width="3.84" height="76.78" maskUnits="userSpaceOnUse"><g transform="translate(0 0)"><rect class="cls-7" x="11216.39" y="525.45" width="3.84" height="76.78"/></g></mask><linearGradient id="Naamloos_verloop_5-5" x1="5880.59" y1="-161.76" x2="5881.59" y2="-161.76" gradientTransform="translate(33804.19 -57.39) rotate(180) scale(3.84)" xlink:href="#Naamloos_verloop_5"/><clipPath id="clip-path-92" transform="translate(0 0)"><path class="cls-22" d="M11453.87,601.18v19.91c1.19-.12,3-.55,3.84-1.53V601.18Z"/></clipPath><mask id="mask-16" x="11453.87" y="601.18" width="3.84" height="19.91" maskUnits="userSpaceOnUse"><g transform="translate(0 0)"><rect class="cls-8" x="11453.87" y="601.18" width="3.84" height="19.91"/></g></mask><linearGradient id="Naamloos_verloop_3-11" x1="8069.41" y1="-161.76" x2="8070.41" y2="-161.76" gradientTransform="matrix(3.84, 0, 0, -3.84, -19536.1, -10.1)" xlink:href="#Naamloos_verloop_3"/><clipPath id="clip-path-93" transform="translate(0 0)"><path class="cls-22" d="M11446,601.18v18.38c.46.8,3.51,1.47,3.84,1.47V601.18Z"/></clipPath><mask id="mask-17" x="11446.01" y="601.18" width="3.84" height="19.85" maskUnits="userSpaceOnUse"><g transform="translate(0 0)"><rect class="cls-9" x="11446.01" y="601.18" width="3.84" height="19.85"/></g></mask><linearGradient id="Naamloos_verloop_3-12" x1="5880.59" y1="-161.76" x2="5881.59" y2="-161.76" gradientTransform="translate(34033.82 -10.12) rotate(180) scale(3.84)" xlink:href="#Naamloos_verloop_3"/><clipPath id="clip-path-95" transform="translate(0 0)"><path class="cls-22" d="M11448.55,525.41V600.9c.78,1.29,3.51,1.29,3.84,1.29V525.41Z"/></clipPath><mask id="mask-18" x="11448.55" y="525.41" width="3.84" height="76.78" maskUnits="userSpaceOnUse"><g transform="translate(0 0)"><rect class="cls-10" x="11448.55" y="525.41" width="3.84" height="76.78"/></g></mask><linearGradient id="Naamloos_verloop_5-6" x1="5880.59" y1="-161.76" x2="5881.59" y2="-161.76" gradientTransform="translate(34036.36 -57.43) rotate(180) scale(3.84)" xlink:href="#Naamloos_verloop_5"/><clipPath id="clip-path-97" transform="translate(0 0)"><rect class="cls-22" x="13692" y="444" width="308.85" height="177.38"/></clipPath><clipPath id="clip-path-100" transform="translate(0 0)"><path class="cls-22" d="M13850.28,601.36v19.92c1.19-.12,3-.55,3.84-1.53V601.36Z"/></clipPath><mask id="mask-19" x="13850.28" y="601.37" width="3.84" height="19.91" maskUnits="userSpaceOnUse"><g transform="translate(0 0)"><rect class="cls-11" x="13850.28" y="601.37" width="3.84" height="19.91"/></g></mask><linearGradient id="Naamloos_verloop_3-13" x1="8724.02" y1="-161.8" x2="8725.03" y2="-161.8" gradientTransform="matrix(3.84, 0, 0, -3.84, -19653.68, -10.06)" xlink:href="#Naamloos_verloop_3"/><clipPath id="clip-path-101" transform="translate(0 0)"><path class="cls-22" d="M13842.42,601.36v18.39c.46.79,3.51,1.47,3.84,1.47V601.36Z"/></clipPath><mask id="mask-20" x="13842.42" y="601.36" width="3.84" height="19.85" maskUnits="userSpaceOnUse"><g transform="translate(0 0)"><rect class="cls-12" x="13842.42" y="601.36" width="3.84" height="19.85"/></g></mask><linearGradient id="Naamloos_verloop_3-14" x1="5225.98" y1="-161.8" x2="5226.98" y2="-161.8" gradientTransform="translate(33916.23 -10.09) rotate(180) scale(3.84)" xlink:href="#Naamloos_verloop_3"/><clipPath id="clip-path-103" transform="translate(0 0)"><path class="cls-22" d="M13845,525.6v75.49c.78,1.29,3.52,1.29,3.84,1.29V525.6Z"/></clipPath><mask id="mask-21" x="13844.96" y="525.6" width="3.84" height="76.78" maskUnits="userSpaceOnUse"><g transform="translate(0 0)"><rect class="cls-14" x="13844.96" y="525.6" width="3.84" height="76.78"/></g></mask><linearGradient id="Naamloos_verloop_5-7" x1="5225.98" y1="-161.8" x2="5226.98" y2="-161.8" gradientTransform="translate(33918.77 -57.39) rotate(180) scale(3.84)" xlink:href="#Naamloos_verloop_5"/></defs><g class="cls-23"><g id="achtergrond"><rect id="hemel" class="cls-24" width="15567" height="527"/><rect id="land" class="cls-25" y="359.23" width="15567" height="228.6"/><rect id="water" class="cls-26" x="8556" y="359.31" width="2431" height="227.69"/><g id="heuvels"><path class="cls-27" d="M7471,587.2H8497.35C8580.86,551.65,8711,497,8678,455c-22.57-28.72-54-78.65-122-111-152.18-72.43-444.3-115-559.08-115-166.05,0-649.5,152.12-649.5,270.45C7347.42,533.84,7396.82,563.06,7471,587.2Z" transform="translate(0 0)"/><path class="cls-27" d="M5978.72,587.2H7272.65C7414,549.38,7606.11,488.37,7607,434c2-122-743.82-220-973.12-220S5737,366.1,5737,484.43C5737,526.3,5838,560.49,5978.72,587.2Z" transform="translate(0 0)"/><path class="cls-28" d="M8075.51,587.2c.31-2.17,277.22,2,277.49-.2,5-40.42,114-133.53,134-146,135-84-307-86-455,67-31.23,32.28-310-72.63-519-150-43-18-149-52-220-62-35.7-5-129.72,25.07-186,29-301,21-570.72,163.72-650.95,262.2Z" transform="translate(0 0)"/><path class="cls-25" d="M8775.42,587.2C8749,481.78,8611.41,384,8467.23,384c-154.38,0-401.92,90-407.14,203.2Z" transform="translate(0 0)"/><path class="cls-25" d="M8126.4,587.2C8101.23,471,7663,344,7327,344c-197.17,0-792.08,133.6-909.9,243.2Z" transform="translate(0 0)"/><path class="cls-25" d="M6691.16,587.35C6717.7,569,6733,549.57,6733,529.55c0-118.33-676.43-231.33-911.07-231.33s-917.8,152.12-917.8,270.45c0,6.41,2.42,12.63,7,18.68Z" transform="translate(0 0)"/><path class="cls-27" d="M11488.24,587.33h1770.09c120.3-31.43,165.62-99,204.67-109.48C13967,343,12811.05,263,12537,263s-1210,141.28-1210,251.18C11327,542.26,11390,566.62,11488.24,587.33Z" transform="translate(0 0)"/><path class="cls-28" d="M13895,588c-.27,0-6.62-107.18-179.17-177.09-35.51-16.26-270.78-67.75-298.9-66.86C13041,356,12907,496,12876,588Z" transform="translate(0 0)"/><path class="cls-25" d="M10666.66,587.2H13206c-55.35-25.05-140.26-58.05-262-92.2-365.2-102.49-1322.69-244.29-1497.45-244.29-222.35,0-869.72,152.11-869.72,270.45C10576.83,545.82,10610.83,567.82,10666.66,587.2Z" transform="translate(0 0)"/></g><rect id="stoep" class="cls-29" y="587" width="15567" height="44.28"/><rect id="weg" class="cls-30" y="631.28" width="15567" height="136.72"/><g id="brug"><g class="cls-31"><g class="cls-32"><path class="cls-33" d="M9638.7,151C9076.26,151,8617.85,328,8597,549.42v38.41h2083.4V549.42C10659.55,328,10201.14,151,9638.7,151m958.17,302.74c19.35,26.79,31,54.77,33.85,83.59h-33.85ZM10447.48,335.3c49.42,26,90.13,54.57,120.6,85V537.33h-120.6Zm-149.4-62.54c43.86,14.67,84.23,30.78,120.6,48.11V537.33h-120.6Zm-149.4-41.33c42.36,9.58,82.65,20.31,120.6,32.06V537.33h-120.6Zm-149.4-27.67q62.48,9.21,120.6,21.41V537.33h-120.6Zm-149.4-17.08q61.83,5.1,120.6,13V537.33h-120.6Zm-149.4-8q61.4,1.5,120.6,5.74V537.33h-120.6Zm-149.4.52q41.27-1.29,83.43-1.33,18.67,0,37.17.26V537.33h-120.6Zm-149.4,9q59-5.3,120.6-7.9v357h-120.6Zm-149.4,18.19c39-6.07,79.28-11.23,120.6-15.44V537.33h-120.6Zm-149.4,29.06q57.75-13.66,120.61-24.38V537.33H9102.88Zm-149.4,43.26c37.59-13.19,77.92-25.28,120.61-36.17v294.8H8953.48Zm-149.4,66.06c35.44-19.95,75.87-38.55,120.61-55.55V537.33H8804.08ZM8775.29,362V537.33h-137c6.37-63.86,55.51-123.62,137-175.37" transform="translate(0 0)"/></g></g></g><g id="strand"><path class="cls-34" d="M14946,589c25.86,32.84,23.46,53.39,31,90,7,34,0,89,0,89-.1-.88,590,0,590,0V323l-555-15s-139,4.73-304.18,32c-68.58,11.32-200.28-17-163.82,18C14572.5,385.36,14933.4,573,14946,589Z" transform="translate(0 0)"/><path class="cls-25" d="M12972.29,515c79.71-122,831.63-213,1103.89-213,88.4,0,574.81,40,574.81,40l4.9-3,1.23,12,6.12-5,3.67,14,4.9-11,5.55,7.93,4.24-6.93,1.23,18,4.9-7,5.06,12.18,3.51-9.18,2.45,12,7.34-6,1.23,11,3.67-13,7.35,17,6.12-13,3.67,16,7.35-11,6.12,14,1.23-10,6.12,14,3.67-11,2.45,15,3.67-10,2.45,6V385l4.9,13,2.45-10,4.9,10,3.67-8,3.67,13,2.45-5,2.45,9,2.45-5,3.67,14,4.9-6,2.45,9,3.67-4,1.24,11.41,6.11-3.41-3.67,8h6.12l-2.45,6h4.9l-2.45,6,4.9-1-3.68,6,3.68-2-2.45,7,4.9-2-6.13,8,7.35,2-6.12,1,6.12,2-6.12,3,9.79-1-3.67,3,4.9,1-3.68,5,5.62,2.64-3.17,4.36,4.82,1.7-6,3.3h4.9l-1.23,6,5.2.6,2.15-3.6,2.32,4.11,1.35-2.11,2.45,5,2.45-3,2.45,2,2.45-2,1.22,4,5.67-1.82.45,2.82,3.68-1v4l3.67-4v3l3.67-3,2.45,5,2.45-3,3.68,5,3.67-6,1.22,4,3.91-3.44,3.44,4.44,2.23-3.82L14891,505l3.2-4.32,1.7,6.32,1.45,2.29,3.45-2.29-.61,6.79,3.06-.79-.65,4.61,3.1-.61-3.68,4,4.9-1-.73,3.3,4.4-1.3-3.67,5h3.67l-1.22,2h4.9l-3,4.71,7.89-.71-1.95,5.31,3.18.69-3.67,4,4,1.34-4,3.66,6.42.46-.3,1.54,6.12-1-2.24,5.59L14924,557l7.35-1-2.45,3,3.67,1-3.67,6,6.12-1-1.22,3h2.45l-2.45,4h4.9v2l3.67-1,1.22,6h3.68v4l4.89-4,1.23,6,8.57,3h-9.46l9.46,6-4.3,0,1.85,3-7.35-3,2.45,5-9.45-5,.88,4-4.74-2-3.83,3-1.87-3.9-3,.9-.23-5.92-3.44,2.92-3-5H13196S12961.27,582,12972.29,515Z" transform="translate(0 0)"/><path class="cls-35" d="M15567,323.16,15012,308s54.88,43.77,84.06,50.52c40.52,9.36,75,4.16,99.26,19.75,12.2,7.84,34.4,37.31,43.54,45.76,20.26,18.72,86.09,7.28,115.46,21.84,28.17,14,57.73,53,57.73,53L15567,658Z" transform="translate(0 0)"/><path class="cls-36" d="M15567,323l-530-15s56.89,42.52,84.5,49c38.32,9,70.9,4,93.89,19,11.55,7.53,32.54,35.87,41.2,44,19.16,18,81.43,7,109.22,21,26.65,13.43,54.61,51,54.61,51L15567,645Z" transform="translate(0 0)"/><path class="cls-35" d="M15464,341c19-9.8-43.22-9.51-40,5,4,18,58,6,38,30-26.25,31.5,112-5.57,98,19-4,7,14-17.22,3-18C15492,372,15433,357,15464,341Z" transform="translate(0 0)"/><g id="palm_boom" data-name="palm boom"><g id="palmboom"><g class="cls-37"><g class="cls-37"><path class="cls-38" d="M14855,403.83a327.46,327.46,0,0,1,2.33,37.43c0,9.67-.69,19.24-1.32,28.84-6.89,2.42-13.73,5-20.52,7.58,5.84-20.51,7.34-42.8,8.44-63.7a211.07,211.07,0,0,0-10.64-78.58l.07-.07a.45.45,0,0,1-.11,0c-.25-.75-.49-1.5-.75-2.25a24,24,0,0,1,2.89,2.26.46.46,0,0,0,.75-.38c-.15-1.72-.34-3.44-.51-5.16.78.41,1.58.78,2.39,1.11,7,24.15,14,47.84,17,72.95" transform="translate(0 0)"/><path class="cls-39" d="M14856.17,286.78a41.68,41.68,0,0,0-19.55,26.82l-.39,1.91.67-.69c9.61-9.61,27.26-14.17,40.06-11.42,7.4,1.59,13,6.21,16.75,12.72a59.29,59.29,0,0,1,5.42,13.24,45.91,45.91,0,0,0-22.45-11.54c-12.34-2.58-23.3-2.44-34,2.88l-2.08,1.09,2.47-.28a25.57,25.57,0,0,1,23.22,11.47c4.23,6.22,6.94,13,7.06,20.16-7.55-11.93-20.25-20.48-34.47-21.8a1.22,1.22,0,0,1-.07-.17l-.59-1.33-.59-.24c-.81-.35-1.61-.73-2.39-1.15a.5.5,0,0,0-.71.49c.17,1.68.34,3.36.57,5a15.28,15.28,0,0,0-2.88-1.69l-.44-.17.19.62.66,2.25c-8.59,6.32-16.67,15-21.4,24.47-3.41,6.82-5,14.62-5.63,22.44a19.29,19.29,0,0,1-1.55-3c-2.51-6.34-2.72-13.8-1.64-20.47,1.75-10.76,7.17-19.13,14.52-26.38l2.89-2.71-1.79.33c-10.45,2.06-20.52,6.11-28.43,13.44-6.8,6.29-11.42,14.05-15.07,22.33-1.26-11,.67-22,8.64-31,9.91-11.23,28-17.67,42.73-13.34l1.11.36-.49-1c-5.35-9.85-17.5-14.8-28.3-15.83a51,51,0,0,0-32.24,8.15c6.7-12.07,16.86-21.13,31.81-22.19,7.86-.56,16.67,1.12,22.76,6.41a28.32,28.32,0,0,1,7.94,12.56l.51,1.59.36-2.29c.82-5.23,1.8-10.44,4-15.31a35.62,35.62,0,0,1,16.33-17c11.23-5.81,25.64-6.69,37.06-1.13a85.61,85.61,0,0,0-30.58,11.41" transform="translate(0 0)"/><path class="cls-40" d="M14821.54,300.34c-5.81-6-14.77-8.6-22.94-8.26-9.2.37-16.42,4.72-22.75,11.13-.16.17.1.46.29.3,11.41-9.55,33-13.29,44.88-2.55.4.35.88-.26.52-.62" transform="translate(0 0)"/><path class="cls-40" d="M14810.12,342.34a47,47,0,0,0-6.31,33.93.22.22,0,0,0,.44,0,75.8,75.8,0,0,1,6.16-33.77.16.16,0,0,0-.29-.13" transform="translate(0 0)"/><path class="cls-40" d="M14855.65,324.57c-3.61-1.55-8.51-2.94-12.29-1.42-.29.12-.22.6.12.56,7.47-.86,16.79,4.4,21.83,9.53.24.24.63-.13.43-.4a24,24,0,0,0-10.09-8.27" transform="translate(0 0)"/><path class="cls-40" d="M14843.5,310.58c-.14.06-.11.32.06.29,15.16-3.22,34.31-8.1,46.38,5,.14.15.39-.08.26-.25-11.39-15.34-31.36-11.34-46.7-5.06" transform="translate(0 0)"/><path class="cls-40" d="M14876.36,274.06c-20-4.4-38.39,8.15-44.28,27.23-.07.22.29.34.38.13,7.17-17.95,25-27.61,43.87-26.75.36,0,.36-.54,0-.61" transform="translate(0 0)"/></g></g></g></g><g id="palmboom-2" data-name="palmboom"><g class="cls-41"><g class="cls-41"><path class="cls-38" d="M14944.21,307.53a162.44,162.44,0,0,0-1.18,18.83c0,4.87.35,9.69.67,14.52,3.46,1.21,6.91,2.5,10.32,3.81-2.94-10.32-3.69-21.54-4.24-32.06a106,106,0,0,1,5.35-39.54l0,0h0c.13-.38.25-.76.38-1.14a13.32,13.32,0,0,0-1.46,1.14.23.23,0,0,1-.37-.19c.07-.87.17-1.73.25-2.59a13,13,0,0,1-1.2.55c-3.54,12.15-7,24.08-8.54,36.72" transform="translate(0 0)"/><path class="cls-39" d="M14943.62,248.62a21,21,0,0,1,9.84,13.5l.2,1-.34-.35c-4.84-4.84-13.72-7.13-20.16-5.74a12.63,12.63,0,0,0-8.43,6.4,29.44,29.44,0,0,0-2.73,6.66,23.11,23.11,0,0,1,11.3-5.81c6.21-1.3,11.73-1.22,17.1,1.45l1.05.55-1.25-.14a12.86,12.86,0,0,0-11.68,5.77A18.7,18.7,0,0,0,14935,282a23.47,23.47,0,0,1,17.35-11,.2.2,0,0,0,0-.08l.3-.67.29-.12c.41-.18.81-.37,1.2-.58a.25.25,0,0,1,.36.25c-.08.84-.17,1.69-.28,2.53a7.78,7.78,0,0,1,1.44-.85l.22-.09-.09.32-.33,1.13a36.09,36.09,0,0,1,10.76,12.31,30.51,30.51,0,0,1,2.84,11.3,10,10,0,0,0,.78-1.53,19.92,19.92,0,0,0,.82-10.3c-.87-5.42-3.6-9.63-7.3-13.28l-1.46-1.36.9.17a28.84,28.84,0,0,1,14.31,6.76,33.16,33.16,0,0,1,7.59,11.24c.63-5.56-.34-11.09-4.35-15.63-5-5.65-14.09-8.89-21.51-6.71l-.56.18.25-.49c2.69-5,8.81-7.45,14.24-8a25.76,25.76,0,0,1,16.23,4.1c-3.37-6.07-8.49-10.63-16-11.17-3.95-.28-8.39.57-11.45,3.23a14.28,14.28,0,0,0-4,6.33l-.26.79-.18-1.15a29.89,29.89,0,0,0-2-7.71,17.93,17.93,0,0,0-8.22-8.54c-5.65-2.93-12.9-3.37-18.65-.57a43,43,0,0,1,15.39,5.74" transform="translate(0 0)"/><path class="cls-40" d="M14961.05,255.44c2.92-3,7.43-4.32,11.55-4.16,4.62.19,8.26,2.38,11.44,5.61.08.08-.05.23-.14.15-5.75-4.8-16.61-6.69-22.59-1.29-.2.18-.44-.12-.26-.31" transform="translate(0 0)"/><path class="cls-40" d="M14966.79,276.58a23.68,23.68,0,0,1,3.18,17.08.11.11,0,0,1-.22,0,38.19,38.19,0,0,0-3.1-17,.08.08,0,1,1,.14-.07" transform="translate(0 0)"/><path class="cls-40" d="M14943.88,267.64c1.82-.78,4.28-1.48,6.19-.71.14.05.11.3-.06.28-3.76-.44-8.45,2.21-11,4.79-.12.12-.32-.06-.22-.2a12.12,12.12,0,0,1,5.08-4.16" transform="translate(0 0)"/><path class="cls-40" d="M14950,260.6c.07,0,0,.16,0,.14-7.63-1.62-17.27-4.07-23.34,2.53-.07.08-.2,0-.14-.12,5.74-7.72,15.79-5.71,23.51-2.55" transform="translate(0 0)"/><path class="cls-40" d="M14933.46,242.22c10.08-2.21,19.32,4.1,22.28,13.7,0,.11-.14.17-.19.07-3.61-9-12.56-13.9-22.07-13.47-.18,0-.18-.27,0-.3" transform="translate(0 0)"/></g></g></g></g></g><g id="huizen"><polygon id="dak" class="cls-42" points="3310.47 333.63 3282.85 285.75 3255.23 237.87 3255.19 237.93 3255.19 237.87 3090.98 237.87 3090.98 237.93 3063.36 285.73 3035.71 333.58 3090.98 333.61 3090.98 333.63 3255.19 333.63 3255.19 333.61 3255.19 333.61 3310.47 333.63"/><rect id="muur" class="cls-43" x="3046.12" y="334.47" width="256.88" height="117.57"/><rect id="deur" class="cls-44" x="3150.98" y="384.15" width="44.22" height="67.9"/><g id="raam"><rect class="cls-45" x="3229.95" y="378.71" width="43.69" height="45.58"/><rect class="cls-46" x="3233.16" y="402.41" width="18.56" height="19.09"/><rect class="cls-46" x="3252.98" y="402.41" width="17.36" height="19.09"/><rect class="cls-46" x="3233.16" y="381.96" width="18.56" height="19.09"/><rect class="cls-46" x="3252.98" y="381.96" width="17.36" height="19.09"/></g><g id="raam-2" data-name="raam"><path class="cls-45" d="M3097.25,293.75h32.91a9.5,9.5,0,0,1,9.5,9.5v42.41a0,0,0,0,1,0,0h-51.91a0,0,0,0,1,0,0V303.25A9.5,9.5,0,0,1,3097.25,293.75Z"/><rect class="cls-46" x="3092.32" y="322.48" width="21.6" height="22.22"/><rect class="cls-46" x="3115.4" y="322.48" width="20.2" height="22.22"/><rect class="cls-46" x="3092.32" y="298.68" width="21.6" height="22.22"/><rect class="cls-46" x="3115.4" y="298.68" width="20.2" height="22.22"/></g><g id="raam-3" data-name="raam"><path class="cls-45" d="M3216.7,293.75h32.91a9.5,9.5,0,0,1,9.5,9.5v42.41a0,0,0,0,1,0,0H3207.2a0,0,0,0,1,0,0V303.25A9.5,9.5,0,0,1,3216.7,293.75Z"/><rect class="cls-46" x="3211.78" y="322.48" width="21.6" height="22.22"/><rect class="cls-46" x="3234.85" y="322.48" width="20.2" height="22.22"/><rect class="cls-46" x="3211.78" y="298.68" width="21.6" height="22.22"/><rect class="cls-46" x="3234.85" y="298.68" width="20.2" height="22.22"/></g><g id="raam-4" data-name="raam"><rect class="cls-45" x="3071.7" y="377.09" width="43.69" height="45.58"/><rect class="cls-46" x="3074.91" y="400.79" width="18.56" height="19.09"/><rect class="cls-46" x="3094.74" y="400.79" width="17.36" height="19.09"/><rect class="cls-46" x="3074.91" y="380.34" width="18.56" height="19.09"/><rect class="cls-46" x="3094.74" y="380.34" width="17.36" height="19.09"/></g><polygon id="dak-2" data-name="dak" class="cls-42" points="3965.3 334.33 3937.68 286.45 3910.07 238.57 3910.03 238.64 3910.03 238.57 3745.82 238.57 3745.82 238.64 3718.2 286.43 3690.55 334.29 3745.82 334.31 3745.82 334.33 3910.03 334.33 3910.03 334.31 3910.03 334.31 3965.3 334.33"/><rect id="muur-2" data-name="muur" class="cls-43" x="3700.96" y="335.18" width="256.88" height="117.57"/><rect id="deur-2" data-name="deur" class="cls-44" x="3805.81" y="384.85" width="44.22" height="67.9"/><g id="raam-5" data-name="raam"><rect class="cls-45" x="3884.79" y="379.42" width="43.69" height="45.58"/><rect class="cls-46" x="3887.99" y="403.11" width="18.56" height="19.09"/><rect class="cls-46" x="3907.82" y="403.11" width="17.36" height="19.09"/><rect class="cls-46" x="3887.99" y="382.66" width="18.56" height="19.09"/><rect class="cls-46" x="3907.82" y="382.66" width="17.36" height="19.09"/></g><g id="raam-6" data-name="raam"><path class="cls-45" d="M3752.08,294.46H3785a9.5,9.5,0,0,1,9.5,9.5v42.41a0,0,0,0,1,0,0h-51.91a0,0,0,0,1,0,0V304A9.5,9.5,0,0,1,3752.08,294.46Z"/><rect class="cls-46" x="3747.16" y="323.19" width="21.6" height="22.22"/><rect class="cls-46" x="3770.23" y="323.19" width="20.2" height="22.22"/><rect class="cls-46" x="3747.16" y="299.39" width="21.6" height="22.22"/><rect class="cls-46" x="3770.23" y="299.39" width="20.2" height="22.22"/></g><g id="raam-7" data-name="raam"><path class="cls-45" d="M3871.54,294.46h32.91a9.5,9.5,0,0,1,9.5,9.5v42.41a0,0,0,0,1,0,0H3862a0,0,0,0,1,0,0V304A9.5,9.5,0,0,1,3871.54,294.46Z"/><rect class="cls-46" x="3866.61" y="323.19" width="21.6" height="22.22"/><rect class="cls-46" x="3889.69" y="323.19" width="20.2" height="22.22"/><rect class="cls-46" x="3866.61" y="299.39" width="21.6" height="22.22"/><rect class="cls-46" x="3889.69" y="299.39" width="20.2" height="22.22"/></g><g id="raam-8" data-name="raam"><rect class="cls-45" x="3726.54" y="377.8" width="43.69" height="45.58"/><rect class="cls-46" x="3729.75" y="401.49" width="18.56" height="19.09"/><rect class="cls-46" x="3749.57" y="401.49" width="17.36" height="19.09"/><rect class="cls-46" x="3729.75" y="381.04" width="18.56" height="19.09"/><rect class="cls-46" x="3749.57" y="381.04" width="17.36" height="19.09"/></g><path class="cls-47" d="M3147.41,452h50.72c-10.94,30.5,36.72,135.8,36.72,135.8H3125.49S3125.49,510.38,3147.41,452Z" transform="translate(0 0)"/><path class="cls-47" d="M3802.3,452.75H3853c44.25,40.62,50.05,135.79,50.05,135.79H3787.72S3823.5,523.86,3802.3,452.75Z" transform="translate(0 0)"/></g><g id="bomen_nl" data-name="bomen nl"><g id="boom_5" data-name="boom 5"><g class="cls-48"><g class="cls-48"><path class="cls-49" d="M4253.12,470.92c0,31.67-39.54,32.15-69.3,32.15s-73.21-8.73-73.21-40.41S4157,324.5,4186.75,324.5s66.37,114.74,66.37,146.42" transform="translate(0 0)"/><path class="cls-50" d="M4214,456.26c11,.5,23-11.13,21.91-22.32-.2-2.11-3.51-2.12-3.3,0,.92,9.44-9.14,19.26-18.42,19,.28-5.78.26-11.59,0-17.36-.13-2.58.14-8.23-2.65-9.7-1.88-1-3.56,1.86-1.67,2.86,1.55.82,1.09,8.54,1.14,10.12.1,2.91.09,5.83,0,8.74-5-.05-8-4.68-9.48-9.15-.65-2-3.84-1.16-3.19.88,1.86,5.77,6.09,11.62,12.59,11.59,0,1.12-.08,2.25-.13,3.38-.65,14.64-8,26.92-22,31.91.06-1.84.11-3.68.11-5.5,0-24.86,3.3-54.78-5.58-77.85-4.28,16.5-3.75,36.74-5.3,54.24h0c-17.84-1.07-22.49-16.61-24-32.37,0,0,0,0,0-.06-.72-7.24-.78-14.53-1.18-20.49-.14-2.11-3.44-2.13-3.3,0,.37,5.53.55,11.9,1.11,18.32-4.28-1.58-8.11-4-10-8.41-.85-2-3.7-.27-2.86,1.67,2.43,5.58,7.71,8.54,13.24,10.35,1,9.11,3.14,18,7.92,24.48-4.35,2.86-9.9,2.56-14.75,1.17-2.06-.59-2.92,2.6-.88,3.19,5.8,1.66,12.68,1.89,17.78-1.8,3.91,4,9.27,6.72,16.69,7.21-2.49,28.57,2.27,62.75-6.48,89.87,0,0,4.69,3.88,6.61,4.4,2.51.69,8.33,1.8,8.65-1.26.88-8.57,1-42.38,2.12-63.64a37.19,37.19,0,0,0,10.86-5.58,1.52,1.52,0,0,0,.39.16A21.11,21.11,0,0,0,4222,474.05a1.66,1.66,0,0,0-2.86-1.67,17.71,17.71,0,0,1-16.29,9,36.92,36.92,0,0,0,11.06-24.28,7.43,7.43,0,0,0,.09-.81" transform="translate(0 0)"/></g></g></g><g id="boom_3" data-name="boom 3"><g class="cls-51"><g class="cls-51"><path class="cls-52" d="M2003.29,438.66c10.7.49,22.36-10.82,21.3-21.7-.2-2-3.42-2.07-3.21,0,.89,9.18-8.89,18.72-17.91,18.49.27-5.62.26-11.27,0-16.88-.12-2.5.14-8-2.56-9.43-1.83-1-3.46,1.81-1.62,2.78,1.5.79,1,8.3,1.1,9.83.1,2.83.09,5.67,0,8.5-4.88-.05-7.81-4.55-9.22-8.9-.64-2-3.74-1.12-3.1.86,1.82,5.6,5.91,11.29,12.24,11.26,0,1.1-.08,2.19-.13,3.28-.64,14.24-7.81,26.17-21.38,31,.06-1.79.1-3.57.1-5.34,0-24.17,3.21-53.25-5.41-75.7-4.18,16-3.66,35.73-5.16,52.74h0c-17.35-1-21.86-16.14-23.37-31.46,0,0,0,0,0-.07-.69-7-.75-14.12-1.14-19.91-.13-2-3.35-2.07-3.21,0,.36,5.37.53,11.57,1.08,17.81-4.15-1.54-7.88-3.88-9.74-8.17-.83-1.89-3.59-.26-2.77,1.62,2.36,5.43,7.49,8.3,12.87,10.07,1,8.86,3.06,17.51,7.71,23.8-4.24,2.78-9.64,2.49-14.35,1.15a1.61,1.61,0,0,0-.85,3.1c5.64,1.61,12.33,1.84,17.28-1.76,3.81,3.92,9,6.52,16.24,7-2.42,27.78,2.2,61-6.3,87.37,0,0,4.56,3.78,6.43,4.28,2.44.67,8.1,1.75,8.4-1.23.86-8.33,1-41.19,2.06-61.87a36,36,0,0,0,10.56-5.42,2.15,2.15,0,0,0,.38.15,20.5,20.5,0,0,0,21.51-10,1.61,1.61,0,0,0-2.78-1.62,17.25,17.25,0,0,1-15.84,8.72,36,36,0,0,0,10.76-23.61c0-.26,0-.52,0-.78" transform="translate(0 0)"/><path class="cls-53" d="M2061,389.79c-.17-4.76-.84-6.07-2.73-10.28a19,19,0,0,0-3.51-4.67,16,16,0,0,0-3.36-2.81,18.56,18.56,0,0,0-3.84-20.7l-1.33-1.33a18.72,18.72,0,0,0-13.18-5.46c-.27,0-.53,0-.8,0a18.84,18.84,0,0,0-17.84-13.35,18.25,18.25,0,0,0-3.48.34c0-8.27-5.28-16.57-16-16.57a15.26,15.26,0,0,0-11.44,4.6,16.46,16.46,0,0,0-23.3.47,16.51,16.51,0,0,0-23.2-.6A16.22,16.22,0,0,0,1920.64,334,18.63,18.63,0,0,0,1904,352.52v1.34a18.43,18.43,0,0,0,.71,5,18.53,18.53,0,0,0-4.7,32.82,18.46,18.46,0,0,0-4,11.41,18.84,18.84,0,0,0,14.76,18.21,18.07,18.07,0,0,0-1.45,7.08,18.84,18.84,0,0,0,14,18,18.84,18.84,0,0,0,18,13.95,18.26,18.26,0,0,0,2.67-.22c0,.07,0,.14,0,.22A18.81,18.81,0,0,0,1962.55,479a18.4,18.4,0,0,0,11.53-4.11,18.2,18.2,0,0,0,7.1,1.45,18.61,18.61,0,0,0,13.91-6.37,18.55,18.55,0,0,0,6.05,1.05,28.79,28.79,0,0,0,23.76-18.71l.07-.06a18.79,18.79,0,0,0,4-5.94A18.55,18.55,0,0,0,2042,432.17l.1-.08a19.44,19.44,0,0,0,4.21-6.3,18.8,18.8,0,0,0,12.06-17.36,18.19,18.19,0,0,0-1.42-7,18.09,18.09,0,0,0,4.08-11.62" transform="translate(0 0)"/></g></g></g><g id="boom_2" data-name="boom 2"><g class="cls-54"><g class="cls-54"><path class="cls-55" d="M3470.7,477.85h68.07c-14-11.23-22-28-25-45.64-2.68-16.07-4.37-40.81,7.95-53.62,7.3-7.58,17.81-6.87,27.45-6.38a99.21,99.21,0,0,0,25.8-1.62c14.27-3,28.61-10.13,31.83-25.57a1.08,1.08,0,0,0-2.09-.57c-5.69,21.51-31,22.8-50.82,22.25a23.71,23.71,0,0,0,5.24-3.06c6.8-5.35,8.37-14.47,16.47-18.56a.48.48,0,0,0-.37-.87c-6.08,1.73-9.59,6.77-14,10.94-7.25,6.82-15.46,8.39-25,9.71-7.56,1.06-15,2.27-21.68,6.25a25.12,25.12,0,0,0-3.09,2.21c-2.79-7.92-4.51-15.46-.19-23.81,4.64-9,12.91-13.15,22.43-15,11.39-2.2,22.5-4.15,27.39-15.93.28-.68-.74-1-1.11-.47-6.19,8.62-18.37,9-27.83,10.81-.46.08-.91.19-1.37.29.64-.71,1.28-1.43,1.86-2.21,5.54-7.36,6.45-16.23,7.86-25,.08-.48-.62-.7-.74-.21-2.81,11.49-8.33,21.05-17.91,28.12-6.23,4.59-13.25,8.61-17.59,15.26s-5,14.46-4.71,22.2c.13,3,.25,5.79.32,8.55l-1.63-1.66c-7.62-7.69-16.05-14.79-21.13-24.56-6.35-12.2-3.05-21.8,4.38-32.27,5.09-7.18,8.83-14.77,7.75-23.78-.09-.73-1.22-.78-1.19,0,.49,12.26-11.73,19.36-17.18,29.16a28.48,28.48,0,0,0-2.7,20.85c-9.13-10.84-17.25-22.51-19.42-36.3-.07-.45-.81-.34-.79.1,1,21.11,12,36.39,25.4,51.94,2.59,3,5.14,6,7.61,9.09.24,1.18.55,2.36.86,3.52a16.75,16.75,0,0,0-1.34-1.19c-3.43-2.74-6.43-5.29-10.49-6.63-2.19-1.32-5-1.61-7.55-2.4-19.21-6-40.83,8.48-55.5-10.65a1,1,0,0,0-1.79.75c2.21,11,15.67,14,25.28,14.09,2.7,0,5.4-.17,8.1-.39l-.32.16c-5.37,3-10,7.08-15.42,10a87.45,87.45,0,0,1-20.35,8,.33.33,0,0,0,.09.64,56.55,56.55,0,0,0,24.87-6.24c9.87-5.19,18.1-12.74,30.11-10.76a33.29,33.29,0,0,1,16.22,7.79,42.1,42.1,0,0,1,6.7,9.67c8,15.92,7.55,36.55,5.27,53.84a88.82,88.82,0,0,1-15,39.19" transform="translate(0 0)"/><path class="cls-56" d="M3485.87,438.8c2.28-17.3,2.75-37.92-5.28-53.84a41.54,41.54,0,0,0-6.69-9.67,33.39,33.39,0,0,0-16.22-7.8c-12-2-20.24,5.58-30.11,10.77a56.4,56.4,0,0,1-24.87,6.23.26.26,0,0,1-.25-.14c5.63-1.18,16.73-4.24,20.69-6.17,5.36-2.61,19.25-12.62,19.25-12.62h-3.82l-.61.19c-2.45.19-4.91.36-7.36.33-9.61-.08-23.07-3.1-25.28-14.08a1,1,0,0,1,.28-.95c1.78,3.7,4.86,8.09,9.84,9.94,9.22,3.44,21.73,2.89,28.33,2.07s16.91.27,23.37,3.3,17.32,11,17.32,11l-2.47-5.24c-.31-1.15-2.12-3-2.89-4.38-2.62-4.26-3-5.22-5.58-8.22-13.4-15.55-24.38-30.83-25.4-51.94a.4.4,0,0,1,.68-.26,37.19,37.19,0,0,0,2.8,13.82c4.68,11,20.49,31.06,20.49,31.06l-3.76-8.43a28.49,28.49,0,0,1,2.7-20.85c5.45-9.79,17.67-16.9,17.18-29.15a.5.5,0,0,1,.36-.54c-.78,6.84-2.55,15.69-6.59,20.34-7.15,8.25-12,18.43-11.51,26.12s8.69,20.86,13.71,26.4c6.6,7.29,15.64,23.54,15.77,31.38.1,5.4-7.2,52.76-1.45,67.33a134.29,134.29,0,0,0,6.19,13.2h-33.85a89.06,89.06,0,0,0,15-39.19m18.68-71.62c-.66-6.74.67-14.16,4.66-22.13s17.73-16.09,23.09-21.31c3.92-3.82,6.29-15.32,7.29-21.25-2.86,11.17-8.35,20.47-17.72,27.39-6.23,4.59-13.25,8.61-17.59,15.26s-5,14.46-4.71,22.2c.13,3,.25,5.79.32,8.55l4.8,6.83a118.27,118.27,0,0,0-.14-15.54m100.19-22.73c-5.69,21.51-31,22.8-50.82,22.25l-5.26,1.72s23.37,1.37,31.35-.83,18.7-9.62,21.86-13.47c2.24-2.74,3.82-7.62,4.54-10.21a1,1,0,0,0-1.67.54m-73.94-15.23-4,3.59s19.25-3,24.47-5.91c3.62-2,7.69-6.23,9.86-8.65a.66.66,0,0,0-1.13-.13c-6.19,8.62-18.37,9-27.82,10.81-.47.08-.92.19-1.38.29m37.93,20.64c1.75-2.25,4.68-3.93,7.12-5.05a.5.5,0,0,0-.59-.6c-6.08,1.73-9.59,6.77-14,10.94-7.25,6.82-15.46,8.39-25,9.71-7.57,1.06-15,2.27-21.69,6.25a25.9,25.9,0,0,0-3.09,2.21,17.38,17.38,0,0,1,.34,8.43c4.81-12.23,34.51-15.94,39.59-16.91s14-10.72,17.32-15" transform="translate(0 0)"/><path class="cls-57" d="M3613.17,333.1a32.12,32.12,0,0,0-7-4.48c6.32-12.58,1.66-29.35-10.29-37.73-7.61-5.33-17.15-6.49-25.9-4.31a12.57,12.57,0,0,0-7.66-9.67,13.28,13.28,0,0,0-9.18-.27c-3-11.16-9.67-21-20.83-25.5-12.7-5.16-26.06-.43-35.92,8.3-4.82-5.09-11-8.51-18.07-5.95a25.33,25.33,0,0,0-14,12.54c-9.39-2.95-20.41-1.41-27.67,5.16-9.16,8.29-13.36,19.64-14.07,31.42-3.49-2-7.39-2.33-11.24.63-5.05,3.88-5.35,9.74-3.53,15.14a8,8,0,0,0-.84-.11c-7.51-.38-15.48,5.46-20,10.93a29.67,29.67,0,0,0-4,31.33c-12.21,14.39-8.18,38.45,9.33,46.89,12.11,5.83,26.83,4.79,37.15-2.33a21.92,21.92,0,0,0,10.28,10.24c7.77,3.61,15,.7,19.44-5.13,2,8.58,14.52,12.4,22.35,11.76,6.37-.53,11.79-4,16-8.66,7.35,5.06,17.34,6.95,26,5.82a29.89,29.89,0,0,0,18.56-10.71,7.75,7.75,0,0,0,8.2,4.52,11.45,11.45,0,0,0,8.3-6.63,30.58,30.58,0,0,0,21.49,1.76,27,27,0,0,0,14.1-11.05,22.42,22.42,0,0,0,7.21-1.2c12.25-4.14,21-17.87,23.07-30.07a35.35,35.35,0,0,0-11.4-32.64" transform="translate(0 0)"/><path class="cls-58" d="M3624.57,365.74a36.49,36.49,0,0,0,.46-4.16c-8.35,9.1-23.37,3.54-23.37,3.54s-4.33,18.15-25.8,17.86-26.32-32.16-26.32-32.16-7.24,21.12-25.7,12.15-18.47-32-18.47-32-6.48,12.67-19.86,13.19-20.38-23.06-20.38-23.06-22.33,6.59-28.54-17.88c-4.12-16.25,6.75-30.43,14.84-38.45a26.41,26.41,0,0,0-14.74,6.39c-9.16,8.3-13.36,19.64-14.07,31.42-3.49-2-7.39-2.33-11.24.63-5.05,3.88-5.35,9.74-3.53,15.14a8,8,0,0,0-.84-.11c-7.51-.38-15.48,5.46-20,10.93a29.67,29.67,0,0,0-4,31.33c-12.21,14.39-8.18,38.45,9.33,46.89,12.1,5.83,26.83,4.79,37.15-2.33a21.92,21.92,0,0,0,10.28,10.24c7.77,3.61,15,.7,19.44-5.13,2,8.58,14.52,12.4,22.35,11.76,6.37-.53,11.79-4,16-8.66,7.35,5.06,17.34,6.95,26,5.82a29.89,29.89,0,0,0,18.56-10.71,7.75,7.75,0,0,0,8.2,4.52,11.47,11.47,0,0,0,8.3-6.63c6.61,3.29,15.4,3.77,21.49,1.76a27,27,0,0,0,14.1-11.05,22.42,22.42,0,0,0,7.21-1.2c12.25-4.13,21-17.87,23.07-30.07" transform="translate(0 0)"/></g></g></g><g id="boom_5-2" data-name="boom 5"><g class="cls-59"><g class="cls-59"><path class="cls-49" d="M5064.69,470.92c0,31.67-39.55,32.15-69.3,32.15s-73.21-8.73-73.21-40.41,46.38-138.16,76.14-138.16,66.37,114.74,66.37,146.42" transform="translate(0 0)"/><path class="cls-50" d="M5025.54,456.26c11,.5,23-11.13,21.91-22.32-.2-2.11-3.51-2.12-3.3,0,.91,9.44-9.14,19.26-18.42,19,.28-5.78.25-11.59,0-17.36-.13-2.58.14-8.23-2.64-9.7-1.89-1-3.56,1.86-1.67,2.86,1.54.82,1.08,8.54,1.14,10.12.1,2.91.08,5.83,0,8.74-5-.05-8-4.68-9.48-9.15-.65-2-3.84-1.16-3.19.88,1.86,5.77,6.09,11.62,12.58,11.59,0,1.12-.08,2.25-.13,3.38-.65,14.64-8,26.92-22,31.91.07-1.84.12-3.68.12-5.5,0-24.86,3.29-54.78-5.58-77.85-4.29,16.5-3.75,36.74-5.31,54.24h0c-17.84-1.07-22.49-16.61-24-32.37,0,0,0,0,0-.06-.71-7.24-.77-14.53-1.17-20.49-.14-2.11-3.45-2.13-3.31,0,.38,5.53.55,11.9,1.12,18.32-4.28-1.58-8.11-4-10-8.41-.86-2-3.7-.27-2.86,1.67,2.42,5.58,7.71,8.54,13.23,10.35,1.05,9.11,3.14,18,7.93,24.48-4.35,2.86-9.91,2.56-14.75,1.17-2.06-.59-2.93,2.6-.89,3.19,5.81,1.66,12.69,1.89,17.78-1.8,3.92,4,9.28,6.72,16.7,7.21-2.49,28.57,2.27,62.75-6.49,89.87,0,0,4.7,3.88,6.61,4.4,2.52.69,8.34,1.8,8.66-1.26.88-8.57,1-42.38,2.12-63.64a37.19,37.19,0,0,0,10.86-5.58,1.38,1.38,0,0,0,.39.16,21.11,21.11,0,0,0,22.12-10.28,1.66,1.66,0,0,0-2.86-1.67,17.73,17.73,0,0,1-16.3,9,36.93,36.93,0,0,0,11.07-24.28,7.43,7.43,0,0,0,.09-.81" transform="translate(0 0)"/></g></g></g><g id="boom_5-3" data-name="boom 5"><g class="cls-60"><g class="cls-60"><path class="cls-49" d="M5227,470.92c0,31.67-39.54,32.15-69.3,32.15s-73.21-8.73-73.21-40.41,46.39-138.16,76.14-138.16S5227,439.24,5227,470.92" transform="translate(0 0)"/><path class="cls-50" d="M5187.85,456.26c11,.5,23-11.13,21.91-22.32-.2-2.11-3.51-2.12-3.3,0,.92,9.44-9.14,19.26-18.42,19,.28-5.78.26-11.59,0-17.36-.13-2.58.14-8.23-2.65-9.7-1.88-1-3.56,1.86-1.67,2.86,1.55.82,1.09,8.54,1.14,10.12.1,2.91.09,5.83,0,8.74-5-.05-8-4.68-9.48-9.15-.65-2-3.84-1.16-3.19.88,1.86,5.77,6.09,11.62,12.59,11.59,0,1.12-.08,2.25-.13,3.38-.65,14.64-8,26.92-22,31.91.06-1.84.11-3.68.11-5.5,0-24.86,3.3-54.78-5.58-77.85-4.28,16.5-3.75,36.74-5.3,54.24h0c-17.84-1.07-22.49-16.61-24-32.37,0,0,0,0,0-.06-.72-7.24-.78-14.53-1.18-20.49-.14-2.11-3.44-2.13-3.3,0,.37,5.53.55,11.9,1.11,18.32-4.28-1.58-8.11-4-10-8.41-.85-2-3.7-.27-2.86,1.67,2.43,5.58,7.71,8.54,13.24,10.35,1,9.11,3.14,18,7.92,24.48-4.35,2.86-9.9,2.56-14.75,1.17-2.06-.59-2.92,2.6-.88,3.19,5.8,1.66,12.68,1.89,17.78-1.8,3.91,4,9.27,6.72,16.69,7.21-2.49,28.57,2.27,62.75-6.48,89.87,0,0,4.69,3.88,6.61,4.4,2.51.69,8.33,1.8,8.65-1.26.88-8.57,1-42.38,2.12-63.64a37.19,37.19,0,0,0,10.86-5.58,1.52,1.52,0,0,0,.39.16,21.11,21.11,0,0,0,22.12-10.28,1.66,1.66,0,0,0-2.86-1.67,17.71,17.71,0,0,1-16.29,9,36.92,36.92,0,0,0,11.06-24.28,7.43,7.43,0,0,0,.09-.81" transform="translate(0 0)"/></g></g></g><g id="boom_5-4" data-name="boom 5"><g class="cls-61"><g class="cls-61"><path class="cls-49" d="M4902.37,470.92c0,31.67-39.54,32.15-69.3,32.15s-73.2-8.73-73.2-40.41S4806.25,324.5,4836,324.5s66.37,114.74,66.37,146.42" transform="translate(0 0)"/><path class="cls-50" d="M4863.22,456.26c11,.5,23-11.13,21.92-22.32-.21-2.11-3.51-2.12-3.31,0,.92,9.44-9.14,19.26-18.42,19,.29-5.78.26-11.59,0-17.36-.13-2.58.14-8.23-2.64-9.7-1.89-1-3.56,1.86-1.67,2.86,1.54.82,1.08,8.54,1.13,10.12.1,2.91.09,5.83,0,8.74-5-.05-8-4.68-9.49-9.15-.65-2-3.84-1.16-3.19.88,1.87,5.77,6.09,11.62,12.59,11.59,0,1.12-.08,2.25-.13,3.38-.65,14.64-8,26.92-22,31.91.06-1.84.12-3.68.12-5.5,0-24.86,3.29-54.78-5.58-77.85-4.29,16.5-3.75,36.74-5.31,54.24h0c-17.85-1.07-22.49-16.61-24-32.37,0,0,0,0,0-.06-.71-7.24-.78-14.53-1.17-20.49-.14-2.11-3.45-2.13-3.31,0,.37,5.53.55,11.9,1.11,18.32-4.27-1.58-8.1-4-10-8.41-.85-2-3.7-.27-2.86,1.67,2.43,5.58,7.71,8.54,13.24,10.35,1.05,9.11,3.14,18,7.93,24.48-4.36,2.86-9.91,2.56-14.76,1.17-2-.59-2.92,2.6-.88,3.19,5.81,1.66,12.69,1.89,17.78-1.8,3.92,4,9.28,6.72,16.69,7.21-2.49,28.57,2.27,62.75-6.48,89.87,0,0,4.7,3.88,6.61,4.4,2.51.69,8.33,1.8,8.65-1.26.88-8.57,1-42.38,2.12-63.64a37,37,0,0,0,10.86-5.58,1.45,1.45,0,0,0,.4.16,21.11,21.11,0,0,0,22.12-10.28,1.66,1.66,0,0,0-2.86-1.67,17.73,17.73,0,0,1-16.3,9,36.92,36.92,0,0,0,11.06-24.28,4.46,4.46,0,0,0,.09-.81" transform="translate(0 0)"/></g></g></g><g id="boom_5-5" data-name="boom 5"><g class="cls-62"><g class="cls-62"><path class="cls-49" d="M4740.06,470.92c0,31.67-39.54,32.15-69.3,32.15s-73.21-8.73-73.21-40.41,46.39-138.16,76.14-138.16,66.37,114.74,66.37,146.42" transform="translate(0 0)"/><path class="cls-50" d="M4700.91,456.26c11,.5,23-11.13,21.91-22.32-.2-2.11-3.51-2.12-3.3,0,.92,9.44-9.14,19.26-18.42,19,.28-5.78.26-11.59,0-17.36-.13-2.58.14-8.23-2.65-9.7-1.88-1-3.56,1.86-1.67,2.86,1.55.82,1.09,8.54,1.14,10.12.1,2.91.09,5.83,0,8.74-5-.05-8-4.68-9.48-9.15-.65-2-3.84-1.16-3.19.88,1.86,5.77,6.09,11.62,12.59,11.59,0,1.12-.08,2.25-.13,3.38-.65,14.64-8,26.92-22,31.91.06-1.84.11-3.68.11-5.5,0-24.86,3.3-54.78-5.58-77.85-4.28,16.5-3.75,36.74-5.3,54.24h0c-17.84-1.07-22.49-16.61-24-32.37,0,0,0,0,0-.06-.72-7.24-.78-14.53-1.18-20.49-.14-2.11-3.44-2.13-3.3,0,.37,5.53.55,11.9,1.11,18.32-4.28-1.58-8.11-4-10-8.41-.85-2-3.7-.27-2.86,1.67,2.43,5.58,7.71,8.54,13.24,10.35,1,9.11,3.14,18,7.92,24.48-4.35,2.86-9.9,2.56-14.75,1.17-2.06-.59-2.92,2.6-.88,3.19,5.8,1.66,12.68,1.89,17.78-1.8,3.91,4,9.27,6.72,16.69,7.21-2.49,28.57,2.27,62.75-6.48,89.87,0,0,4.69,3.88,6.61,4.4,2.51.69,8.33,1.8,8.65-1.26.88-8.57,1-42.38,2.12-63.64a37.19,37.19,0,0,0,10.86-5.58,1.52,1.52,0,0,0,.39.16,21.11,21.11,0,0,0,22.12-10.28,1.66,1.66,0,0,0-2.86-1.67,17.71,17.71,0,0,1-16.29,9,36.92,36.92,0,0,0,11.06-24.28,7.43,7.43,0,0,0,.09-.81" transform="translate(0 0)"/></g></g></g><g id="boom_5-6" data-name="boom 5"><g class="cls-63"><g class="cls-63"><path class="cls-49" d="M4577.75,470.92c0,31.67-39.55,32.15-69.3,32.15s-73.21-8.73-73.21-40.41,46.38-138.16,76.14-138.16,66.37,114.74,66.37,146.42" transform="translate(0 0)"/><path class="cls-50" d="M4538.6,456.26c11,.5,23-11.13,21.91-22.32-.2-2.11-3.51-2.12-3.3,0,.91,9.44-9.14,19.26-18.42,19,.28-5.78.25-11.59,0-17.36-.13-2.58.14-8.23-2.64-9.7-1.89-1-3.56,1.86-1.67,2.86,1.54.82,1.08,8.54,1.14,10.12.1,2.91.08,5.83,0,8.74-5-.05-8-4.68-9.48-9.15-.65-2-3.84-1.16-3.19.88,1.86,5.77,6.09,11.62,12.58,11.59,0,1.12-.08,2.25-.13,3.38-.65,14.64-8,26.92-22,31.91.07-1.84.12-3.68.12-5.5,0-24.86,3.29-54.78-5.58-77.85-4.29,16.5-3.75,36.74-5.31,54.24h0c-17.84-1.07-22.49-16.61-24-32.37,0,0,0,0,0-.06-.71-7.24-.77-14.53-1.17-20.49-.14-2.11-3.45-2.13-3.31,0,.38,5.53.55,11.9,1.12,18.32-4.28-1.58-8.11-4-10-8.41-.86-2-3.7-.27-2.86,1.67,2.42,5.58,7.71,8.54,13.23,10.35,1,9.11,3.14,18,7.93,24.48-4.35,2.86-9.91,2.56-14.75,1.17-2.06-.59-2.93,2.6-.89,3.19,5.81,1.66,12.69,1.89,17.78-1.8,3.92,4,9.28,6.72,16.7,7.21-2.49,28.57,2.27,62.75-6.49,89.87,0,0,4.7,3.88,6.61,4.4,2.52.69,8.34,1.8,8.66-1.26.88-8.57,1-42.38,2.12-63.64a37.19,37.19,0,0,0,10.86-5.58,1.38,1.38,0,0,0,.39.16,21.11,21.11,0,0,0,22.12-10.28,1.66,1.66,0,0,0-2.86-1.67,17.73,17.73,0,0,1-16.3,9,36.93,36.93,0,0,0,11.07-24.28,7.43,7.43,0,0,0,.09-.81" transform="translate(0 0)"/></g></g></g><g id="boom_5-7" data-name="boom 5"><g class="cls-64"><g class="cls-64"><path class="cls-49" d="M4415.43,470.92c0,31.67-39.54,32.15-69.3,32.15s-73.2-8.73-73.2-40.41,46.38-138.16,76.13-138.16,66.37,114.74,66.37,146.42" transform="translate(0 0)"/><path class="cls-50" d="M4376.28,456.26c11,.5,23-11.13,21.92-22.32-.21-2.11-3.51-2.12-3.31,0,.92,9.44-9.14,19.26-18.42,19,.29-5.78.26-11.59,0-17.36-.13-2.58.14-8.23-2.64-9.7-1.89-1-3.56,1.86-1.67,2.86,1.54.82,1.08,8.54,1.13,10.12.1,2.91.09,5.83,0,8.74-5-.05-8-4.68-9.49-9.15-.65-2-3.84-1.16-3.19.88,1.87,5.77,6.09,11.62,12.59,11.59,0,1.12-.08,2.25-.13,3.38-.65,14.64-8,26.92-22,31.91.06-1.84.12-3.68.12-5.5,0-24.86,3.29-54.78-5.58-77.85-4.29,16.5-3.75,36.74-5.31,54.24h0c-17.85-1.07-22.49-16.61-24-32.37,0,0,0,0,0-.06-.71-7.24-.78-14.53-1.17-20.49-.14-2.11-3.45-2.13-3.31,0,.37,5.53.55,11.9,1.11,18.32-4.27-1.58-8.1-4-10-8.41-.85-2-3.7-.27-2.86,1.67,2.43,5.58,7.71,8.54,13.24,10.35,1.05,9.11,3.14,18,7.93,24.48-4.36,2.86-9.91,2.56-14.76,1.17-2.05-.59-2.92,2.6-.88,3.19,5.81,1.66,12.69,1.89,17.78-1.8,3.92,4,9.28,6.72,16.69,7.21-2.49,28.57,2.27,62.75-6.48,89.87,0,0,4.7,3.88,6.61,4.4,2.51.69,8.33,1.8,8.65-1.26.88-8.57,1-42.38,2.12-63.64a37,37,0,0,0,10.86-5.58,1.45,1.45,0,0,0,.4.16,21.11,21.11,0,0,0,22.12-10.28,1.66,1.66,0,0,0-2.86-1.67,17.73,17.73,0,0,1-16.3,9,36.92,36.92,0,0,0,11.06-24.28,4.46,4.46,0,0,0,.09-.81" transform="translate(0 0)"/></g></g></g><g id="boom_4" data-name="boom 4"><g class="cls-65"><g class="cls-65"><path class="cls-66" d="M8264.28,246.88c-.54,13.6-1.31,27.3-2.44,40.87-.44,5.15-1.59,8.15,2.72,9.8,2.24.85,12.59,1.6,14.83.52,4.91-2.38,1-14.95.17-19.95-.95-5.85-1.48-17-3.86-21.12Z" transform="translate(0 0)"/><path class="cls-67" d="M8268.66,180c-7.49,9.79-18.89,20.45-22.43,32.4,4.2,1.37,8.3.13,12.52.08-.52,4.45-5.74,9.36-7.83,13.61-2.7,5.51-4.46,11.45-6.92,16.91,4,1.67,9.32-.09,13.24-1.43-1.17,7-7.74,12.9-9.74,19.94-3,10.64,1.57,9.83,10,8.55,7.61-1.16,15.19,0,22.89-.1,4.54,0,12.77,1.22,16.84-.54-3.25-8.81-13.66-15-17.49-23.55,5.37-1.62,23.88-.12,16.06-9.55-4.91-5.91-11.82-11.06-17.7-16.22,2.32-2.24,8.13-1.25,10-4.09,2.51-3.9-3.68-9.77-5.45-12.74-2.5-4.21-9.85-18.1-13.91-23.27" transform="translate(0 0)"/></g></g></g><g id="boom_4-2" data-name="boom 4"><g class="cls-68"><g class="cls-68"><path class="cls-66" d="M7753.53,278.1c-.5,12.42-1.2,24.94-2.24,37.33-.39,4.7-1.44,7.45,2.5,8.95,2,.78,11.49,1.46,13.54.47,4.48-2.17.89-13.65.15-18.22-.86-5.34-1.35-15.56-3.52-19.29Z" transform="translate(0 0)"/><path class="cls-67" d="M7757.53,217c-6.85,8.95-17.25,18.68-20.49,29.6,3.83,1.25,7.57.12,11.43.07-.47,4.06-5.24,8.55-7.15,12.44-2.47,5-4.07,10.45-6.32,15.44,3.69,1.53,8.52-.08,12.09-1.31-1.06,6.4-7.07,11.79-8.89,18.22-2.76,9.72,1.43,9,9.1,7.81,6.95-1.06,13.87,0,20.91-.09,4.14-.05,11.66,1.11,15.38-.5-3-8-12.48-13.66-16-21.5,4.91-1.49,21.82-.12,14.68-8.73-4.49-5.4-10.81-10.1-16.18-14.82,2.13-2,7.43-1.14,9.11-3.74,2.29-3.56-3.37-8.92-5-11.63-2.29-3.84-9-16.54-12.71-21.26" transform="translate(0 0)"/></g></g></g><g id="boom_4-3" data-name="boom 4"><g class="cls-69"><g class="cls-69"><path class="cls-66" d="M6741.37,216.28c-.47,11.65-1.12,23.38-2.09,35-.37,4.41-1.36,7,2.33,8.39,1.91.73,10.78,1.37,12.69.44,4.21-2,.84-12.8.15-17.08-.81-5-1.26-14.59-3.3-18.08Z" transform="translate(0 0)"/><path class="cls-67" d="M6745.12,159c-6.42,8.39-16.17,17.52-19.21,27.75,3.6,1.17,7.1.11,10.72.07-.44,3.81-4.92,8-6.7,11.65-2.32,4.72-3.82,9.81-5.93,14.49,3.46,1.42,8-.08,11.34-1.23-1,6-6.63,11.05-8.34,17.08-2.59,9.11,1.34,8.41,8.53,7.32,6.52-1,13,0,19.6-.09,3.89,0,10.93,1,14.42-.46-2.78-7.55-11.7-12.81-15-20.16,4.61-1.4,20.46-.11,13.76-8.18-4.2-5.07-10.13-9.48-15.16-13.9,2-1.92,7-1.07,8.53-3.5,2.15-3.34-3.15-8.36-4.66-10.91-2.15-3.6-8.44-15.5-11.92-19.93" transform="translate(0 0)"/></g></g></g><g id="boom_4-4" data-name="boom 4"><g class="cls-70"><g class="cls-70"><path class="cls-66" d="M6980.65,268.2c-.47,11.84-1.14,23.76-2.13,35.57-.37,4.47-1.38,7.09,2.38,8.53,1.94.74,11,1.39,12.89.44,4.28-2.07.85-13,.15-17.36-.82-5.09-1.28-14.82-3.35-18.37Z" transform="translate(0 0)"/><path class="cls-67" d="M6984.46,210c-6.52,8.52-16.43,17.8-19.52,28.2,3.66,1.19,7.22.11,10.89.06-.45,3.88-5,8.15-6.81,11.85-2.35,4.79-3.88,10-6,14.72,3.51,1.45,8.11-.08,11.52-1.25-1,6.09-6.73,11.22-8.47,17.35-2.63,9.26,1.36,8.55,8.67,7.44,6.62-1,13.21,0,19.91-.09,3.95,0,11.11,1.06,14.66-.47-2.83-7.66-11.89-13-15.23-20.48,4.68-1.42,20.79-.11,14-8.32-4.28-5.14-10.3-9.62-15.41-14.11,2-2,7.08-1.09,8.67-3.57,2.18-3.39-3.2-8.49-4.74-11.08-2.18-3.66-8.58-15.75-12.11-20.25" transform="translate(0 0)"/></g></g></g><g id="boom_4-5" data-name="boom 4"><g class="cls-71"><g class="cls-71"><path class="cls-66" d="M6846.05,276.8c-.52,12.78-1.23,25.64-2.3,38.38-.41,4.83-1.49,7.66,2.56,9.21,2.1.8,11.82,1.49,13.92.48,4.61-2.23.92-14,.16-18.73-.89-5.5-1.39-16-3.62-19.83Z" transform="translate(0 0)"/><path class="cls-67" d="M6850.15,214c-7,9.2-17.73,19.21-21.06,30.43,3.95,1.28,7.79.12,11.76.07-.49,4.18-5.39,8.79-7.35,12.78-2.54,5.17-4.19,10.75-6.5,15.88,3.79,1.57,8.76-.08,12.43-1.34-1.1,6.57-7.27,12.11-9.14,18.72-2.84,10,1.47,9.23,9.35,8,7.15-1.09,14.26,0,21.5-.1,4.26,0,12,1.15,15.81-.5-3.05-8.28-12.83-14.05-16.43-22.11,5-1.53,22.43-.12,15.09-9-4.61-5.56-11.11-10.39-16.63-15.23,2.18-2.11,7.64-1.18,9.36-3.85,2.35-3.66-3.46-9.17-5.12-12-2.35-3.95-9.25-17-13.07-21.85" transform="translate(0 0)"/></g></g></g><g id="boom_4-6" data-name="boom 4"><g class="cls-72"><g class="cls-72"><path class="cls-66" d="M6620.33,307.22c-.66,16.31-1.57,32.74-2.94,49-.51,6.17-1.9,9.78,3.28,11.76,2.67,1,15.09,1.91,17.77.61,5.9-2.85,1.17-17.92.21-23.92-1.13-7-1.77-20.43-4.63-25.33Z" transform="translate(0 0)"/><path class="cls-67" d="M6625.58,227c-9,11.75-22.65,24.53-26.91,38.87,5,1.64,9.95.15,15,.09-.62,5.33-6.89,11.22-9.39,16.33-3.24,6.6-5.35,13.72-8.3,20.28,4.84,2,11.18-.11,15.88-1.72-1.4,8.39-9.28,15.47-11.68,23.92-3.62,12.76,1.88,11.78,11.95,10.25,9.12-1.39,18.21,0,27.45-.12,5.45-.06,15.31,1.46,20.2-.65-3.9-10.56-16.39-17.94-21-28.24,6.45-1.95,28.65-.15,19.27-11.45-5.89-7.1-14.19-13.27-21.24-19.46,2.79-2.69,9.76-1.5,11.95-4.91,3-4.68-4.41-11.71-6.53-15.28-3-5-11.82-21.71-16.69-27.91" transform="translate(0 0)"/></g></g></g><g id="boom_3-2" data-name="boom 3"><g class="cls-73"><g class="cls-73"><path class="cls-52" d="M2785.29,438.66c10.7.49,22.36-10.82,21.3-21.7-.2-2-3.42-2.07-3.21,0,.89,9.18-8.89,18.72-17.91,18.49.27-5.62.26-11.27,0-16.88-.12-2.5.14-8-2.56-9.43-1.83-1-3.46,1.81-1.62,2.78,1.5.79,1.05,8.3,1.1,9.83.1,2.83.09,5.67,0,8.5-4.88-.05-7.81-4.55-9.22-8.9-.64-2-3.74-1.12-3.1.86,1.82,5.6,5.91,11.29,12.24,11.26,0,1.1-.08,2.19-.13,3.28-.64,14.24-7.81,26.17-21.38,31,.06-1.79.1-3.57.1-5.34,0-24.17,3.21-53.25-5.41-75.7-4.18,16-3.66,35.73-5.16,52.74h0c-17.35-1-21.86-16.14-23.37-31.46,0,0,0,0,0-.07-.69-7-.75-14.12-1.14-19.91-.13-2-3.35-2.07-3.21,0,.36,5.37.53,11.57,1.08,17.81-4.15-1.54-7.88-3.88-9.74-8.17-.83-1.89-3.59-.26-2.77,1.62,2.36,5.43,7.49,8.3,12.87,10.07,1,8.86,3.06,17.51,7.71,23.8-4.24,2.78-9.64,2.49-14.35,1.15a1.61,1.61,0,0,0-.85,3.1c5.64,1.61,12.33,1.84,17.28-1.76,3.81,3.92,9,6.52,16.24,7-2.42,27.78,2.2,61-6.3,87.37,0,0,4.56,3.78,6.43,4.28,2.44.67,8.1,1.75,8.4-1.23.86-8.33,1-41.19,2.06-61.87a36,36,0,0,0,10.56-5.42,2.15,2.15,0,0,0,.38.15,20.5,20.5,0,0,0,21.51-10,1.61,1.61,0,0,0-2.78-1.62,17.25,17.25,0,0,1-15.84,8.72,36,36,0,0,0,10.76-23.61c0-.26,0-.52,0-.78" transform="translate(0 0)"/><path class="cls-53" d="M2843,389.79c-.17-4.76-.84-6.07-2.73-10.28a19,19,0,0,0-3.51-4.67,16,16,0,0,0-3.36-2.81,18.56,18.56,0,0,0-3.84-20.7l-1.33-1.33a18.72,18.72,0,0,0-13.18-5.46c-.27,0-.53,0-.8,0a18.84,18.84,0,0,0-17.84-13.35,18.25,18.25,0,0,0-3.48.34c0-8.27-5.28-16.57-15.95-16.57a16.51,16.51,0,0,1-22.87,0,16.45,16.45,0,0,1-23.76,0,15.3,15.3,0,0,0-11.31,4.47A16.22,16.22,0,0,0,2702.64,334,18.63,18.63,0,0,0,2686,352.52v1.34a18.43,18.43,0,0,0,.71,5,18.53,18.53,0,0,0-4.7,32.82,18.46,18.46,0,0,0-4,11.41,18.84,18.84,0,0,0,14.76,18.21,18.07,18.07,0,0,0-1.45,7.08,18.84,18.84,0,0,0,13.95,18,18.84,18.84,0,0,0,18,13.95,18.26,18.26,0,0,0,2.67-.22c0,.07,0,.14,0,.22A18.81,18.81,0,0,0,2744.55,479a18.4,18.4,0,0,0,11.53-4.11,18.2,18.2,0,0,0,7.1,1.45,18.61,18.61,0,0,0,13.91-6.37,18.55,18.55,0,0,0,6,1.05,28.79,28.79,0,0,0,23.76-18.71l.07-.06a18.79,18.79,0,0,0,4-5.94A18.55,18.55,0,0,0,2824,432.17l.1-.08a19.44,19.44,0,0,0,4.21-6.3,18.8,18.8,0,0,0,12.06-17.36,18.19,18.19,0,0,0-1.42-7,18.09,18.09,0,0,0,4.08-11.62" transform="translate(0 0)"/></g></g></g></g><g id="wolken"><g id="wolk_4" data-name="wolk 4"><g class="cls-74"><g class="cls-74"><path class="cls-33" d="M7483.75,77.83A25.83,25.83,0,1,0,7509.58,52a25.83,25.83,0,0,0-25.83,25.83" transform="translate(0 0)"/><path class="cls-33" d="M7515.11,96.58c0,14.78-13.9,26.75-31,26.75s-31.06-12-31.06-26.75,13.9-26.75,31.06-26.75,31,12,31,26.75" transform="translate(0 0)"/><path class="cls-33" d="M7576.61,82.13A28.91,28.91,0,1,0,7547.7,111a28.91,28.91,0,0,0,28.91-28.91" transform="translate(0 0)"/><path class="cls-33" d="M7553.24,126.41c0-16.3-15.42-29.52-34.44-29.52s-34.44,13.22-34.44,29.52,15.42,29.52,34.44,29.52,34.44-13.22,34.44-29.52" transform="translate(0 0)"/><path class="cls-33" d="M7530.48,114.11a32,32,0,1,1,32,32,32,32,0,0,1-32-32" transform="translate(0 0)"/></g></g></g><g id="wolk_2" data-name="wolk 2"><g class="cls-75"><g class="cls-75"><path class="cls-33" d="M2533.92,123.32A63.09,63.09,0,1,0,2597,60.24a63.09,63.09,0,0,0-63.09,63.08" transform="translate(0 0)"/><path class="cls-33" d="M2467.65,66.61a44.61,44.61,0,1,1,44.61,44.61,44.61,44.61,0,0,1-44.61-44.61" transform="translate(0 0)"/><path class="cls-33" d="M2400.1,72.34a50.34,50.34,0,1,1,50.34,50.35,50.34,50.34,0,0,1-50.34-50.35" transform="translate(0 0)"/><path class="cls-33" d="M2330,113.76a47.16,47.16,0,1,0,47.16-47.15A47.15,47.15,0,0,0,2330,113.76" transform="translate(0 0)"/><path class="cls-33" d="M2447.26,119.5c0-29.92,30.24-54.17,67.54-54.17s67.55,24.25,67.55,54.17-30.24,54.17-67.55,54.17-67.54-24.25-67.54-54.17" transform="translate(0 0)"/><path class="cls-33" d="M2494.41,146.9a47.16,47.16,0,1,1-47.15-47.15,47.15,47.15,0,0,1,47.15,47.15" transform="translate(0 0)"/></g></g></g><g id="wolk_3" data-name="wolk 3"><g class="cls-76"><g class="cls-76"><path class="cls-33" d="M4169.38,140.21c0,8.1-12.1,14.66-27,14.66s-27-6.56-27-14.66,12.1-14.67,27-14.67,27,6.57,27,14.67" transform="translate(0 0)"/><path class="cls-33" d="M4179.15,132.2c0-3.68-5-6.66-11.13-6.66s-11.13,3-11.13,6.66,5,6.65,11.13,6.65,11.13-3,11.13-6.65" transform="translate(0 0)"/><path class="cls-33" d="M4177.25,144.15c0,4.87-5.23,8.82-11.67,8.82s-11.68-3.95-11.68-8.82,5.23-8.83,11.68-8.83,11.67,4,11.67,8.83" transform="translate(0 0)"/><path class="cls-33" d="M4108.55,146.86a8,8,0,1,0,8-8,8,8,0,0,0-8,8" transform="translate(0 0)"/></g></g></g><g id="wolk_2-2" data-name="wolk 2"><g class="cls-77"><g class="cls-77"><path class="cls-33" d="M3253.92,92.58c0,21.17,17.86,38.34,39.88,38.34s39.89-17.17,39.89-38.34-17.86-38.34-39.89-38.34-39.88,17.16-39.88,38.34" transform="translate(0 0)"/><path class="cls-33" d="M3212,58.11c0-15,12.63-27.11,28.2-27.11s28.2,12.14,28.2,27.11-12.62,27.11-28.2,27.11S3212,73.08,3212,58.11" transform="translate(0 0)"/><path class="cls-33" d="M3169.32,61.6c0-16.9,14.25-30.6,31.82-30.6S3233,44.7,3233,61.6s-14.25,30.59-31.83,30.59-31.82-13.7-31.82-30.59" transform="translate(0 0)"/><path class="cls-33" d="M3125,86.77c0,15.83,13.35,28.66,29.81,28.66s29.82-12.83,29.82-28.66-13.35-28.66-29.82-28.66S3125,70.94,3125,86.77" transform="translate(0 0)"/><path class="cls-33" d="M3199.13,90.26c0-18.19,19.12-32.92,42.7-32.92s42.71,14.73,42.71,32.92-19.12,32.91-42.71,32.91-42.7-14.73-42.7-32.91" transform="translate(0 0)"/><path class="cls-33" d="M3228.94,106.91c0,15.83-13.35,28.66-29.81,28.66s-29.81-12.83-29.81-28.66,13.34-28.66,29.81-28.66,29.81,12.83,29.81,28.66" transform="translate(0 0)"/></g></g></g><g id="wolk_4-2" data-name="wolk 4"><g class="cls-78"><g class="cls-78"><path class="cls-33" d="M1690.48,162a18,18,0,1,0,18-18,18,18,0,0,0-18,18" transform="translate(0 0)"/><path class="cls-33" d="M1712.38,175.14c0,10.32-9.71,18.69-21.69,18.69S1669,185.46,1669,175.14s9.71-18.68,21.69-18.68,21.69,8.36,21.69,18.68" transform="translate(0 0)"/><path class="cls-33" d="M1755.34,165.05a20.19,20.19,0,1,0-20.19,20.19,20.19,20.19,0,0,0,20.19-20.19" transform="translate(0 0)"/><path class="cls-33" d="M1739,196c0-11.38-10.77-20.61-24.06-20.61s-24,9.23-24,20.61,10.77,20.62,24,20.62S1739,207.36,1739,196" transform="translate(0 0)"/><path class="cls-33" d="M1723.12,187.38a22.34,22.34,0,1,1,22.34,22.34,22.34,22.34,0,0,1-22.34-22.34" transform="translate(0 0)"/></g></g></g><path class="cls-33" d="M3751.33,0c10,29.12,41.21,50.38,78.25,50.38l1.3,0a65.73,65.73,0,0,0-.5,8.1c0,42.82,40.51,77.54,90.47,77.54,31.8,0,59.77-14.07,75.9-35.34a83.64,83.64,0,0,0,38.79,9.49A84,84,0,0,0,4115.38,0Z" transform="translate(0 0)"/><path class="cls-33" d="M4904.49,0a69.83,69.83,0,0,0-.49,8.2c0,33.56,24.7,63.51,63.35,83.13-19.71,13.44-31.88,31.86-31.88,52.19,0,41.13,49.78,74.48,111.2,74.48,48.26,0,89.34-20.6,104.72-49.39,32,11.22,72.55,17.92,116.62,17.92,103.7,0,187.77-37.1,187.77-82.87a39.06,39.06,0,0,0-3.43-15.82c46-10.54,79-39.4,79-73.35A52.68,52.68,0,0,0,5529.26,0Z" transform="translate(0 0)"/><g id="Laag_11" data-name="Laag 11"><path class="cls-33" d="M1182.33,0A54.48,54.48,0,0,0,1167,38.28C1167,67.4,1188.94,91,1216,91c18.45,0,34.5-11,42.86-27.17,29.75,16.82,70.28,27.17,115,27.17,39.38,0,75.53-8,103.93-21.47a83.38,83.38,0,0,0,38.09,9c39.45,0,71.43-26,71.43-58.08A48.36,48.36,0,0,0,1582.71,0Z" transform="translate(0 0)"/><path class="cls-33" d="M722.75,75.26a77.85,77.85,0,0,0,.47-8.41A75.9,75.9,0,0,0,683.32,0h-72a75.7,75.7,0,0,0-14.08,9.79A68.39,68.39,0,0,0,586.09,0H508.2a68,68,0,0,0-25.59,34.59c-.83,0-1.66-.05-2.5-.05-45.06,0-81.58,31.46-81.58,70.27s36.52,70.27,81.58,70.27l1.29,0a67.88,67.88,0,0,0-.49,8.1c0,42.83,40.5,77.54,90.46,77.54,31.81,0,59.78-14.07,75.91-35.34A84,84,0,1,0,722.75,75.26Z" transform="translate(0 0)"/><path class="cls-33" d="M139.61,83.16A41.69,41.69,0,0,0,112.4,93.23,29.59,29.59,0,0,0,63.59,65.39,33.41,33.41,0,0,0,9,91.19s0,.1,0,.15A31.13,31.13,0,0,0,0,88v61.31a31,31,0,0,0,9.4-3.57,31.29,31.29,0,0,0,58.34,9.86,54.22,54.22,0,0,0,17.33,2.79,53.1,53.1,0,0,0,23.5-5.33,41.85,41.85,0,1,0,31-69.92Z" transform="translate(0 0)"/><path class="cls-33" d="M8148.82,0a54.48,54.48,0,0,0-15.33,38.28c0,29.12,21.94,52.72,49,52.72,18.44,0,34.5-11,42.86-27.17C8255.1,80.65,8295.62,91,8340.29,91c39.38,0,75.54-8,103.93-21.47a83.43,83.43,0,0,0,38.1,9c39.45,0,71.43-26,71.43-58.08A48.51,48.51,0,0,0,8549.2,0Z" transform="translate(0 0)"/></g></g><g id="personages"><g id="personage_2" data-name="personage 2"><g class="cls-79"><g class="cls-79"><g class="cls-79"><path class="cls-80" d="M3881.08,427.46c0,2.21,1.48,4,3.31,4s3.31-1.79,3.31-4-1.48-4-3.31-4-3.31,1.79-3.31,4" transform="translate(0 0)"/><g class="cls-81"><g class="cls-82"><path class="cls-80" d="M3881.69,428a2.24,2.24,0,1,0,2.2-2.66,2.46,2.46,0,0,0-2.2,2.66" transform="translate(0 0)"/></g></g><path class="cls-80" d="M3853,427.46c0,2.21-1.35,4-3,4s-3-1.79-3-4,1.34-4,3-4,3,1.79,3,4" transform="translate(0 0)"/><g class="cls-81"><g class="cls-83"><path class="cls-80" d="M3852.44,428c0,1.48-.9,2.67-2,2.67s-2-1.19-2-2.67.89-2.66,2-2.66,2,1.19,2,2.66" transform="translate(0 0)"/></g></g><path class="cls-80" d="M3885.09,427a18,18,0,0,0-17.75-18.26c-18.81,0-17.75,2.4-17.75,18.26a18.2,18.2,0,0,0,13.19,17.66v6.76a4.57,4.57,0,0,0,9.13,0v-6.77A18.19,18.19,0,0,0,3885.09,427" transform="translate(0 0)"/><path class="cls-84" d="M3868,396.54c-15.78-1.46-17.1,10.63-17.1,10.63-5,.94-4.57,4.63-4.51,9.69.06,4.41,3.17,9.26,3.17,9.26a22.1,22.1,0,0,1,4-7.63c2.83-3.26,1.63-8.24,1.63-8.24a23.06,23.06,0,0,0,14.65,5.55h0c.63,0,9-2.18,12,4.38,1.63,3.21,3.19,5.94,3.19,5.94,3.25-5.84,4-11.44,3.37-14.74-.42-2.14-4.66-13.39-20.43-14.84" transform="translate(0 0)"/><path class="cls-85" d="M3877.44,515.37V503.79h-20.19v11.58h-6.88l3.35,87.19h10.8V528.74a2.83,2.83,0,0,1,5.66,0v73.82H3881l3.35-87.19Z" transform="translate(0 0)"/><path class="cls-85" d="M3895,518.93h-37.37a5.16,5.16,0,0,1-5.17-5.17V485.42a5.16,5.16,0,0,1,5.17-5.16H3895a5.16,5.16,0,0,1,5.17,5.16v28.34a5.16,5.16,0,0,1-5.17,5.17" transform="translate(0 0)"/><path class="cls-80" d="M3854.64,529.52h-3.44a10.41,10.41,0,0,1-10.4-10.41V482.19h13.84Z" transform="translate(0 0)"/><path class="cls-80" d="M3880.06,529.52h3.44a10.41,10.41,0,0,0,10.4-10.41V482.19h-13.84Z" transform="translate(0 0)"/><path class="cls-86" d="M3895.27,466.69c0-13.35-10.82-16.14-24.17-16.14h-7.5c-13.35,0-24.17,2.43-24.17,15.78v19.84H3847V523.6h40.7V486.17h7.57Z" transform="translate(0 0)"/><path class="cls-85" d="M3851.78,451.59,3887.7,509V495.88l-28.45-45.23a12.3,12.3,0,0,0-7.47.94" transform="translate(0 0)"/><path class="cls-84" d="M3858.93,599.39h-.46a7.31,7.31,0,0,0-7.31,7.32v1.36a1.92,1.92,0,0,0,1.92,1.93h11.24a1.92,1.92,0,0,0,1.93-1.93v-1.36a7.32,7.32,0,0,0-7.32-7.32" transform="translate(0 0)"/><path class="cls-84" d="M3876.22,599.39h-.45a7.32,7.32,0,0,0-7.32,7.32v1.36a1.92,1.92,0,0,0,1.93,1.93h11.24a1.92,1.92,0,0,0,1.92-1.93v-1.36a7.32,7.32,0,0,0-7.32-7.32" transform="translate(0 0)"/><path class="cls-87" d="M3876.82,424.79c0,1.2-.61,2.18-1.37,2.18s-1.37-1-1.37-2.18.61-2.19,1.37-2.19,1.37,1,1.37,2.19" transform="translate(0 0)"/><path class="cls-87" d="M3860.62,424.79c0,1.2-.62,2.18-1.37,2.18s-1.37-1-1.37-2.18.61-2.19,1.37-2.19,1.37,1,1.37,2.19" transform="translate(0 0)"/><g class="cls-88"><g class="cls-89"><path class="cls-90" d="M3875.39,421a5.91,5.91,0,0,0-5.69,4.21,2.31,2.31,0,0,0-4.19-.05,5.78,5.78,0,1,0,.09,1c0-.13,0-.25,0-.37a2.28,2.28,0,0,1,4,0,5,5,0,0,0-.1,1,5.93,5.93,0,1,0,5.92-5.8" transform="translate(0 0)"/></g></g></g></g></g></g></g><g id="verkeersborden"><g id="Illustratie_2" data-name="Illustratie 2"><g class="cls-91"><g class="cls-91"><g class="cls-91"><path class="cls-92" d="M2269.9,619.27c-1.84,2.28-9.64,2.07-11.7,0V600.89h11.7Z" transform="translate(0 0)"/></g><g class="cls-93"><g class="cls-94"><rect class="cls-95" x="2266.06" y="600.89" width="3.84" height="19.91"/></g></g><g class="cls-96"><g class="cls-97"><rect class="cls-98" x="2258.2" y="600.89" width="3.84" height="19.85"/></g></g><g class="cls-91"><path class="cls-92" d="M2269.9,600.89c0-1.29-2.62-2.34-5.85-2.34s-5.85,1.05-5.85,2.34,2.62,2.34,5.85,2.34,5.85-1.05,5.85-2.34" transform="translate(0 0)"/><path class="cls-99" d="M2267.36,600.54c-1,1.9-5.45,1.73-6.62,0V519.39h6.62Z" transform="translate(0 0)"/></g><g class="cls-100"><g class="cls-101"><rect class="cls-102" x="2260.74" y="521.06" width="3.84" height="80.84"/></g></g><g class="cls-91"><path class="cls-103" d="M2260.82,523.64,2223.52,487a5.12,5.12,0,0,1-.07-7.21l36.62-37.3a5.11,5.11,0,0,1,7.2-.07l37.3,36.62a5.11,5.11,0,0,1,.07,7.2L2268,523.57a5.12,5.12,0,0,1-7.21.07" transform="translate(0 0)"/><path class="cls-103" d="M2261.39,516.43l-30.68-30.11a4.21,4.21,0,0,1-.05-5.93l30.11-30.68a4.21,4.21,0,0,1,5.93,0l30.68,30.11a4.21,4.21,0,0,1,0,5.93l-30.11,30.68a4.21,4.21,0,0,1-5.93,0" transform="translate(0 0)"/><path class="cls-104" d="M2261.39,516.43l-30.68-30.11a4.21,4.21,0,0,1-.05-5.93l30.11-30.68a4.21,4.21,0,0,1,5.93,0l30.68,30.11a4.21,4.21,0,0,1,0,5.93l-30.11,30.68A4.21,4.21,0,0,1,2261.39,516.43Z" transform="translate(0 0)"/></g></g></g></g><g id="Illustratie_5" data-name="Illustratie 5"><g class="cls-105"><g class="cls-105"><g class="cls-105"><path class="cls-92" d="M5764.55,619.6c-1.84,2.28-9.64,2.07-11.71,0V601.22h11.71Z" transform="translate(0 0)"/></g><g class="cls-106"><g class="cls-107"><rect class="cls-108" x="5760.71" y="601.22" width="3.84" height="19.91"/></g></g><g class="cls-109"><g class="cls-110"><rect class="cls-111" x="5752.84" y="601.22" width="3.84" height="19.85"/></g></g><g class="cls-105"><path class="cls-92" d="M5764.55,601.22c0-1.29-2.62-2.34-5.85-2.34s-5.86,1-5.86,2.34,2.62,2.34,5.86,2.34,5.85-1,5.85-2.34" transform="translate(0 0)"/><path class="cls-99" d="M5762,600.94c-1,1.8-5.44,1.64-6.61,0V523.87H5762Z" transform="translate(0 0)"/></g><g class="cls-112"><g class="cls-113"><rect class="cls-114" x="5755.39" y="525.45" width="3.84" height="76.78"/></g></g><g class="cls-105"><path class="cls-92" d="M5996.71,619.56c-1.84,2.28-9.63,2.07-11.7,0V601.18h11.7Z" transform="translate(0 0)"/></g><g class="cls-115"><g class="cls-116"><rect class="cls-117" x="5992.87" y="601.18" width="3.84" height="19.91"/></g></g><g class="cls-118"><g class="cls-119"><rect class="cls-120" x="5985.01" y="601.18" width="3.84" height="19.85"/></g></g><g class="cls-105"><path class="cls-92" d="M5996.71,601.18c0-1.29-2.62-2.34-5.85-2.34s-5.85,1-5.85,2.34,2.62,2.34,5.85,2.34,5.85-1,5.85-2.34" transform="translate(0 0)"/><path class="cls-99" d="M5994.17,600.9c-1,1.8-5.45,1.64-6.62,0V523.83h6.62Z" transform="translate(0 0)"/></g><g class="cls-121"><g class="cls-122"><rect class="cls-123" x="5987.55" y="525.41" width="3.84" height="76.78"/></g></g><g class="cls-105"><path class="cls-124" d="M6007.09,525.45H5742.47A25.54,25.54,0,0,1,5717,500V399.47A25.54,25.54,0,0,1,5742.47,374h264.62a25.54,25.54,0,0,1,25.47,25.47V500a25.54,25.54,0,0,1-25.47,25.47" transform="translate(0 0)"/><path class="cls-33" d="M6001.75,383.49a19.82,19.82,0,0,1,19.77,19.76v92.94A19.83,19.83,0,0,1,6001.75,516H5747.16a19.83,19.83,0,0,1-19.77-19.77V403.25a19.82,19.82,0,0,1,19.77-19.76h254.59m0-3H5747.16a22.79,22.79,0,0,0-22.77,22.76v92.94A22.79,22.79,0,0,0,5747.16,519h254.59a22.8,22.8,0,0,0,22.77-22.77V403.25a22.79,22.79,0,0,0-22.77-22.76" transform="translate(0 0)"/></g></g></g></g><g id="Illustratie_6" data-name="Illustratie 6"><g class="cls-125"><g class="cls-125"><g class="cls-125"><path class="cls-92" d="M8495.12,619.75c-1.83,2.27-9.63,2.07-11.7,0V601.36h11.7Z" transform="translate(0 0)"/></g><g class="cls-126"><g class="cls-127"><rect class="cls-128" x="8491.28" y="601.37" width="3.84" height="19.91"/></g></g><g class="cls-129"><g class="cls-130"><rect class="cls-131" x="8483.42" y="601.36" width="3.84" height="19.85"/></g></g><g class="cls-125"><path class="cls-92" d="M8495.12,601.36c0-1.29-2.62-2.34-5.85-2.34s-5.85,1.05-5.85,2.34,2.62,2.34,5.85,2.34,5.85-1,5.85-2.34" transform="translate(0 0)"/><path class="cls-99" d="M8492.58,601.09c-1,1.8-5.44,1.63-6.61,0V524h6.61Z" transform="translate(0 0)"/></g><g class="cls-132"><g class="cls-133"><rect class="cls-134" x="8485.96" y="525.6" width="3.84" height="76.78"/></g></g><g class="cls-125"><path class="cls-124" d="M8581.77,525.6H8350a17.06,17.06,0,0,1-17-17V461a17.05,17.05,0,0,1,17-17h231.62a16.91,16.91,0,0,1,8.05,2c8.5,4.57,52.17,30.57,52.17,38.77,0,7.54-43.56,34.16-52,38.73a16.93,16.93,0,0,1-8.12,2.07" transform="translate(0 0)"/><path class="cls-33" d="M8578.51,454.3a18.58,18.58,0,0,1,8.43,2c7.27,3.7,44.25,25,44.27,28.79S8593.28,510.32,8586,514a18.63,18.63,0,0,1-8.24,1.88H8355.17c-6.39,0-11.62-4.24-11.62-9.41V463.71c0-5.18,5.23-9.41,11.62-9.41h223.34m0-2H8355.17c-7.51,0-13.62,5.12-13.62,11.41v42.71c0,6.29,6.11,11.41,13.62,11.41h222.54a20.57,20.57,0,0,0,9.13-2.09c3.73-1.84,15-8,25.53-14.43,20.85-12.6,20.84-14.8,20.84-16.25s0-3.58-20.37-16.13c-10.29-6.34-21.31-12.57-25-14.44a20.55,20.55,0,0,0-9.34-2.19" transform="translate(0 0)"/></g></g></g></g><g id="Illustratie_5-2" data-name="Illustratie 5"><g class="cls-135"><g class="cls-135"><g class="cls-135"><path class="cls-92" d="M11225.55,619.6c-1.84,2.28-9.64,2.07-11.71,0V601.22h11.71Z" transform="translate(0 0)"/></g><g class="cls-136"><g class="cls-137"><rect class="cls-138" x="11221.71" y="601.22" width="3.84" height="19.91"/></g></g><g class="cls-139"><g class="cls-140"><rect class="cls-141" x="11213.84" y="601.22" width="3.84" height="19.85"/></g></g><g class="cls-135"><path class="cls-92" d="M11225.55,601.22c0-1.29-2.62-2.34-5.85-2.34s-5.86,1-5.86,2.34,2.62,2.34,5.86,2.34,5.85-1,5.85-2.34" transform="translate(0 0)"/><path class="cls-99" d="M11223,600.94c-1,1.8-5.44,1.64-6.61,0V523.87h6.61Z" transform="translate(0 0)"/></g><g class="cls-142"><g class="cls-143"><rect class="cls-144" x="11216.39" y="525.45" width="3.84" height="76.78"/></g></g><g class="cls-135"><path class="cls-92" d="M11457.71,619.56c-1.84,2.28-9.63,2.07-11.7,0V601.18h11.7Z" transform="translate(0 0)"/></g><g class="cls-145"><g class="cls-146"><rect class="cls-147" x="11453.87" y="601.18" width="3.84" height="19.91"/></g></g><g class="cls-148"><g class="cls-149"><rect class="cls-150" x="11446.01" y="601.18" width="3.84" height="19.85"/></g></g><g class="cls-135"><path class="cls-92" d="M11457.71,601.18c0-1.29-2.62-2.34-5.85-2.34s-5.85,1-5.85,2.34,2.62,2.34,5.85,2.34,5.85-1,5.85-2.34" transform="translate(0 0)"/><path class="cls-99" d="M11455.17,600.9c-1,1.8-5.45,1.64-6.62,0V523.83h6.62Z" transform="translate(0 0)"/></g><g class="cls-151"><g class="cls-152"><rect class="cls-153" x="11448.55" y="525.41" width="3.84" height="76.78"/></g></g><g class="cls-135"><path class="cls-124" d="M11468.09,525.45h-264.62A25.54,25.54,0,0,1,11178,500V399.47a25.54,25.54,0,0,1,25.47-25.47h264.62a25.54,25.54,0,0,1,25.47,25.47V500a25.54,25.54,0,0,1-25.47,25.47" transform="translate(0 0)"/><path class="cls-33" d="M11462.75,383.49a19.82,19.82,0,0,1,19.77,19.76v92.94a19.83,19.83,0,0,1-19.77,19.77h-254.59a19.83,19.83,0,0,1-19.77-19.77V403.25a19.82,19.82,0,0,1,19.77-19.76h254.59m0-3h-254.59a22.79,22.79,0,0,0-22.77,22.76v92.94a22.79,22.79,0,0,0,22.77,22.77h254.59a22.8,22.8,0,0,0,22.77-22.77V403.25a22.79,22.79,0,0,0-22.77-22.76" transform="translate(0 0)"/></g></g></g></g><g id="Illustratie_6-2" data-name="Illustratie 6"><g class="cls-154"><g class="cls-154"><g class="cls-154"><path class="cls-92" d="M13854.12,619.75c-1.83,2.27-9.63,2.07-11.7,0V601.36h11.7Z" transform="translate(0 0)"/></g><g class="cls-155"><g class="cls-156"><rect class="cls-157" x="13850.28" y="601.37" width="3.84" height="19.91"/></g></g><g class="cls-158"><g class="cls-159"><rect class="cls-160" x="13842.42" y="601.36" width="3.84" height="19.85"/></g></g><g class="cls-154"><path class="cls-92" d="M13854.12,601.36c0-1.29-2.62-2.34-5.85-2.34s-5.85,1.05-5.85,2.34,2.62,2.34,5.85,2.34,5.85-1,5.85-2.34" transform="translate(0 0)"/><path class="cls-99" d="M13851.58,601.09c-1,1.8-5.44,1.63-6.61,0V524h6.61Z" transform="translate(0 0)"/></g><g class="cls-161"><g class="cls-162"><rect class="cls-163" x="13844.96" y="525.6" width="3.84" height="76.78"/></g></g><g class="cls-154"><path class="cls-124" d="M13940.77,525.6H13709a17.06,17.06,0,0,1-17-17V461a17.05,17.05,0,0,1,17-17h231.62a16.91,16.91,0,0,1,8.05,2c8.5,4.57,52.17,30.57,52.17,38.77,0,7.54-43.56,34.16-52,38.73a16.93,16.93,0,0,1-8.12,2.07" transform="translate(0 0)"/><path class="cls-33" d="M13937.51,454.3a18.58,18.58,0,0,1,8.43,2c7.27,3.7,44.25,25,44.27,28.79s-37.93,25.26-45.26,28.89a18.63,18.63,0,0,1-8.24,1.88h-222.54c-6.39,0-11.62-4.24-11.62-9.41V463.71c0-5.18,5.23-9.41,11.62-9.41h223.34m0-2h-223.34c-7.51,0-13.62,5.12-13.62,11.41v42.71c0,6.29,6.11,11.41,13.62,11.41h222.54a20.57,20.57,0,0,0,9.13-2.09c3.73-1.84,15-8,25.53-14.43,20.85-12.6,20.84-14.8,20.84-16.25s0-3.58-20.37-16.13c-10.29-6.34-21.31-12.57-25-14.44a20.55,20.55,0,0,0-9.34-2.19" transform="translate(0 0)"/></g></g></g></g></g><g id="Laag_16" data-name="Laag 16"><text class="cls-164" transform="translate(5791.13 442.92)">Wanneer en <tspan x="-57.9" y="33.6">hoelang blijven We?</tspan></text><text class="cls-164" transform="translate(8395.53 495.22)">waar heen?</text><text class="cls-164" transform="translate(11205.82 459.52)">hoe gaan we heen?</text><text class="cls-164" transform="translate(13728.61 494.1)">waarom auto?</text></g></g></svg>