<svg id="Laag_1" data-name="Laag 1" xmlns="http://www.w3.org/2000/svg" viewBox="0 0 160 160"><defs><style>.cls-1{fill:#b6b6b5;}.cls-2{fill:#676767;}</style></defs><path class="cls-1" d="M97.74,88.7a19.78,19.78,0,0,0,1.39-3.12,20.06,20.06,0,0,0,.9-9.38L144.72,48l-50,17.13a20.16,20.16,0,0,0-8.07-5.21,18.51,18.51,0,0,0-3.1-.78L70.43,7.94l.83,52.85a20,20,0,0,0-9,8.68l-53-3.38L60,81.63A20.2,20.2,0,0,0,65.36,92.9L45.77,142.06,76.21,98.83a20.12,20.12,0,0,0,12.6-1.63l40.67,33.66Z"/><path class="cls-2" d="M80,34A46,46,0,1,1,34,80,46,46,0,0,1,80,34M80,0a80,80,0,1,0,80,80A80,80,0,0,0,80,0Z"/></svg>