<svg id="Laag_1" data-name="Laag 1" xmlns="http://www.w3.org/2000/svg" xmlns:xlink="http://www.w3.org/1999/xlink" viewBox="0 0 1305.17 408.61"><defs><style>.cls-1,.cls-7{fill:none;}.cls-2{clip-path:url(#clip-path);}.cls-3{fill:#f7f6df;}.cls-4{fill:#575657;}.cls-5{fill:#bbfffd;opacity:0.31;}.cls-6{fill:#8c0404;}.cls-7{stroke:#666;stroke-width:9px;}.cls-7,.cls-9{stroke-miterlimit:10;}.cls-8{fill:#b70f0f;}.cls-9{fill:#ffe8cc;stroke:#000;}</style><clipPath id="clip-path"><rect class="cls-1" x="717.17" y="37.61" width="92.74" height="121.1"/></clipPath></defs><g id="gezicht_2" data-name="gezicht 2"><g class="cls-2"><g class="cls-2"><path class="cls-3" d="M717.17,97.2c0,31.59,21.61,59.94,48.85,59.94,10.79,0,27.34,2.92,36.57-5.76,6.1-5.73-6.23-13.8-1-15.84,5.46-2.14.67-5.24,2.38-6.73,2.49-2.18,0-4.09-1-6.2-2.78-5.92-3-7.43,5.08-9.63,6.31-1.72-5.49-12.63-4.64-19.51C811.08,31.35,793.73,40,766.49,40S717.17,65.62,717.17,97.2"/><path class="cls-4" d="M805.9,65.64c-4.17-37.88-6.36-25.63-48.33-27.73-22.29-1.11-40.4,30.18-40.4,59.29s17.27,51.73,28.57,54.37c21.51,5,8.62-49.49,25.91-54.37,10.22-2.88,16.07,9.3,15.83-23.08-.08-9.82,19.4.49,18.42-8.48"/><path class="cls-4" d="M805.18,138.88c2.15,13.93-6.92,19.83-19.47,19.83s-13-7.25-13-18.61-1-31.06,5.36-29.28c5.18,1.44,12.63,10.81,16.19,17.65,2.41,4.65,10.34,6.37,11,10.41"/><path class="cls-4" d="M802.59,119.92c-.69-1.14-1-1.28-2.54-1.07-4.34.59-9,6.86-8.38,11.23.24,1.61-.83,4.48,3.42,5.18,1.43-7.81,2.42-10.66,4.55-11.83,1.88-1,3.88-.82,3.79-1.69-.07-.56-.11-.61-.84-1.82"/></g></g></g><polygon class="cls-5" points="341.91 161.58 410.85 30.61 671.27 19.68 809.9 11.37 928.16 14.61 946.84 65.5 976.16 169.61 669.16 178.61 341.91 161.58"/><polygon id="uitlaat" class="cls-6" points="48.16 373.61 48.16 381.61 0.49 375.23 0 388.85 61.97 396.98 62.46 374.37 48.16 373.61"/><ellipse class="cls-7" cx="933.9" cy="149.89" rx="42.51" ry="10.47" transform="translate(569.69 1022.8) rotate(-76.47)"/><path class="cls-8" d="M1287.17,389.61l-2-191.49L979.77,165.6S942.67,18.11,930,5.1c-16.28-16-515.82,10.13-529.28,17-22.5,11.5-67,137-67,137l-311.5,20.5-.5,192,230,16.5s-10.08-94,92-94c99,0,89,97,89,97h528s-13-114,91-114c101,0,89,113,89,113Zm-653.52-224-275.48-8,56.88-116,225.12-11Zm65.88,0s-12.36-126,0-135c15-10.93,213.93-16,229.64-4,10.56,8.07,41,139,41,139Z"/><path class="cls-6" d="M1281.78,231.38c0-4.24,7.13-27.13,2.73-30-5-3.31-57.34,10.92-57.34,30,0,21.84,55.1,35.91,60.07,32.76C1291.89,261.21,1281.78,235.75,1281.78,231.38Z"/><ellipse class="cls-9" cx="1285.88" cy="232.74" rx="12.29" ry="34.13"/><path class="cls-6" d="M1211.17,372.61v26c0,9,4.47,10,10,10h74c5.52,0,10-3,10-12v-39c0-9-4.48-10.79-10-10.79h-9l.24-.21c0,9.06-4.47,16.43-10,16.39l-55.14-.62C1215.68,362.31,1211.17,363.58,1211.17,372.61Z"/><path id="spiegel" class="cls-6" d="M946.84,185.86l7.33-51.25s18,6,16.08,34C968.17,198.61,946.84,185.86,946.84,185.86Z"/><path class="cls-6" d="M358.6,202.61s43.94-30.94,69.47,0Z"/><path class="cls-6" d="M702.17,202.61s43.93-30.94,69.46,0Z"/></svg>